<svg width="626" height="360" viewBox="0 0 626 360" fill="none" xmlns="http://www.w3.org/2000/svg">
<g filter="url(#filter0_dd_267_4)">
<rect x="98.3047" y="111.316" width="279" height="74" rx="37" transform="rotate(-5 98.3047 111.316)" fill="url(#paint0_linear_267_4)"/>
</g>
<path d="M137.115 133.14L136.655 127.885L163.985 125.494L164.445 130.749L153.844 131.676L156.375 160.613L150.294 161.145L147.762 132.208L137.115 133.14ZM175.21 145.161L176.408 158.86L170.626 159.366L167.634 125.174L173.417 124.669L174.599 138.185C176.047 135.345 178.377 133.784 181.589 133.503C184.129 133.281 186.273 133.918 188.023 135.415C189.788 136.91 190.806 139.21 191.078 142.316L192.403 157.461L186.597 157.969L185.352 143.741C185.197 141.967 184.651 140.658 183.714 139.815C182.777 138.972 181.536 138.618 179.991 138.753C178.476 138.886 177.255 139.471 176.329 140.507C175.402 141.544 175.029 143.095 175.21 145.161ZM208.308 156.624C205.89 156.836 203.747 156.476 201.877 155.545C200.008 154.614 198.508 153.243 197.378 151.43C196.263 149.601 195.598 147.462 195.383 145.014C195.168 142.551 195.467 140.328 196.28 138.346C197.107 136.346 198.345 134.727 199.994 133.489C201.642 132.235 203.598 131.509 205.862 131.31C208.187 131.107 210.269 131.464 212.106 132.383C213.944 133.301 215.428 134.667 216.557 136.479C217.686 138.277 218.358 140.414 218.575 142.893L218.714 144.476L201.182 146.01C201.431 147.977 202.152 149.517 203.344 150.63C204.535 151.744 206.103 152.216 208.046 152.046C209.499 151.919 210.673 151.5 211.566 150.79C212.458 150.064 213.027 149.167 213.273 148.097L218.689 147.623C218.52 149.226 217.969 150.677 217.035 151.976C216.115 153.274 214.906 154.336 213.405 155.161C211.904 155.971 210.205 156.458 208.308 156.624ZM200.879 142.013L212.811 140.969C212.476 139.256 211.73 137.95 210.572 137.049C209.428 136.132 208.023 135.746 206.355 135.892C204.672 136.039 203.347 136.664 202.38 137.766C201.427 138.851 200.926 140.267 200.879 142.013ZM249.407 153.029C246.255 153.304 243.406 152.806 240.859 151.534C238.312 150.261 236.242 148.361 234.649 145.834C233.071 143.305 232.13 140.296 231.824 136.808C231.511 133.229 231.927 130.055 233.073 127.288C234.233 124.52 235.951 122.304 238.225 120.64C240.515 118.975 243.19 118.009 246.25 117.742C248.805 117.518 251.182 117.819 253.381 118.644C255.58 119.453 257.438 120.694 258.956 122.364C260.488 124.019 261.525 126.009 262.068 128.335L255.895 128.875C255.298 126.985 254.191 125.518 252.573 124.472C250.97 123.41 249.074 122.975 246.886 123.166C244.836 123.345 243.106 124.005 241.695 125.146C240.284 126.287 239.246 127.812 238.58 129.72C237.929 131.611 237.712 133.796 237.928 136.274C238.144 138.737 238.745 140.851 239.732 142.614C240.717 144.362 242.004 145.676 243.591 146.554C245.193 147.416 247.018 147.757 249.068 147.578C250.751 147.431 252.221 146.963 253.478 146.175C254.749 145.37 255.713 144.322 256.371 143.031C257.028 141.741 257.295 140.291 257.17 138.684L249.23 139.378L248.81 134.582L262.739 133.364L263.101 137.494C263.343 140.263 262.908 142.776 261.795 145.031C260.697 147.285 259.077 149.123 256.935 150.543C254.792 151.949 252.283 152.777 249.407 153.029ZM276.172 150.525C273.755 150.737 271.698 150.308 270.001 149.238C268.319 148.152 267.371 146.401 267.16 143.984C266.999 142.148 267.319 140.694 268.119 139.622C268.934 138.533 270.04 137.697 271.438 137.112C272.851 136.526 274.384 136.076 276.037 135.761C278.263 135.305 279.811 134.938 280.681 134.661C281.551 134.385 281.949 133.834 281.877 133.007L281.861 132.824C281.77 131.784 281.298 130.969 280.445 130.381C279.607 129.792 278.5 129.557 277.123 129.677C275.716 129.801 274.597 130.23 273.767 130.965C272.953 131.699 272.552 132.582 272.565 133.614L266.989 134.102C266.917 131.688 267.749 129.665 269.487 128.033C271.225 126.401 273.678 125.447 276.844 125.17C279.996 124.894 282.523 125.413 284.426 126.726C286.329 128.04 287.391 129.958 287.612 132.483L289.058 149.005L283.367 149.503L283.067 146.083L282.976 146.092C282.488 147.213 281.726 148.189 280.688 149.02C279.651 149.851 278.146 150.353 276.172 150.525ZM277.22 146.11C279.117 145.944 280.512 145.328 281.405 144.263C282.297 143.183 282.682 141.94 282.559 140.532L282.33 137.916C281.998 138.176 281.336 138.45 280.344 138.737C279.35 139.009 278.265 139.289 277.087 139.577C275.864 139.869 274.817 140.315 273.944 140.916C273.086 141.5 272.705 142.342 272.801 143.444C272.884 144.392 273.324 145.102 274.12 145.571C274.917 146.041 275.95 146.221 277.22 146.11ZM298.759 134.351L299.958 148.051L294.175 148.557L292.055 124.325L297.746 123.827L298.071 127.544C299.509 124.597 301.865 122.981 305.139 122.694C307.678 122.472 309.823 123.109 311.572 124.606C313.337 126.101 314.355 128.401 314.627 131.506L315.952 146.652L310.146 147.16L308.902 132.932C308.746 131.158 308.2 129.849 307.263 129.006C306.326 128.163 305.085 127.809 303.54 127.944C302.025 128.077 300.805 128.661 299.878 129.698C298.951 130.735 298.578 132.286 298.759 134.351ZM332.974 155.152C329.777 155.431 327.177 154.965 325.175 153.753C323.173 152.541 321.908 150.771 321.381 148.443L327.049 147.947C327.415 148.963 328.088 149.698 329.068 150.152C330.05 150.621 331.221 150.796 332.583 150.677C334.388 150.519 335.745 149.907 336.654 148.841C337.578 147.774 337.959 146.314 337.797 144.463L337.474 140.769L337.451 140.771C336.795 142.262 335.869 143.399 334.674 144.181C333.477 144.949 332.083 145.402 330.492 145.542C328.381 145.726 326.491 145.36 324.823 144.442C323.155 143.524 321.804 142.178 320.77 140.403C319.75 138.612 319.133 136.5 318.921 134.067C318.707 131.62 318.953 129.417 319.661 127.459C320.368 125.501 321.463 123.925 322.947 122.732C324.43 121.538 326.204 120.851 328.27 120.671C329.845 120.533 331.298 120.745 332.626 121.307C333.969 121.852 335.099 122.786 336.016 124.109L336.039 124.107L335.724 120.504L341.438 120.004L343.504 143.617C343.722 146.111 343.401 148.174 342.542 149.806C341.684 151.453 340.422 152.704 338.755 153.559C337.089 154.43 335.162 154.96 332.974 155.152ZM331.428 140.65C333.325 140.484 334.779 139.656 335.789 138.164C336.813 136.657 337.224 134.74 337.02 132.415C336.817 130.089 336.08 128.281 334.811 126.989C333.556 125.681 331.98 125.109 330.083 125.275C328.293 125.432 326.906 126.224 325.921 127.651C324.936 129.078 324.551 131.024 324.766 133.487C324.983 135.965 325.7 137.821 326.918 139.056C328.135 140.275 329.638 140.807 331.428 140.65Z" fill="white"/>
<g filter="url(#filter1_dd_267_4)">
<rect x="165.051" y="21.957" width="439" height="74" rx="37" transform="rotate(2.67183 165.051 21.957)" fill="url(#paint1_linear_267_4)"/>
</g>
<path d="M194.228 77.378L195.828 43.093L204.572 43.501L210.404 61.8293C210.682 62.7955 211.03 64.057 211.45 65.6139C211.87 67.1555 212.248 68.6029 212.584 69.9561C213.046 68.6401 213.549 67.2339 214.096 65.7374C214.658 64.2263 215.123 63.0027 215.489 62.0667L222.888 44.3558L231.678 44.766L230.078 79.051L224.095 78.7718L224.911 61.2842C224.968 60.0723 225.06 58.5854 225.189 56.8234C225.317 55.0615 225.445 53.3072 225.573 51.5605C224.869 53.4648 224.2 55.286 223.565 57.0244C222.931 58.7474 222.406 60.1218 221.989 61.1478L214.638 78.3305L209.668 78.0986L203.903 60.3038C203.597 59.2902 203.206 57.9422 202.731 56.2597C202.272 54.5626 201.787 52.7796 201.274 50.9109C201.242 52.6005 201.202 54.282 201.154 55.9555C201.123 57.6144 201.08 59.0191 201.027 60.1696L200.211 77.6572L194.228 77.378ZM235.819 88.9581L236.039 84.241L238.915 84.3752C239.697 84.4118 240.313 84.2253 240.763 83.8158C241.227 83.4224 241.65 82.758 242.032 81.8227L243.039 79.5175L234.801 54.9199L240.945 55.2066L244.818 68.0704C245.083 68.9898 245.34 69.9088 245.589 70.8275C245.839 71.7308 246.081 72.6338 246.316 73.5364C246.951 71.7827 247.618 70.0151 248.316 68.2337L253.347 55.7853L259.422 56.0688L247.241 83.8644C245.624 87.5401 243.082 89.2971 239.615 89.1353L235.819 88.9581ZM270.319 81.5054C267.358 81.3672 264.913 80.5613 262.983 79.0877C261.069 77.5994 260.081 75.547 260.019 72.9306L265.748 73.198C265.816 74.3849 266.249 75.3275 267.046 76.0258C267.844 76.7087 268.972 77.0842 270.43 77.1522C271.826 77.2173 272.935 76.9924 273.759 76.4774C274.597 75.9631 275.037 75.2764 275.077 74.4174C275.111 73.681 274.84 73.0765 274.262 72.6037C273.685 72.1309 272.895 71.7635 271.892 71.5015L267.79 70.4569C263.111 69.2546 260.858 66.805 261.031 63.1081C261.135 60.8684 262.109 59.1075 263.952 57.8253C265.796 56.5277 268.198 55.948 271.159 56.0861C274.104 56.2236 276.463 57.0639 278.236 58.6071C280.025 60.1357 280.892 62.1517 280.836 64.655L275.383 64.4005C275.403 63.3099 275.023 62.3928 274.243 61.6492C273.463 60.9056 272.413 60.5031 271.094 60.4415C269.821 60.3821 268.803 60.619 268.04 61.1522C267.277 61.6854 266.877 62.3662 266.838 63.1946C266.804 63.9156 267.06 64.5194 267.607 65.0061C268.153 65.4774 268.928 65.8518 269.929 66.1291L274.259 67.2306C276.644 67.8492 278.379 68.7295 279.463 69.8716C280.563 71.0145 281.071 72.4756 280.988 74.2551C280.914 75.8351 280.405 77.1873 279.461 78.3116C278.533 79.4213 277.28 80.2545 275.701 80.8111C274.122 81.3678 272.328 81.5992 270.319 81.5054ZM299.023 57.9168L298.805 62.5879L293.857 62.357L293.267 75.0126C293.226 75.8869 293.374 76.5011 293.711 76.8551C294.049 77.1937 294.686 77.3848 295.622 77.4285L298.107 77.5444L297.889 82.2155L294.391 82.0523C291.921 81.937 290.111 81.3529 288.961 80.3C287.827 79.2477 287.308 77.6785 287.406 75.5923L288.036 62.0853L283.802 61.8878L284.02 57.2167L288.254 57.4143L288.563 50.7874L294.385 51.059L294.075 57.686L299.023 57.9168ZM301.547 82.3862L302.681 58.0875L308.48 58.3581L307.346 82.6568L301.547 82.3862ZM305.749 54.6103C304.752 54.5637 303.938 54.2106 303.308 53.5509C302.678 52.8758 302.385 52.0704 302.429 51.1347C302.473 50.1989 302.839 49.432 303.528 48.8338C304.217 48.2356 305.06 47.9598 306.057 48.0064C307.039 48.0522 307.845 48.4049 308.475 49.0647C309.106 49.7244 309.399 50.5221 309.355 51.4579C309.311 52.3936 308.945 53.1682 308.255 53.7817C307.566 54.3799 306.731 54.6561 305.749 54.6103ZM323.22 83.951C320.858 83.8408 318.804 83.2069 317.059 82.0493C315.33 80.8925 314.011 79.3397 313.103 77.391C312.21 75.443 311.822 73.2188 311.938 70.7184C312.055 68.218 312.649 66.0396 313.719 64.1832C314.806 62.3122 316.264 60.8814 318.093 59.8906C319.939 58.8852 322.043 58.4377 324.405 58.5479C326.446 58.6431 328.245 59.1268 329.803 59.9989C331.362 60.8557 332.592 62.0046 333.493 63.4457C334.411 64.8721 334.911 66.4943 334.996 68.3123L329.312 68.0471C329.158 66.7331 328.648 65.6486 327.781 64.7933C326.93 63.9234 325.752 63.4534 324.249 63.3832C322.347 63.2945 320.826 63.9383 319.685 65.3149C318.545 66.6914 317.918 68.5838 317.806 70.9922C317.694 73.3853 318.142 75.3202 319.149 76.7969C320.157 78.2583 321.612 79.0334 323.515 79.1221C325.033 79.193 326.233 78.8493 327.114 78.091C327.996 77.3173 328.606 76.262 328.945 74.9249L334.675 75.1923C334.453 76.9653 333.819 78.5269 332.773 79.877C331.741 81.2279 330.401 82.2722 328.752 83.0101C327.12 83.7333 325.276 84.047 323.22 83.951ZM338.455 84.1086L340.055 49.8235L353.148 50.4345C355.664 50.5519 357.814 51.0981 359.598 52.073C361.397 53.0486 362.749 54.38 363.654 56.0672C364.575 57.7551 364.983 59.7189 364.878 61.9586C364.773 64.2136 364.176 66.1381 363.087 67.7323C361.998 69.3264 360.504 70.5327 358.606 71.3512C356.723 72.155 354.524 72.4982 352.009 72.3808L345.106 72.0586L344.53 84.3921L338.455 84.1086ZM345.348 66.8584L352.021 67.1698C354.061 67.265 355.696 66.8262 356.925 65.8536C358.155 64.8656 358.812 63.4742 358.896 61.6794C358.979 59.8999 358.454 58.4688 357.32 57.3859C356.187 56.303 354.601 55.7139 352.56 55.6187L345.887 55.3073L345.348 66.8584ZM367.632 85.4702L368.766 61.1715L374.565 61.4421L373.431 85.7407L367.632 85.4702ZM371.834 57.6942C370.837 57.6477 370.023 57.2945 369.393 56.6348C368.763 55.9597 368.47 55.1543 368.514 54.2186C368.558 53.2829 368.924 52.5159 369.613 51.9177C370.302 51.3196 371.145 51.0438 372.142 51.0903C373.124 51.1361 373.93 51.4889 374.56 52.1486C375.191 52.8083 375.484 53.6061 375.44 54.5418C375.396 55.4776 375.03 56.2522 374.34 56.8657C373.651 57.4638 372.816 57.74 371.834 57.6942ZM376.422 85.8803L385.813 73.9122L378.131 61.6085L384.597 61.9103L386.948 65.8941C387.36 66.6205 387.757 67.3385 388.139 68.0481C388.521 68.7424 388.904 69.4367 389.287 70.131C389.732 69.4754 390.178 68.8197 390.624 68.1641C391.086 67.4938 391.555 66.8163 392.033 66.1314L394.791 62.3859L401.164 62.6834L392.307 74.0999L400.422 87.0003L393.933 86.6975L391.235 82.2363C390.824 81.4946 390.42 80.7762 390.022 80.0812C389.624 79.3862 389.233 78.6915 388.85 77.9972C388.389 78.6521 387.928 79.3071 387.467 79.962C387.006 80.6169 386.529 81.2941 386.035 81.9936L382.888 86.1821L376.422 85.8803ZM403.436 87.141L404.57 62.8423L410.368 63.1129L409.235 87.4116L403.436 87.141ZM407.638 59.365C406.641 59.3185 405.827 58.9654 405.197 58.3056C404.567 57.6306 404.274 56.8252 404.318 55.8894C404.362 54.9537 404.728 54.1867 405.417 53.5886C406.106 52.9904 406.949 52.7146 407.946 52.7611C408.928 52.8069 409.734 53.1597 410.364 53.8194C410.994 54.4792 411.288 55.2769 411.244 56.2126C411.2 57.1484 410.834 57.923 410.144 58.5365C409.455 59.1347 408.62 59.4108 407.638 59.365ZM425.086 88.7047C422.662 88.5916 420.586 87.949 418.857 86.7768C417.129 85.6046 415.825 84.0449 414.948 82.0976C414.086 80.1357 413.713 77.9276 413.827 75.4732C413.942 73.0034 414.535 70.8404 415.606 68.984C416.692 67.113 418.136 65.6738 419.935 64.6662C421.735 63.6434 423.771 63.1849 426.041 63.2908C428.373 63.3996 430.388 64.0318 432.087 65.1872C433.785 66.3426 435.073 67.8939 435.951 69.8412C436.829 71.7731 437.211 73.9816 437.095 76.4667L437.021 78.0544L419.441 77.234C419.425 79.2165 419.934 80.8391 420.966 82.1018C421.999 83.3644 423.489 84.0412 425.437 84.1322C426.895 84.2002 428.114 83.9419 429.094 83.3573C430.075 82.7574 430.759 81.9438 431.145 80.9164L436.575 81.1698C436.195 82.7355 435.455 84.1 434.355 85.2632C433.271 86.4271 431.93 87.3177 430.333 87.935C428.737 88.5369 426.988 88.7935 425.086 88.7047ZM419.674 73.2324L431.639 73.7908C431.536 72.0488 430.971 70.6542 429.943 69.607C428.932 68.5451 427.59 67.9752 425.918 67.8972C424.231 67.8184 422.834 68.2606 421.729 69.2236C420.639 70.172 419.954 71.5083 419.674 73.2324Z" fill="white"/>
<path d="M453.552 89.4797L455.561 80.0265L446.863 79.6206L444.854 89.0738L441.541 88.9192L443.55 79.466L438.396 79.2255L439.103 75.9378L444.234 76.1773L446.037 67.683L440.975 67.4468L441.684 64.1131L446.746 64.3493L448.755 54.8961L452.069 55.0508L450.059 64.5039L458.803 64.912L460.812 55.4588L464.126 55.6134L462.117 65.0666L467.225 65.305L466.562 68.6408L461.408 68.4003L459.605 76.8945L464.69 77.1319L463.983 80.4195L458.921 80.1833L456.911 89.6365L453.552 89.4797ZM447.547 76.3319L456.268 76.7388L458.094 68.2457L449.35 67.8376L447.547 76.3319ZM467.745 81.8403L467.904 78.4348L485.364 56.6045L490.426 56.8408L489.385 79.1606L494.631 79.4054L494.459 83.087L489.213 82.8422L488.826 91.1258L484.869 90.9411L485.255 82.6575L467.745 81.8403ZM485.427 78.9759L486.252 61.3041L486.206 61.302L472.613 78.3317L472.61 78.3778L485.427 78.9759ZM508.981 92.6198C506.71 92.5138 504.72 92.0059 503.01 91.0959C501.3 90.1859 499.98 88.979 499.051 87.4752C498.122 85.9713 497.701 84.2837 497.788 82.4122C497.859 80.8935 498.246 79.5203 498.949 78.2925C499.653 77.0493 500.568 76.0466 501.695 75.2844C502.839 74.5076 504.105 74.0594 505.494 73.9397C503.746 73.5199 502.336 72.5855 501.266 71.1366C500.196 69.6877 499.708 67.9585 499.802 65.9489C499.884 64.1848 500.41 62.6336 501.38 61.2952C502.35 59.9415 503.636 58.9023 505.238 58.1776C506.84 57.453 508.638 57.1372 510.632 57.2302C512.611 57.3226 514.364 57.8041 515.892 58.6748C517.419 59.5455 518.595 60.6996 519.42 62.1371C520.26 63.5599 520.639 65.1534 520.557 66.9175C520.464 68.9117 519.817 70.588 518.616 71.9463C517.416 73.2892 515.941 74.089 514.192 74.3456C515.548 74.6087 516.759 75.1803 517.824 76.0602C518.891 76.9247 519.717 78.0087 520.302 79.312C520.887 80.5999 521.145 81.9955 521.075 83.4989C520.987 85.3704 520.411 87.0115 519.346 88.4223C518.281 89.833 516.855 90.9118 515.067 91.6586C513.28 92.4053 511.251 92.7257 508.981 92.6198ZM509.152 88.9382C511.438 89.0448 513.29 88.5701 514.707 87.514C516.14 86.4586 516.9 84.9951 516.987 83.1237C517.048 81.8351 516.779 80.6772 516.181 79.6501C515.583 78.6229 514.73 77.799 513.621 77.1785C512.513 76.5579 511.222 76.2133 509.749 76.1445C508.277 76.0758 506.952 76.2984 505.775 76.8123C504.613 77.3269 503.679 78.0674 502.973 79.0337C502.282 80.0007 501.907 81.1285 501.847 82.4171C501.76 84.2732 502.381 85.8011 503.708 87.0007C505.037 88.185 506.851 88.8308 509.152 88.9382ZM509.915 72.601C511.802 72.689 513.353 72.2234 514.569 71.204C515.801 70.1699 516.458 68.7709 516.54 67.0068C516.622 65.258 516.105 63.8195 514.989 62.6913C513.874 61.5631 512.365 60.9546 510.462 60.8658C508.56 60.7771 506.993 61.242 505.762 62.2607C504.531 63.2794 503.874 64.6631 503.793 66.4119C503.711 68.1607 504.236 69.6072 505.366 70.7514C506.496 71.8957 508.013 72.5122 509.915 72.601ZM526.241 92.8718L543.131 63.013L543.132 62.99L525.299 62.1578L525.471 58.4762L547.468 59.5027L547.286 63.4144L530.59 93.0748L526.241 92.8718ZM559.419 94.9735C556.443 94.8347 554.027 93.8841 552.173 92.1218C550.333 90.3603 549.316 88.1067 549.121 85.3611L553.171 85.5501C553.416 87.2219 554.068 88.5744 555.126 89.6077C556.185 90.641 557.581 91.1981 559.314 91.279C561.293 91.3714 562.953 90.88 564.295 89.805C565.652 88.7307 566.699 87.2115 567.436 85.2473C568.174 83.2832 568.602 81.0279 568.721 78.4814L568.675 78.4793C567.831 79.762 566.625 80.7357 565.056 81.4005C563.503 82.0659 561.806 82.3557 559.965 82.2698C557.91 82.1739 556.092 81.6048 554.511 80.5625C552.93 79.5048 551.712 78.1028 550.856 76.3564C550 74.61 549.622 72.6553 549.723 70.4923C549.828 68.2373 550.404 66.2733 551.451 64.6004C552.513 62.9281 553.925 61.6565 555.687 60.7856C557.466 59.9001 559.475 59.5095 561.714 59.6141C565.519 59.7916 568.391 61.34 570.33 64.2592C572.269 67.1784 573.118 71.2305 572.876 76.4154C572.697 80.2504 572.087 83.5888 571.048 86.4305C570.024 89.2576 568.547 91.4255 566.616 92.9342C564.687 94.4276 562.287 95.1074 559.419 94.9735ZM560.689 78.614C562.085 78.6791 563.367 78.4007 564.533 77.7787C565.7 77.1567 566.648 76.2862 567.376 75.1672C568.121 74.0336 568.527 72.7534 568.593 71.3268C568.661 69.8848 568.384 68.5729 567.762 67.3909C567.157 66.1942 566.31 65.2323 565.222 64.5051C564.134 63.7625 562.908 63.3594 561.543 63.2957C560.162 63.2312 558.888 63.5177 557.721 64.155C556.569 64.7777 555.629 65.6563 554.9 66.7906C554.186 67.9257 553.795 69.2219 553.727 70.6792C553.659 72.1211 553.921 73.4324 554.512 74.613C555.103 75.7782 555.935 76.7241 557.008 77.4506C558.097 78.1625 559.324 78.5502 560.689 78.614Z" fill="#FF005C"/>
<g filter="url(#filter2_dd_267_4)">
<rect x="136.734" y="161.018" width="379" height="74" rx="37" transform="rotate(6 136.734 161.018)" fill="url(#paint2_linear_267_4)"/>
</g>
<path d="M170.446 218.973L174.033 184.839L187.343 186.238C189.848 186.501 191.963 187.171 193.687 188.248C195.427 189.327 196.707 190.735 197.528 192.474C198.349 194.212 198.642 196.196 198.408 198.426C198.164 200.747 197.382 202.68 196.061 204.225C194.741 205.769 193.022 206.847 190.904 207.458L196.608 221.723L189.941 221.022L184.832 207.932C184.786 207.927 184.732 207.921 184.671 207.915L177.799 207.192L176.494 219.609L170.446 218.973ZM178.324 202.198L185.288 202.93C187.304 203.142 188.954 202.791 190.24 201.876C191.526 200.945 192.264 199.587 192.451 197.8C192.638 196.028 192.19 194.561 191.108 193.397C190.041 192.235 188.492 191.547 186.46 191.333L179.542 190.606L178.324 202.198ZM209.929 223.679C207.516 223.425 205.48 222.663 203.823 221.393C202.165 220.122 200.955 218.49 200.191 216.495C199.445 214.486 199.2 212.26 199.457 209.816C199.716 207.357 200.433 205.232 201.61 203.441C202.803 201.637 204.327 200.284 206.182 199.382C208.039 198.466 210.098 198.126 212.358 198.364C214.679 198.608 216.654 199.356 218.283 200.608C219.912 201.86 221.108 203.483 221.871 205.478C222.636 207.458 222.888 209.685 222.628 212.159L222.462 213.74L204.959 211.9C204.829 213.878 205.242 215.528 206.2 216.848C207.157 218.169 208.606 218.931 210.545 219.135C211.996 219.287 213.228 219.1 214.241 218.573C215.255 218.032 215.985 217.259 216.43 216.256L221.836 216.824C221.366 218.365 220.548 219.684 219.382 220.782C218.232 221.88 216.842 222.692 215.212 223.215C213.584 223.724 211.823 223.878 209.929 223.679ZM205.424 207.919L217.337 209.171C217.335 207.426 216.852 206.001 215.887 204.896C214.939 203.777 213.633 203.13 211.968 202.955C210.288 202.778 208.868 203.139 207.708 204.036C206.565 204.92 205.804 206.214 205.424 207.919ZM231.361 225.376L224.808 200.228L230.925 200.871L234.022 213.936C234.242 214.931 234.446 215.926 234.635 216.918C234.841 217.897 235.039 218.876 235.23 219.853C235.62 218.937 236.009 218.02 236.399 217.104C236.79 216.172 237.189 215.241 237.596 214.311L243.273 202.169L249.321 202.804L237.683 226.04L231.361 225.376ZM259.641 228.904C257.259 228.654 255.229 227.908 253.553 226.666C251.879 225.409 250.637 223.781 249.828 221.781C249.034 219.783 248.769 217.532 249.032 215.027C249.296 212.522 250.023 210.375 251.215 208.586C252.423 206.782 253.977 205.44 255.877 204.559C257.776 203.678 259.917 203.362 262.299 203.613C264.667 203.861 266.688 204.614 268.362 205.871C270.052 207.13 271.293 208.766 272.085 210.779C272.894 212.779 273.167 215.031 272.903 217.536C272.64 220.04 271.905 222.187 270.698 223.975C269.506 225.764 267.953 227.099 266.039 227.978C264.141 228.844 262.008 229.153 259.641 228.904ZM260.149 224.07C261.997 224.265 263.544 223.725 264.79 222.45C266.035 221.176 266.785 219.332 267.039 216.919C267.292 214.506 266.943 212.539 265.991 211.019C265.039 209.498 263.639 208.641 261.791 208.446C259.928 208.251 258.373 208.797 257.125 210.087C255.88 211.361 255.129 213.212 254.874 215.641C254.62 218.054 254.97 220.013 255.924 221.518C256.878 223.024 258.286 223.874 260.149 224.07ZM285.004 196.503L281.417 230.637L275.644 230.03L279.231 195.896L285.004 196.503ZM302.08 208.35L301.591 213L296.666 212.482L295.342 225.082C295.25 225.953 295.362 226.575 295.678 226.948C295.996 227.305 296.621 227.533 297.552 227.631L300.026 227.891L299.538 232.541L296.055 232.176C293.597 231.917 291.824 231.229 290.737 230.111C289.665 228.995 289.238 227.398 289.457 225.321L290.87 211.873L286.655 211.43L287.144 206.78L291.359 207.223L292.052 200.625L297.848 201.234L297.155 207.832L302.08 208.35ZM314.085 234.07L317.672 199.936L340.627 202.349L340.076 207.595L323.169 205.818L322.189 215.142L337.882 216.791L337.342 221.923L321.65 220.273L320.133 234.706L314.085 234.07ZM351.048 238.511C348.665 238.261 346.636 237.515 344.96 236.273C343.285 235.016 342.044 233.388 341.235 231.388C340.441 229.39 340.176 227.139 340.439 224.634C340.702 222.129 341.43 219.982 342.622 218.193C343.83 216.39 345.384 215.047 347.283 214.166C349.183 213.285 351.324 212.969 353.706 213.22C356.073 213.469 358.094 214.222 359.769 215.478C361.459 216.737 362.7 218.373 363.492 220.386C364.301 222.386 364.573 224.638 364.31 227.143C364.047 229.648 363.312 231.794 362.105 233.582C360.913 235.371 359.36 236.706 357.445 237.586C355.548 238.452 353.415 238.76 351.048 238.511ZM351.556 233.678C353.404 233.872 354.951 233.332 356.196 232.058C357.442 230.783 358.192 228.94 358.445 226.527C358.699 224.114 358.35 222.147 357.398 220.626C356.446 219.105 355.046 218.248 353.198 218.054C351.335 217.858 349.78 218.405 348.532 219.694C347.287 220.968 346.536 222.82 346.281 225.248C346.027 227.661 346.377 229.62 347.331 231.126C348.284 232.631 349.693 233.482 351.556 233.678ZM367.05 239.637L369.593 215.446L375.16 216.031L374.738 220.04L374.807 220.047C375.395 218.719 376.199 217.746 377.222 217.127C378.261 216.496 379.56 216.261 381.117 216.425C381.514 216.467 381.864 216.519 382.166 216.582C382.485 216.631 382.759 216.675 382.986 216.714L382.447 221.846C382.236 221.793 381.874 221.716 381.359 221.616C380.845 221.515 380.305 221.435 379.74 221.376C378.365 221.232 377.155 221.583 376.109 222.43C375.077 223.279 374.462 224.651 374.263 226.545L372.823 240.244L367.05 239.637ZM394.071 243.033C391.658 242.78 389.622 242.018 387.965 240.747C386.307 239.476 385.097 237.844 384.334 235.849C383.587 233.84 383.343 231.614 383.6 229.17C383.858 226.711 384.575 224.586 385.752 222.795C386.945 220.991 388.469 219.638 390.325 218.736C392.181 217.82 394.24 217.48 396.5 217.718C398.821 217.962 400.797 218.71 402.425 219.962C404.054 221.214 405.25 222.837 406.013 224.832C406.778 226.812 407.03 229.039 406.77 231.513L406.604 233.094L389.102 231.254C388.971 233.232 389.384 234.882 390.342 236.202C391.299 237.523 392.748 238.285 394.688 238.489C396.138 238.641 397.37 238.454 398.383 237.928C399.397 237.386 400.127 236.613 400.572 235.61L405.979 236.178C405.508 237.719 404.69 239.038 403.524 240.136C402.374 241.235 400.984 242.046 399.354 242.569C397.726 243.078 395.965 243.232 394.071 243.033ZM389.566 227.273L401.479 228.525C401.477 226.78 400.994 225.355 400.029 224.25C399.081 223.131 397.775 222.484 396.11 222.309C394.43 222.133 393.01 222.493 391.851 223.39C390.708 224.274 389.946 225.568 389.566 227.273ZM415.503 244.73L408.951 219.582L415.067 220.225L418.164 233.29C418.384 234.286 418.588 235.28 418.777 236.273C418.983 237.252 419.182 238.23 419.372 239.207C419.762 238.291 420.152 237.374 420.541 236.458C420.933 235.526 421.332 234.595 421.738 233.665L427.415 221.523L433.463 222.159L421.826 245.394L415.503 244.73ZM443.646 248.244C441.233 247.99 439.197 247.228 437.54 245.957C435.882 244.687 434.672 243.054 433.909 241.059C433.162 239.051 432.918 236.825 433.174 234.381C433.433 231.922 434.15 229.797 435.327 228.006C436.52 226.201 438.044 224.848 439.9 223.947C441.756 223.03 443.815 222.691 446.075 222.928C448.396 223.172 450.372 223.92 452 225.172C453.629 226.424 454.825 228.048 455.588 230.043C456.353 232.023 456.605 234.249 456.345 236.724L456.179 238.304L438.676 236.465C438.546 238.443 438.959 240.092 439.917 241.413C440.874 242.733 442.323 243.495 444.262 243.699C445.713 243.852 446.945 243.665 447.958 243.138C448.972 242.596 449.702 241.824 450.147 240.82L455.554 241.389C455.083 242.93 454.265 244.249 453.099 245.346C451.949 246.445 450.559 247.256 448.929 247.78C447.301 248.288 445.54 248.443 443.646 248.244ZM439.141 232.483L451.054 233.735C451.052 231.99 450.569 230.565 449.604 229.46C448.656 228.341 447.35 227.695 445.685 227.52C444.005 227.343 442.585 227.703 441.425 228.601C440.283 229.484 439.521 230.778 439.141 232.483ZM459.007 249.302L461.55 225.111L467.116 225.696L466.695 229.705L466.764 229.712C467.351 228.384 468.156 227.411 469.178 226.793C470.218 226.161 471.516 225.926 473.074 226.09C473.471 226.132 473.821 226.184 474.123 226.247C474.442 226.296 474.715 226.34 474.943 226.379L474.403 231.511C474.193 231.458 473.83 231.381 473.316 231.281C472.801 231.18 472.262 231.1 471.697 231.041C470.322 230.897 469.112 231.248 468.065 232.095C467.034 232.944 466.419 234.316 466.22 236.21L464.78 249.909L459.007 249.302Z" fill="white"/>
<g filter="url(#filter3_dd_267_4)">
<rect x="21" y="264.824" width="474" height="74" rx="37" transform="rotate(-3 21 264.824)" fill="url(#paint3_linear_267_4)"/>
</g>
<path d="M55.0893 288.089L54.8132 282.821L82.2105 281.386L82.4865 286.653L71.8589 287.21L73.3791 316.218L67.2832 316.537L65.7629 287.53L55.0893 288.089ZM92.7415 301.432L93.4612 315.165L87.6643 315.469L85.868 281.194L91.6649 280.89L92.375 294.439C93.9205 291.652 96.3035 290.174 99.524 290.005C102.07 289.871 104.191 290.583 105.887 292.139C107.599 293.695 108.536 296.03 108.699 299.143L109.495 314.325L103.675 314.63L102.927 300.368C102.834 298.589 102.334 297.262 101.427 296.387C100.52 295.512 99.292 295.115 97.7431 295.196C96.2249 295.275 94.9846 295.817 94.0222 296.821C93.0599 297.825 92.633 299.362 92.7415 301.432ZM122.098 314.057C119.675 314.184 117.634 313.683 115.976 312.555C114.332 311.411 113.447 309.628 113.32 307.205C113.223 305.364 113.594 303.923 114.431 302.879C115.283 301.82 116.417 301.022 117.835 300.486C119.267 299.95 120.815 299.554 122.478 299.297C124.719 298.918 126.279 298.606 127.158 298.36C128.037 298.114 128.454 297.577 128.411 296.749L128.401 296.565C128.347 295.522 127.903 294.692 127.071 294.074C126.255 293.456 125.156 293.183 123.776 293.255C122.365 293.329 121.232 293.719 120.377 294.425C119.538 295.13 119.107 295.999 119.084 297.03L113.494 297.323C113.506 294.908 114.408 292.915 116.202 291.345C117.996 289.775 120.48 288.907 123.655 288.74C126.814 288.575 129.322 289.181 131.178 290.56C133.034 291.939 134.028 293.894 134.161 296.424L135.029 312.987L129.324 313.286L129.144 309.858L129.052 309.863C128.526 310.967 127.73 311.916 126.664 312.71C125.598 313.504 124.076 313.953 122.098 314.057ZM123.299 309.68C125.201 309.581 126.616 309.014 127.546 307.981C128.476 306.933 128.903 305.704 128.829 304.293L128.692 301.67C128.351 301.919 127.68 302.169 126.678 302.422C125.676 302.659 124.581 302.901 123.395 303.147C122.162 303.397 121.1 303.806 120.207 304.376C119.329 304.929 118.918 305.758 118.976 306.862C119.026 307.813 119.441 308.537 120.22 309.034C121 309.532 122.026 309.747 123.299 309.68ZM151.698 287.755L151.943 292.425L146.997 292.684L147.66 305.336C147.706 306.21 147.914 306.806 148.285 307.125C148.654 307.429 149.307 307.556 150.242 307.507L152.727 307.377L152.971 312.047L149.475 312.23C147.006 312.359 145.147 311.957 143.899 311.023C142.666 310.088 141.994 308.578 141.885 306.492L141.177 292.989L136.945 293.211L136.7 288.541L140.933 288.319L140.586 281.694L146.405 281.389L146.753 288.014L151.698 287.755ZM182.56 311.05C179.401 311.215 176.572 310.633 174.072 309.303C171.573 307.973 169.563 306.018 168.044 303.437C166.525 300.856 165.672 297.787 165.486 294.229C165.298 290.641 165.824 287.484 167.065 284.758C168.306 282.033 170.1 279.878 172.447 278.294C174.794 276.71 177.547 275.836 180.706 275.67C183.282 275.535 185.64 275.919 187.779 276.822C189.917 277.725 191.71 279.061 193.156 280.83C194.617 282.599 195.605 284.723 196.119 287.203L189.931 287.527C189.357 285.374 188.279 283.739 186.698 282.622C185.118 281.505 183.231 281.005 181.038 281.12C178.952 281.229 177.177 281.829 175.711 282.921C174.261 284.012 173.178 285.499 172.462 287.382C171.761 289.264 171.475 291.439 171.605 293.908C171.733 296.362 172.244 298.488 173.138 300.287C174.047 302.069 175.279 303.427 176.835 304.36C178.391 305.294 180.219 305.705 182.32 305.595C184.498 305.481 186.315 304.794 187.771 303.533C189.228 302.273 190.144 300.541 190.521 298.338L196.686 298.015C196.433 300.535 195.673 302.75 194.405 304.662C193.151 306.558 191.507 308.066 189.475 309.188C187.441 310.294 185.136 310.915 182.56 311.05ZM212.327 309.49C209.934 309.615 207.813 309.196 205.963 308.231C204.113 307.252 202.632 305.838 201.52 303.989C200.423 302.14 199.809 299.958 199.678 297.443C199.546 294.928 199.928 292.693 200.826 290.739C201.737 288.769 203.062 287.201 204.8 286.033C206.538 284.865 208.603 284.219 210.996 284.094C213.373 283.969 215.487 284.396 217.337 285.376C219.203 286.355 220.685 287.776 221.782 289.641C222.894 291.49 223.515 293.671 223.647 296.186C223.779 298.702 223.389 300.936 222.476 302.891C221.579 304.845 220.254 306.406 218.5 307.574C216.762 308.727 214.704 309.365 212.327 309.49ZM212.072 304.636C213.928 304.539 215.371 303.763 216.402 302.31C217.433 300.856 217.885 298.918 217.758 296.495C217.631 294.072 216.979 292.184 215.801 290.831C214.623 289.478 213.106 288.85 211.25 288.947C209.379 289.045 207.929 289.829 206.898 291.298C205.867 292.751 205.416 294.697 205.543 297.135C205.67 299.558 206.323 301.439 207.5 302.776C208.677 304.114 210.201 304.734 212.072 304.636ZM237.719 308.09C235.603 308.201 233.727 307.768 232.092 306.793C230.457 305.818 229.153 304.41 228.18 302.569C227.221 300.712 226.676 298.519 226.543 295.989C226.413 293.504 226.736 291.296 227.511 289.364C228.285 287.416 229.435 285.872 230.959 284.731C232.482 283.575 234.279 282.943 236.349 282.834C237.929 282.751 239.364 282.999 240.656 283.577C241.947 284.155 243.019 285.091 243.871 286.384L243.917 286.382L243.213 272.948L249.009 272.644L250.806 306.919L245.101 307.218L244.907 303.515L244.861 303.517C244.168 304.968 243.195 306.073 241.943 306.83C240.707 307.587 239.299 308.007 237.719 308.09ZM238.822 303.165C240.723 303.065 242.205 302.28 243.266 300.81C244.341 299.323 244.817 297.399 244.693 295.037C244.569 292.676 243.895 290.82 242.671 289.469C241.462 288.102 239.906 287.469 238.004 287.568C236.21 287.662 234.796 288.413 233.763 289.82C232.729 291.228 232.278 293.181 232.409 295.681C232.541 298.196 233.194 300.1 234.369 301.391C235.543 302.668 237.028 303.259 238.822 303.165ZM255.958 306.649L254.685 282.358L260.482 282.054L261.755 306.346L255.958 306.649ZM257.395 278.594C256.398 278.646 255.553 278.375 254.861 277.781C254.168 277.172 253.796 276.399 253.747 275.464C253.698 274.528 253.987 273.729 254.614 273.065C255.24 272.402 256.052 272.044 257.049 271.992C258.03 271.941 258.867 272.212 259.559 272.806C260.252 273.4 260.622 274.165 260.672 275.101C260.721 276.036 260.432 276.843 259.807 277.522C259.18 278.185 258.376 278.543 257.395 278.594ZM271.985 292.039L272.705 305.772L266.908 306.075L265.635 281.784L271.34 281.485L271.535 285.211C273.075 282.316 275.486 280.783 278.768 280.611C281.314 280.478 283.435 281.189 285.131 282.746C286.842 284.301 287.78 286.636 287.943 289.749L288.739 304.931L282.919 305.236L282.171 290.974C282.078 289.195 281.578 287.868 280.671 286.993C279.764 286.118 278.536 285.721 276.987 285.802C275.469 285.882 274.228 286.423 273.266 287.427C272.304 288.431 271.877 289.968 271.985 292.039ZM305.454 314.02C302.249 314.188 299.667 313.631 297.708 312.35C295.75 311.069 294.547 309.256 294.102 306.911L299.783 306.613C300.114 307.641 300.761 308.399 301.725 308.887C302.689 309.39 303.854 309.606 305.219 309.535C307.028 309.44 308.406 308.875 309.351 307.842C310.312 306.807 310.744 305.362 310.647 303.506L310.452 299.803L310.429 299.804C309.722 301.271 308.757 302.375 307.535 303.116C306.312 303.841 304.903 304.246 303.308 304.329C301.192 304.44 299.316 304.008 297.681 303.033C296.046 302.057 294.743 300.665 293.772 298.855C292.815 297.029 292.272 294.897 292.145 292.458C292.016 290.005 292.339 287.812 293.115 285.88C293.89 283.947 295.04 282.411 296.564 281.27C298.088 280.129 299.885 279.504 301.955 279.396C303.535 279.313 304.979 279.576 306.287 280.184C307.61 280.776 308.707 281.749 309.577 283.102L309.6 283.101L309.411 279.489L315.139 279.189L316.379 302.86C316.51 305.36 316.118 307.41 315.202 309.011C314.288 310.628 312.982 311.834 311.286 312.63C309.591 313.442 307.647 313.905 305.454 314.02ZM304.415 299.473C306.316 299.374 307.798 298.596 308.86 297.141C309.936 295.67 310.413 293.769 310.291 291.438C310.169 289.107 309.496 287.274 308.273 285.939C307.064 284.587 305.509 283.961 303.607 284.061C301.813 284.155 300.398 284.898 299.364 286.29C298.33 287.682 297.878 289.613 298.007 292.082C298.137 294.566 298.789 296.447 299.963 297.723C301.137 298.984 302.62 299.567 304.415 299.473ZM347.427 302.409C344.267 302.575 341.437 301.977 338.936 300.617C336.435 299.256 334.433 297.285 332.929 294.704C331.44 292.121 330.605 289.082 330.421 285.585C330.233 281.997 330.76 278.84 332.001 276.114C333.257 273.388 335.051 271.233 337.383 269.65C339.729 268.066 342.436 267.194 345.503 267.033C348.065 266.899 350.43 267.283 352.599 268.184C354.768 269.07 356.581 270.374 358.04 272.097C359.514 273.804 360.481 275.829 360.942 278.173L354.754 278.497C354.224 276.587 353.168 275.082 351.588 273.981C350.023 272.863 348.143 272.362 345.95 272.477C343.895 272.584 342.143 273.184 340.693 274.275C339.243 275.366 338.152 276.853 337.421 278.737C336.704 280.604 336.41 282.78 336.54 285.265C336.67 287.734 337.197 289.867 338.121 291.663C339.045 293.445 340.285 294.802 341.841 295.736C343.411 296.653 345.224 297.058 347.279 296.95C348.966 296.862 350.451 296.446 351.735 295.702C353.033 294.942 354.033 293.928 354.735 292.661C355.438 291.394 355.755 289.955 355.686 288.344L347.726 288.761L347.474 283.953L361.438 283.222L361.655 287.362C361.8 290.138 361.277 292.634 360.086 294.849C358.911 297.063 357.228 298.843 355.038 300.188C352.847 301.518 350.31 302.258 347.427 302.409ZM366.836 300.838L365.563 276.547L371.153 276.254L371.363 280.279L371.432 280.276C371.805 278.872 372.448 277.785 373.361 277.015C374.288 276.228 375.534 275.793 377.098 275.711C377.497 275.691 377.851 275.687 378.159 275.702C378.482 275.7 378.759 275.701 378.989 275.705L379.26 280.857C379.043 280.838 378.673 280.819 378.149 280.8C377.626 280.782 377.08 280.787 376.512 280.817C375.132 280.889 373.992 281.426 373.091 282.426C372.205 283.426 371.812 284.877 371.912 286.779L372.633 300.535L366.836 300.838ZM394.193 299.958C391.801 300.084 389.679 299.664 387.83 298.7C385.979 297.721 384.498 296.307 383.386 294.458C382.29 292.609 381.676 290.427 381.544 287.911C381.412 285.396 381.795 283.162 382.692 281.208C383.603 279.238 384.928 277.669 386.666 276.502C388.404 275.334 390.47 274.688 392.862 274.562C395.239 274.438 397.353 274.865 399.203 275.845C401.069 276.823 402.551 278.245 403.648 280.11C404.76 281.958 405.382 284.14 405.513 286.655C405.645 289.17 405.255 291.405 404.342 293.36C403.445 295.314 402.12 296.875 400.367 298.043C398.628 299.195 396.57 299.834 394.193 299.958ZM393.939 295.105C395.794 295.007 397.237 294.232 398.269 292.779C399.3 291.325 399.752 289.387 399.625 286.964C399.498 284.541 398.845 282.653 397.667 281.3C396.489 279.947 394.972 279.319 393.116 279.416C391.245 279.514 389.795 280.298 388.765 281.766C387.734 283.22 387.282 285.166 387.41 287.604C387.537 290.027 388.189 291.907 389.366 293.245C390.543 294.583 392.068 295.203 393.939 295.105ZM418.849 298.597C416.303 298.73 414.182 298.019 412.486 296.462C410.79 294.906 409.86 292.571 409.697 289.458L408.901 274.275L414.698 273.972L415.446 288.234C415.539 290.013 416.039 291.34 416.946 292.215C417.853 293.09 419.081 293.487 420.63 293.406C422.164 293.326 423.404 292.784 424.351 291.781C425.313 290.777 425.74 289.24 425.632 287.169L424.912 273.436L430.732 273.131L432.005 297.423L426.3 297.722L426.105 293.996C424.549 296.891 422.131 298.425 418.849 298.597ZM437.685 306.767L435.908 272.86L441.612 272.561L441.79 275.943L441.859 275.939C442.558 274.611 443.535 273.591 444.789 272.879C446.044 272.167 447.453 271.771 449.017 271.689C451.103 271.579 452.956 272.02 454.577 273.012C456.212 273.987 457.516 275.403 458.49 277.259C459.478 279.098 460.037 281.26 460.168 283.745C460.3 286.275 459.979 288.514 459.205 290.462C458.445 292.393 457.303 293.929 455.779 295.07C454.255 296.211 452.434 296.837 450.318 296.948C448.723 297.031 447.286 296.761 446.008 296.136C444.745 295.51 443.694 294.527 442.855 293.187L442.786 293.19L443.482 306.464L437.685 306.767ZM448.706 292.165C450.501 292.071 451.915 291.328 452.949 289.936C453.983 288.529 454.434 286.567 454.302 284.052C454.171 281.553 453.518 279.657 452.343 278.365C451.168 277.073 449.683 276.475 447.889 276.569C445.987 276.668 444.499 277.461 443.423 278.948C442.363 280.418 441.894 282.334 442.018 284.696C442.142 287.058 442.808 288.922 444.018 290.289C445.242 291.639 446.805 292.265 448.706 292.165Z" fill="white"/>
<defs>
<filter id="filter0_dd_267_4" x="77.9677" y="66.663" width="325.061" height="138.709" filterUnits="userSpaceOnUse" color-interpolation-filters="sRGB">
<feFlood flood-opacity="0" result="BackgroundImageFix"/>
<feColorMatrix in="SourceAlpha" type="matrix" values="0 0 0 0 0 0 0 0 0 0 0 0 0 0 0 0 0 0 127 0" result="hardAlpha"/>
<feOffset/>
<feGaussianBlur stdDeviation="11.7095"/>
<feComposite in2="hardAlpha" operator="out"/>
<feColorMatrix type="matrix" values="0 0 0 0 1 0 0 0 0 0.2625 0 0 0 0 0.9705 0 0 0 0.1 0"/>
<feBlend mode="normal" in2="BackgroundImageFix" result="effect1_dropShadow_267_4"/>
<feColorMatrix in="SourceAlpha" type="matrix" values="0 0 0 0 0 0 0 0 0 0 0 0 0 0 0 0 0 0 127 0" result="hardAlpha"/>
<feOffset dy="3.45343"/>
<feGaussianBlur stdDeviation="1.72671"/>
<feComposite in2="hardAlpha" operator="out"/>
<feColorMatrix type="matrix" values="0 0 0 0 0 0 0 0 0 0 0 0 0 0 0 0 0 0 0.25 0"/>
<feBlend mode="normal" in2="effect1_dropShadow_267_4" result="effect2_dropShadow_267_4"/>
<feBlend mode="normal" in="SourceGraphic" in2="effect2_dropShadow_267_4" result="shape"/>
</filter>
<filter id="filter1_dd_267_4" x="139.866" y="0.22164" width="485.443" height="137.854" filterUnits="userSpaceOnUse" color-interpolation-filters="sRGB">
<feFlood flood-opacity="0" result="BackgroundImageFix"/>
<feColorMatrix in="SourceAlpha" type="matrix" values="0 0 0 0 0 0 0 0 0 0 0 0 0 0 0 0 0 0 127 0" result="hardAlpha"/>
<feOffset/>
<feGaussianBlur stdDeviation="11.7095"/>
<feComposite in2="hardAlpha" operator="out"/>
<feColorMatrix type="matrix" values="0 0 0 0 1 0 0 0 0 0.2625 0 0 0 0 0.9705 0 0 0 0.1 0"/>
<feBlend mode="normal" in2="BackgroundImageFix" result="effect1_dropShadow_267_4"/>
<feColorMatrix in="SourceAlpha" type="matrix" values="0 0 0 0 0 0 0 0 0 0 0 0 0 0 0 0 0 0 127 0" result="hardAlpha"/>
<feOffset dy="3.45343"/>
<feGaussianBlur stdDeviation="1.72671"/>
<feComposite in2="hardAlpha" operator="out"/>
<feColorMatrix type="matrix" values="0 0 0 0 0 0 0 0 0 0 0 0 0 0 0 0 0 0 0.25 0"/>
<feBlend mode="normal" in2="effect1_dropShadow_267_4" result="effect2_dropShadow_267_4"/>
<feBlend mode="normal" in="SourceGraphic" in2="effect2_dropShadow_267_4" result="shape"/>
</filter>
<filter id="filter2_dd_267_4" x="109.241" y="141.261" width="424.174" height="152.725" filterUnits="userSpaceOnUse" color-interpolation-filters="sRGB">
<feFlood flood-opacity="0" result="BackgroundImageFix"/>
<feColorMatrix in="SourceAlpha" type="matrix" values="0 0 0 0 0 0 0 0 0 0 0 0 0 0 0 0 0 0 127 0" result="hardAlpha"/>
<feOffset/>
<feGaussianBlur stdDeviation="11.7095"/>
<feComposite in2="hardAlpha" operator="out"/>
<feColorMatrix type="matrix" values="0 0 0 0 1 0 0 0 0 0.2625 0 0 0 0 0.2625 0 0 0 0.1 0"/>
<feBlend mode="normal" in2="BackgroundImageFix" result="effect1_dropShadow_267_4"/>
<feColorMatrix in="SourceAlpha" type="matrix" values="0 0 0 0 0 0 0 0 0 0 0 0 0 0 0 0 0 0 127 0" result="hardAlpha"/>
<feOffset dy="3.45343"/>
<feGaussianBlur stdDeviation="1.72671"/>
<feComposite in2="hardAlpha" operator="out"/>
<feColorMatrix type="matrix" values="0 0 0 0 0 0 0 0 0 0 0 0 0 0 0 0 0 0 0.25 0"/>
<feBlend mode="normal" in2="effect1_dropShadow_267_4" result="effect2_dropShadow_267_4"/>
<feBlend mode="normal" in="SourceGraphic" in2="effect2_dropShadow_267_4" result="shape"/>
</filter>
<filter id="filter3_dd_267_4" x="0.0867195" y="219.102" width="519.053" height="140.536" filterUnits="userSpaceOnUse" color-interpolation-filters="sRGB">
<feFlood flood-opacity="0" result="BackgroundImageFix"/>
<feColorMatrix in="SourceAlpha" type="matrix" values="0 0 0 0 0 0 0 0 0 0 0 0 0 0 0 0 0 0 127 0" result="hardAlpha"/>
<feOffset/>
<feGaussianBlur stdDeviation="11.4"/>
<feComposite in2="hardAlpha" operator="out"/>
<feColorMatrix type="matrix" values="0 0 0 0 0.227451 0 0 0 0 0.74902 0 0 0 0 0.494118 0 0 0 0.21 0"/>
<feBlend mode="normal" in2="BackgroundImageFix" result="effect1_dropShadow_267_4"/>
<feColorMatrix in="SourceAlpha" type="matrix" values="0 0 0 0 0 0 0 0 0 0 0 0 0 0 0 0 0 0 127 0" result="hardAlpha"/>
<feOffset dy="3.45343"/>
<feGaussianBlur stdDeviation="1.72671"/>
<feComposite in2="hardAlpha" operator="out"/>
<feColorMatrix type="matrix" values="0 0 0 0 0 0 0 0 0 0 0 0 0 0 0 0 0 0 0.25 0"/>
<feBlend mode="normal" in2="effect1_dropShadow_267_4" result="effect2_dropShadow_267_4"/>
<feBlend mode="normal" in="SourceGraphic" in2="effect2_dropShadow_267_4" result="shape"/>
</filter>
<linearGradient id="paint0_linear_267_4" x1="267.721" y1="185.316" x2="263.332" y2="108.163" gradientUnits="userSpaceOnUse">
<stop stop-color="#88207E"/>
<stop offset="1" stop-color="#B830BB"/>
</linearGradient>
<linearGradient id="paint1_linear_267_4" x1="431.623" y1="95.957" x2="428.828" y2="18.6548" gradientUnits="userSpaceOnUse">
<stop/>
<stop offset="1" stop-color="#454545"/>
</linearGradient>
<linearGradient id="paint2_linear_267_4" x1="366.873" y1="235.018" x2="363.638" y2="157.75" gradientUnits="userSpaceOnUse">
<stop stop-color="#A0033B"/>
<stop offset="1" stop-color="#FF005C"/>
</linearGradient>
<linearGradient id="paint3_linear_267_4" x1="308.825" y1="338.824" x2="306.236" y2="261.508" gradientUnits="userSpaceOnUse">
<stop stop-color="#208C57"/>
<stop offset="1" stop-color="#3ABF7E"/>
</linearGradient>
</defs>
</svg>
