<svg width="633" height="387" viewBox="0 0 633 387" fill="none" xmlns="http://www.w3.org/2000/svg">
<g filter="url(#filter0_dd_268_6)">
<rect x="60.1055" y="80.9219" width="201.666" height="201.666" rx="35" transform="rotate(-10.4375 60.1055 80.9219)" fill="url(#paint0_linear_268_6)"/>
</g>
<g filter="url(#filter1_dd_268_6)">
<rect x="18" y="51.0566" width="186.168" height="74.4495" rx="37.2248" transform="rotate(-10.4375 18 51.0566)" fill="url(#paint1_linear_268_6)"/>
</g>
<path d="M71.3544 98.3918C68.0051 99.0087 64.9008 98.7653 62.0413 97.6614C59.1819 96.5575 56.7696 94.7325 54.8044 92.1862C52.8555 89.637 51.5396 86.5089 50.8567 82.8019C50.1559 78.9973 50.2781 75.5539 51.2232 72.4715C52.1846 69.3862 53.7994 66.8361 56.0675 64.8213C58.3519 62.8035 61.1199 61.4951 64.3717 60.8961C67.0869 60.3959 69.6652 60.4757 72.1066 61.1355C74.545 61.779 76.6629 62.9186 78.4604 64.5543C80.2711 66.1708 81.586 68.198 82.4049 70.636L75.8444 71.8445C75.0118 69.8797 73.6754 68.4197 71.8351 67.4642C70.0082 66.4896 67.9322 66.2164 65.6072 66.6447C63.4285 67.046 61.6413 67.93 60.2456 69.2966C58.8499 70.6632 57.8928 72.4029 57.3742 74.5157C56.8689 76.6092 56.8588 78.9729 57.344 81.6069C57.8262 84.2245 58.686 86.428 59.9234 88.2174C61.1578 89.9904 62.6705 91.2668 64.4616 92.0463C66.2659 92.8066 68.2574 92.9861 70.436 92.5848C72.2245 92.2553 73.752 91.6041 75.0185 90.6312C76.2982 89.6389 77.2247 88.4176 77.7981 86.9671C78.3714 85.5167 78.509 83.9364 78.2108 82.2262L69.7724 83.7806L68.8335 78.6835L83.6371 75.9565L84.4458 80.3464C84.9879 83.2892 84.7776 86.0261 83.8149 88.5569C82.8685 91.0847 81.32 93.2191 79.1696 94.9601C77.0162 96.6848 74.4111 97.8287 71.3544 98.3918ZM104.415 91.6965L92.1474 93.9563L85.4534 57.6178L97.989 55.3086C101.598 54.6437 104.848 54.8099 107.739 55.8073C110.626 56.7884 113.027 58.5062 114.941 60.9609C116.853 63.3993 118.152 66.4801 118.838 70.2034C119.53 73.9592 119.42 77.3331 118.509 80.3252C117.594 83.301 115.94 85.7742 113.546 87.745C111.166 89.6965 108.122 91.0137 104.415 91.6965ZM97.5705 87.2585L103.058 86.2477C107.009 85.5199 109.724 83.8767 111.202 81.318C112.694 78.7402 113.069 75.4351 112.326 71.4029C111.589 67.4033 110.076 64.4797 107.785 62.6321C105.492 60.7684 102.427 60.1899 98.5897 60.8967L92.9072 61.9435L97.5705 87.2585ZM126.974 87.5409L120.28 51.2024L134.157 48.6461C136.823 48.1549 139.211 48.2026 141.319 48.7892C143.444 49.3728 145.187 50.4386 146.548 51.9867C147.925 53.5317 148.833 55.4911 149.27 57.8649C149.71 60.2549 149.554 62.4186 148.801 64.356C148.049 66.2934 146.777 67.9229 144.986 69.2446C143.209 70.547 140.987 71.4438 138.321 71.935L131.004 73.2827L133.412 86.3549L126.974 87.5409ZM129.989 67.771L137.062 66.4681C139.224 66.0698 140.831 65.2107 141.882 63.8907C142.93 62.5545 143.279 60.9352 142.929 59.0329C142.581 57.1469 141.681 55.7745 140.229 54.9158C138.776 54.0571 136.969 53.8269 134.806 54.2252L127.734 55.5281L129.989 67.771ZM158.191 81.7904L151.497 45.4519L165.666 42.8417C168.333 42.3505 170.72 42.3982 172.829 42.9848C174.954 43.5684 176.705 44.6327 178.082 46.1777C179.459 47.7228 180.367 49.6822 180.804 52.056C181.259 54.5273 181.04 56.7614 180.147 58.7582C179.254 60.7551 177.807 62.3917 175.807 63.668L186.042 76.6599L178.945 77.9672L169.681 66.0067C169.633 66.0157 169.576 66.0262 169.511 66.0381L162.194 67.3859L164.629 80.6043L158.191 81.7904ZM161.215 62.0693L168.629 60.7035C170.775 60.3082 172.372 59.4424 173.421 58.1062C174.466 56.7537 174.813 55.1263 174.463 53.224C174.115 51.338 173.206 49.959 171.734 49.087C170.278 48.212 168.469 47.9737 166.307 48.372L158.942 49.7288L161.215 62.0693Z" fill="white"/>
<path d="M157.833 219.511C155.129 220.01 152.637 219.474 150.358 217.904C148.08 216.334 146.689 214.196 146.187 211.489L137.129 162.316C136.631 159.611 137.168 157.12 138.741 154.84C140.314 152.561 142.451 151.171 145.152 150.67L150.069 149.764L148.257 139.929C147.004 133.127 148.334 126.888 152.248 121.212C156.161 115.536 161.516 112.07 168.315 110.814C175.113 109.558 181.354 110.888 187.037 114.803C192.721 118.718 196.185 124.074 197.43 130.871L199.242 140.706L204.159 139.8C206.863 139.302 209.357 139.839 211.64 141.411C213.922 142.984 215.311 145.121 215.805 147.823L224.863 196.996C225.361 199.7 224.826 202.193 223.257 204.475C221.688 206.757 219.549 208.146 216.84 208.642L157.833 219.511ZM182.808 189.49C185.512 188.992 187.651 187.603 189.224 185.324C190.797 183.045 191.333 180.551 190.831 177.844C190.329 175.137 188.94 173 186.665 171.433C184.39 169.866 181.897 169.328 179.184 169.821C176.472 170.314 174.335 171.704 172.774 173.992C171.212 176.279 170.675 178.771 171.162 181.467C171.648 184.164 173.039 186.302 175.333 187.883C177.627 189.463 180.119 189.999 182.808 189.49ZM159.904 147.952L189.407 142.517L187.596 132.683C186.841 128.585 184.765 125.366 181.368 123.026C177.971 120.686 174.224 119.894 170.126 120.649C166.029 121.403 162.81 123.479 160.47 126.876C158.13 130.273 157.337 134.02 158.092 138.118L159.904 147.952Z" fill="white"/>
<g filter="url(#filter2_d_268_6)">
<path d="M303 322C295.945 322 289.315 320.66 283.11 317.981C276.905 315.302 271.507 311.669 266.917 307.082C262.327 302.496 258.695 297.098 256.019 290.89C253.343 284.682 252.003 278.052 252 271C251.997 263.948 253.336 257.318 256.019 251.11C258.701 244.902 262.334 239.504 266.917 234.917C271.501 230.331 276.898 226.698 283.11 224.019C289.322 221.34 295.952 220 303 220C310.048 220 316.678 221.34 322.89 224.019C329.102 226.698 334.499 230.331 339.082 234.917C343.666 239.504 347.3 244.902 349.986 251.11C352.672 257.318 354.01 263.948 354 271C353.99 278.052 352.65 284.682 349.981 290.89C347.312 297.098 343.679 302.496 339.082 307.082C334.486 311.669 329.088 315.304 322.89 317.986C316.692 320.669 310.062 322.007 303 322ZM303 311.8C307.76 311.8 312.245 311.057 316.454 309.571C320.663 308.085 324.508 305.981 327.99 303.257L320.722 295.99C318.257 297.775 315.517 299.157 312.501 300.136C309.485 301.115 306.318 301.603 303 301.6C294.5 301.6 287.275 298.625 281.325 292.675C275.375 286.725 272.4 279.5 272.4 271C272.4 262.5 275.375 255.275 281.325 249.325C287.275 243.375 294.5 240.4 303 240.4C311.5 240.4 318.725 243.375 324.675 249.325C330.625 255.275 333.6 262.5 333.6 271C333.6 274.315 333.09 277.502 332.07 280.562C331.05 283.622 329.647 286.385 327.862 288.85L335.13 296.117C337.85 292.632 339.975 288.765 341.505 284.515C343.035 280.265 343.8 275.76 343.8 271C343.8 259.61 339.847 249.962 331.942 242.057C324.037 234.152 314.39 230.2 303 230.2C291.61 230.2 281.962 234.152 274.057 242.057C266.152 249.962 262.2 259.61 262.2 271C262.2 282.39 266.152 292.037 274.057 299.942C281.962 307.847 291.61 311.8 303 311.8ZM303 291.4C304.87 291.4 306.677 291.167 308.421 290.701C310.165 290.235 311.801 289.533 313.327 288.595L305.55 280.817C305.125 280.987 304.7 281.095 304.275 281.139C303.85 281.183 303.425 281.203 303 281.2C300.195 281.2 297.795 280.202 295.799 278.206C293.803 276.21 292.803 273.808 292.8 271C292.797 268.192 293.796 265.791 295.799 263.799C297.801 261.806 300.202 260.807 303 260.8C305.798 260.793 308.2 261.793 310.206 263.799C312.212 265.805 313.21 268.205 313.2 271C313.2 271.51 313.18 272 313.139 272.469C313.098 272.938 312.991 273.383 312.817 273.805L320.467 281.455C321.402 279.925 322.125 278.29 322.635 276.549C323.145 274.808 323.4 272.958 323.4 271C323.4 265.39 321.402 260.587 317.407 256.592C313.412 252.597 308.61 250.6 303 250.6C297.39 250.6 292.587 252.597 288.592 256.592C284.597 260.587 282.6 265.39 282.6 271C282.6 276.61 284.597 281.412 288.592 285.407C292.587 289.402 297.39 291.4 303 291.4Z" fill="white"/>
</g>
<g filter="url(#filter3_dii_268_6)">
<path fill-rule="evenodd" clip-rule="evenodd" d="M402 271C402 325.676 357.676 370 303 370C248.324 370 204 325.676 204 271C204 216.324 248.324 172 303 172C357.676 172 402 216.324 402 271ZM378.048 271C378.048 312.448 344.448 346.048 303 346.048C286.269 346.048 270.816 340.573 258.337 331.317L363.317 226.337C372.573 238.816 378.048 254.269 378.048 271ZM243.41 316.628L348.628 211.41C335.984 201.714 320.165 195.952 303 195.952C261.552 195.952 227.952 229.552 227.952 271C227.952 288.165 233.714 303.984 243.41 316.628Z" fill="url(#paint2_linear_268_6)"/>
</g>
<g filter="url(#filter4_d_268_6)">
<path d="M410.627 268.201C388.634 259.388 371.603 243.78 359.534 221.377C347.466 198.975 343.118 175.328 346.492 150.437L354.602 90.4848L437.216 71.6355L511.854 111.756L503.744 171.708C500.376 196.606 489.902 218.252 472.322 236.644C454.742 255.036 434.177 265.555 410.627 268.201Z" fill="url(#paint3_linear_268_6)"/>
</g>
<path d="M465.121 186.242C462.851 186.242 460.93 185.456 459.358 183.884C457.786 182.278 457 180.357 457 178.121C457 175.851 457.786 173.93 459.358 172.358C460.93 170.786 462.851 170 465.121 170C467.392 170 469.313 170.786 470.884 172.358C472.456 173.93 473.242 175.851 473.242 178.121C473.242 180.357 472.456 182.278 470.884 183.884C469.313 185.456 467.392 186.242 465.121 186.242Z" fill="white"/>
<path d="M496.918 186.242C494.648 186.242 492.727 185.456 491.155 183.884C489.583 182.278 488.797 180.357 488.797 178.121C488.797 175.851 489.583 173.93 491.155 172.358C492.727 170.786 494.648 170 496.918 170C499.188 170 501.11 170.786 502.681 172.358C504.253 173.93 505.039 175.851 505.039 178.121C505.039 180.357 504.253 182.278 502.681 183.884C501.11 185.456 499.188 186.242 496.918 186.242Z" fill="white"/>
<path d="M528.715 186.242C526.445 186.242 524.523 185.456 522.952 183.884C521.38 182.278 520.594 180.357 520.594 178.121C520.594 175.851 521.38 173.93 522.952 172.358C524.523 170.786 526.445 170 528.715 170C530.985 170 532.907 170.786 534.478 172.358C536.05 173.93 536.836 175.851 536.836 178.121C536.836 180.357 536.05 182.278 534.478 183.884C532.907 185.456 530.985 186.242 528.715 186.242Z" fill="white"/>
<path d="M560.512 186.242C558.242 186.242 556.32 185.456 554.749 183.884C553.177 182.278 552.391 180.357 552.391 178.121C552.391 175.851 553.177 173.93 554.749 172.358C556.32 170.786 558.242 170 560.512 170C562.782 170 564.704 170.786 566.275 172.358C567.847 173.93 568.633 175.851 568.633 178.121C568.633 180.357 567.847 182.278 566.275 183.884C564.704 185.456 562.782 186.242 560.512 186.242Z" fill="white"/>
<path d="M592.309 186.242C590.039 186.242 588.117 185.456 586.546 183.884C584.974 182.278 584.188 180.357 584.188 178.121C584.188 175.851 584.974 173.93 586.546 172.358C588.117 170.786 590.039 170 592.309 170C594.579 170 596.5 170.786 598.072 172.358C599.644 173.93 600.43 175.851 600.43 178.121C600.43 180.357 599.644 182.278 598.072 183.884C596.5 185.456 594.579 186.242 592.309 186.242Z" fill="white"/>
<path d="M624.106 186.242C621.835 186.242 619.914 185.456 618.343 183.884C616.771 182.278 615.985 180.357 615.985 178.121C615.985 175.851 616.771 173.93 618.343 172.358C619.914 170.786 621.835 170 624.106 170C626.376 170 628.297 170.786 629.869 172.358C631.441 173.93 632.227 175.851 632.227 178.121C632.227 180.357 631.441 182.278 629.869 183.884C628.297 185.456 626.376 186.242 624.106 186.242Z" fill="white"/>
<defs>
<filter id="filter0_dd_268_6" x="38.7339" y="23.0171" width="277.606" height="277.605" filterUnits="userSpaceOnUse" color-interpolation-filters="sRGB">
<feFlood flood-opacity="0" result="BackgroundImageFix"/>
<feColorMatrix in="SourceAlpha" type="matrix" values="0 0 0 0 0 0 0 0 0 0 0 0 0 0 0 0 0 0 127 0" result="hardAlpha"/>
<feOffset/>
<feGaussianBlur stdDeviation="13.5628"/>
<feComposite in2="hardAlpha" operator="out"/>
<feColorMatrix type="matrix" values="0 0 0 0 0.2625 0 0 0 0 0.77875 0 0 0 0 1 0 0 0 0.1 0"/>
<feBlend mode="normal" in2="BackgroundImageFix" result="effect1_dropShadow_268_6"/>
<feColorMatrix in="SourceAlpha" type="matrix" values="0 0 0 0 0 0 0 0 0 0 0 0 0 0 0 0 0 0 127 0" result="hardAlpha"/>
<feOffset dy="4"/>
<feGaussianBlur stdDeviation="2"/>
<feComposite in2="hardAlpha" operator="out"/>
<feColorMatrix type="matrix" values="0 0 0 0 0 0 0 0 0 0 0 0 0 0 0 0 0 0 0.25 0"/>
<feBlend mode="normal" in2="effect1_dropShadow_268_6" result="effect2_dropShadow_268_6"/>
<feBlend mode="normal" in="SourceGraphic" in2="effect2_dropShadow_268_6" result="shape"/>
</filter>
<filter id="filter1_dd_268_6" x="0.702108" y="0.0321865" width="231.17" height="141.539" filterUnits="userSpaceOnUse" color-interpolation-filters="sRGB">
<feFlood flood-opacity="0" result="BackgroundImageFix"/>
<feColorMatrix in="SourceAlpha" type="matrix" values="0 0 0 0 0 0 0 0 0 0 0 0 0 0 0 0 0 0 127 0" result="hardAlpha"/>
<feOffset/>
<feGaussianBlur stdDeviation="11.7095"/>
<feComposite in2="hardAlpha" operator="out"/>
<feColorMatrix type="matrix" values="0 0 0 0 0.2625 0 0 0 0 0.77875 0 0 0 0 1 0 0 0 0.1 0"/>
<feBlend mode="normal" in2="BackgroundImageFix" result="effect1_dropShadow_268_6"/>
<feColorMatrix in="SourceAlpha" type="matrix" values="0 0 0 0 0 0 0 0 0 0 0 0 0 0 0 0 0 0 127 0" result="hardAlpha"/>
<feOffset dy="3.45343"/>
<feGaussianBlur stdDeviation="1.72671"/>
<feComposite in2="hardAlpha" operator="out"/>
<feColorMatrix type="matrix" values="0 0 0 0 0 0 0 0 0 0 0 0 0 0 0 0 0 0 0.25 0"/>
<feBlend mode="normal" in2="effect1_dropShadow_268_6" result="effect2_dropShadow_268_6"/>
<feBlend mode="normal" in="SourceGraphic" in2="effect2_dropShadow_268_6" result="shape"/>
</filter>
<filter id="filter2_d_268_6" x="240.7" y="212.7" width="124.6" height="124.6" filterUnits="userSpaceOnUse" color-interpolation-filters="sRGB">
<feFlood flood-opacity="0" result="BackgroundImageFix"/>
<feColorMatrix in="SourceAlpha" type="matrix" values="0 0 0 0 0 0 0 0 0 0 0 0 0 0 0 0 0 0 127 0" result="hardAlpha"/>
<feOffset dy="4"/>
<feGaussianBlur stdDeviation="5.65"/>
<feComposite in2="hardAlpha" operator="out"/>
<feColorMatrix type="matrix" values="0 0 0 0 0 0 0 0 0 0 0 0 0 0 0 0 0 0 0.25 0"/>
<feBlend mode="normal" in2="BackgroundImageFix" result="effect1_dropShadow_268_6"/>
<feBlend mode="normal" in="SourceGraphic" in2="effect1_dropShadow_268_6" result="shape"/>
</filter>
<filter id="filter3_dii_268_6" x="191.6" y="163.6" width="222.8" height="222.8" filterUnits="userSpaceOnUse" color-interpolation-filters="sRGB">
<feFlood flood-opacity="0" result="BackgroundImageFix"/>
<feColorMatrix in="SourceAlpha" type="matrix" values="0 0 0 0 0 0 0 0 0 0 0 0 0 0 0 0 0 0 127 0" result="hardAlpha"/>
<feOffset dy="4"/>
<feGaussianBlur stdDeviation="6.2"/>
<feComposite in2="hardAlpha" operator="out"/>
<feColorMatrix type="matrix" values="0 0 0 0 0 0 0 0 0 0 0 0 0 0 0 0 0 0 0.25 0"/>
<feBlend mode="normal" in2="BackgroundImageFix" result="effect1_dropShadow_268_6"/>
<feBlend mode="normal" in="SourceGraphic" in2="effect1_dropShadow_268_6" result="shape"/>
<feColorMatrix in="SourceAlpha" type="matrix" values="0 0 0 0 0 0 0 0 0 0 0 0 0 0 0 0 0 0 127 0" result="hardAlpha"/>
<feOffset dx="-1" dy="-2"/>
<feGaussianBlur stdDeviation="2.65"/>
<feComposite in2="hardAlpha" operator="arithmetic" k2="-1" k3="1"/>
<feColorMatrix type="matrix" values="0 0 0 0 0 0 0 0 0 0 0 0 0 0 0 0 0 0 0.13 0"/>
<feBlend mode="normal" in2="shape" result="effect2_innerShadow_268_6"/>
<feColorMatrix in="SourceAlpha" type="matrix" values="0 0 0 0 0 0 0 0 0 0 0 0 0 0 0 0 0 0 127 0" result="hardAlpha"/>
<feOffset dx="5" dy="4"/>
<feGaussianBlur stdDeviation="6.35"/>
<feComposite in2="hardAlpha" operator="arithmetic" k2="-1" k3="1"/>
<feColorMatrix type="matrix" values="0 0 0 0 1 0 0 0 0 1 0 0 0 0 1 0 0 0 0.09 0"/>
<feBlend mode="normal" in2="effect2_innerShadow_268_6" result="effect3_innerShadow_268_6"/>
</filter>
<filter id="filter4_d_268_6" x="334.215" y="65.5413" width="188.811" height="218.909" filterUnits="userSpaceOnUse" color-interpolation-filters="sRGB">
<feFlood flood-opacity="0" result="BackgroundImageFix"/>
<feColorMatrix in="SourceAlpha" type="matrix" values="0 0 0 0 0 0 0 0 0 0 0 0 0 0 0 0 0 0 127 0" result="hardAlpha"/>
<feOffset dy="5.0779"/>
<feGaussianBlur stdDeviation="5.58569"/>
<feComposite in2="hardAlpha" operator="out"/>
<feColorMatrix type="matrix" values="0 0 0 0 0 0 0 0 0 0 0 0 0 0 0 0 0 0 0.25 0"/>
<feBlend mode="normal" in2="BackgroundImageFix" result="effect1_dropShadow_268_6"/>
<feBlend mode="normal" in="SourceGraphic" in2="effect1_dropShadow_268_6" result="shape"/>
</filter>
<linearGradient id="paint0_linear_268_6" x1="182.562" y1="282.588" x2="139.315" y2="80.9219" gradientUnits="userSpaceOnUse">
<stop stop-color="#394146"/>
<stop offset="1" stop-color="#787D85"/>
</linearGradient>
<linearGradient id="paint1_linear_268_6" x1="131.046" y1="125.506" x2="124.416" y2="48.2013" gradientUnits="userSpaceOnUse">
<stop stop-color="#181818"/>
<stop offset="1" stop-color="#535353"/>
</linearGradient>
<linearGradient id="paint2_linear_268_6" x1="260.769" y1="172" x2="345.231" y2="370" gradientUnits="userSpaceOnUse">
<stop stop-color="#F42B2B"/>
<stop offset="1" stop-color="#C42323"/>
</linearGradient>
<linearGradient id="paint3_linear_268_6" x1="393.724" y1="65.7525" x2="477.024" y2="264.483" gradientUnits="userSpaceOnUse">
<stop stop-color="#31DE8A"/>
<stop offset="1" stop-color="#257D52"/>
</linearGradient>
</defs>
</svg>
