<svg width="797" height="461" viewBox="0 0 797 461" fill="none" xmlns="http://www.w3.org/2000/svg">
<g filter="url(#filter0_d_270_7)">
<path d="M344.116 372.747C324.165 376.348 304.617 375.918 285.472 371.455C266.326 366.992 248.93 359.33 233.282 348.468C217.634 337.605 204.372 323.986 193.497 307.609C182.622 291.232 175.384 273.069 171.782 253.118C168.137 232.924 168.667 213.232 173.373 194.043C178.079 174.853 185.995 157.471 197.122 141.896C208.249 126.321 222.123 113.079 238.745 102.17C255.366 91.2604 273.895 83.9562 294.331 80.2571C313.795 76.7434 332.768 76.7752 351.252 80.3525C369.735 83.9298 386.552 90.4408 401.703 99.8854C416.853 109.33 429.719 121.453 440.3 136.255C450.881 151.057 457.861 167.82 461.241 186.545C466.292 214.524 461.653 237.535 447.324 255.578C432.995 273.62 413.664 284.833 389.332 289.215L362.326 294.09C360.136 294.486 358.728 295.368 358.101 296.737C357.473 298.107 357.287 299.522 357.541 300.984C358.068 303.903 360.651 307.773 365.289 312.594C369.928 317.414 372.883 323.347 374.155 330.393C376.351 342.558 374.633 352.164 369.001 359.21C363.37 366.256 355.074 370.768 344.116 372.747ZM240.109 255.857C246.435 254.716 251.293 251.703 254.682 246.82C258.072 241.938 259.195 236.333 258.053 230.007C256.911 223.682 253.899 218.824 249.016 215.434C244.133 212.045 238.529 210.921 232.203 212.063C225.877 213.205 221.02 216.217 217.63 221.1C214.241 225.983 213.117 231.587 214.259 237.913C215.401 244.239 218.413 249.097 223.296 252.486C228.179 255.876 233.783 256.999 240.109 255.857ZM273.362 189.559C279.688 188.417 284.546 185.405 287.935 180.522C291.325 175.639 292.449 170.035 291.307 163.709C290.165 157.383 287.152 152.526 282.27 149.136C277.387 145.747 271.783 144.623 265.457 145.765C259.131 146.907 254.273 149.919 250.884 154.802C247.494 159.685 246.37 165.289 247.512 171.615C248.654 177.941 251.667 182.798 256.549 186.188C261.432 189.577 267.037 190.701 273.362 189.559ZM346.353 176.383C352.679 175.241 357.537 172.229 360.926 167.346C364.316 162.463 365.439 156.859 364.297 150.533C363.155 144.207 360.143 139.349 355.26 135.96C350.377 132.57 344.773 131.447 338.447 132.589C332.121 133.73 327.264 136.743 323.874 141.626C320.485 146.508 319.361 152.113 320.503 158.439C321.645 164.764 324.657 169.622 329.54 173.012C334.423 176.401 340.027 177.525 346.353 176.383ZM400.688 226.87C407.014 225.728 411.872 222.715 415.261 217.833C418.651 212.95 419.775 207.345 418.633 201.02C417.491 194.694 414.478 189.836 409.596 186.447C404.713 183.057 399.109 181.933 392.783 183.075C386.457 184.217 381.599 187.23 378.21 192.112C374.82 196.995 373.696 202.599 374.838 208.925C375.98 215.251 378.993 220.109 383.876 223.498C388.758 226.888 394.363 228.012 400.688 226.87Z" fill="url(#paint0_linear_270_7)"/>
<g filter="url(#filter1_ii_270_7)">
<circle cx="236.232" cy="234.178" r="23.5221" transform="rotate(-21.6146 236.232 234.178)" fill="#E82934"/>
</g>
<g filter="url(#filter2_ii_270_7)">
<circle cx="269.279" cy="167.217" r="23.5221" transform="rotate(-21.6146 269.279 167.217)" fill="#3ABF7E"/>
</g>
<g filter="url(#filter3_ii_270_7)">
<circle cx="342.31" cy="153.789" r="23.5221" transform="rotate(-21.6146 342.31 153.789)" fill="#FFA500"/>
</g>
<g filter="url(#filter4_ii_270_7)">
<circle cx="395.83" cy="204.407" r="23.5221" transform="rotate(-21.6146 395.83 204.407)" fill="#3FA8FF"/>
</g>
</g>
<g filter="url(#filter5_dd_270_7)">
<rect x="61.0547" y="203" width="201.666" height="201.666" rx="35" transform="rotate(11.1667 61.0547 203)" fill="url(#paint1_linear_270_7)"/>
</g>
<path d="M75.1786 314.137L76.8377 305.732L122.281 294.488L120.183 305.12L88.2026 312.08L88.0948 312.626L115.04 331.174L112.957 341.722L75.1786 314.137Z" fill="white"/>
<path d="M163.352 284.825L128.382 355.813L119.011 353.963L153.981 282.975L163.352 284.825Z" fill="white"/>
<path d="M204.232 339.612L158.805 350.772L160.887 340.224L192.859 333.306L192.966 332.76L166.03 314.17L168.129 303.538L205.891 331.207L204.232 339.612Z" fill="white"/>
<g filter="url(#filter6_d_270_7)">
<rect x="190" y="345.373" width="541" height="105" rx="30" transform="rotate(-5.12991 190 345.373)" fill="url(#paint2_linear_270_7)"/>
</g>
<path d="M223.952 379.185C223.911 378.73 224.027 378.336 224.299 378.004C224.571 377.672 224.941 377.485 225.407 377.443C225.846 377.403 226.219 377.513 226.528 377.77C226.841 378.022 227.017 378.361 227.056 378.789C227.097 379.25 226.973 379.641 226.683 379.964C226.398 380.286 226.037 380.467 225.598 380.506C225.16 380.546 224.784 380.442 224.471 380.196C224.163 379.95 223.99 379.612 223.952 379.185ZM234.739 370.418L234.63 371.545C234.797 371.16 235.023 370.835 235.307 370.569C235.596 370.297 235.959 370.141 236.398 370.102C236.598 370.084 236.781 370.098 236.947 370.145C237.113 370.186 237.263 370.256 237.395 370.356C237.479 370.422 237.551 370.505 237.61 370.606C237.675 370.706 237.727 370.822 237.767 370.952C237.964 370.649 238.19 370.397 238.446 370.195C238.707 369.987 239.027 369.868 239.405 369.84C239.705 369.819 239.964 369.863 240.181 369.972C240.397 370.081 240.568 370.231 240.691 370.421C240.918 370.77 241.061 371.144 241.119 371.541C241.182 371.933 241.201 372.295 241.174 372.628L240.703 378.974L238.646 379.159L239.158 372.607C239.161 372.517 239.158 372.425 239.15 372.331C239.141 372.231 239.119 372.141 239.084 372.06C239.048 371.979 238.995 371.914 238.923 371.864C238.857 371.814 238.766 371.795 238.649 371.805C238.555 371.813 238.47 371.835 238.395 371.87C238.325 371.904 238.259 371.949 238.197 372.005C238.156 372.042 238.115 372.085 238.075 372.134C238.04 372.182 238.002 372.23 237.962 372.278L237.372 379.273L235.382 379.452L235.893 372.892C235.891 372.803 235.885 372.708 235.876 372.608C235.873 372.508 235.856 372.417 235.826 372.335C235.792 372.26 235.739 372.201 235.668 372.157C235.601 372.107 235.507 372.087 235.385 372.098C235.285 372.107 235.196 372.135 235.116 372.181C235.041 372.221 234.976 372.272 234.92 372.333C234.868 372.388 234.823 372.448 234.785 372.513C234.745 372.572 234.709 372.637 234.676 372.707L234.108 379.566L232.051 379.751L232.808 370.6L234.739 370.418ZM247.995 378.487C247.378 378.537 246.81 378.47 246.29 378.288C245.775 378.104 245.331 377.834 244.958 377.475C244.579 377.123 244.286 376.694 244.078 376.186C243.87 375.679 243.767 375.117 243.768 374.502L243.77 374.157C243.781 373.653 243.854 373.159 243.99 372.677C244.131 372.194 244.326 371.746 244.574 371.332C244.751 371.059 244.949 370.8 245.168 370.557C245.386 370.308 245.624 370.088 245.881 369.897C246.206 369.66 246.567 369.469 246.962 369.321C247.357 369.168 247.78 369.077 248.23 369.048C248.859 369.008 249.412 369.09 249.889 369.293C250.366 369.497 250.765 369.788 251.084 370.168C251.399 370.554 251.63 371.006 251.777 371.525C251.93 372.043 251.996 372.596 251.976 373.186L251.915 374.182L246.027 374.71C246.042 375 246.103 375.266 246.208 375.508C246.313 375.745 246.455 375.948 246.632 376.116C246.804 376.286 247.012 376.415 247.255 376.505C247.497 376.59 247.769 376.622 248.069 376.6C248.542 376.575 248.979 376.454 249.38 376.239C249.785 376.018 250.134 375.727 250.426 375.365L251.563 376.53C251.213 377.121 250.709 377.58 250.05 377.908C249.397 378.235 248.712 378.428 247.995 378.487ZM248.231 370.928C247.931 370.944 247.666 371.018 247.437 371.15C247.208 371.283 247.011 371.452 246.845 371.657C246.673 371.863 246.528 372.091 246.411 372.342C246.294 372.593 246.193 372.846 246.11 373.1L249.782 372.77L249.805 372.558C249.822 372.31 249.796 372.083 249.727 371.877C249.658 371.67 249.555 371.495 249.419 371.35C249.278 371.206 249.106 371.099 248.903 371.027C248.706 370.95 248.482 370.917 248.231 370.928ZM260.543 374.649C260.558 374.508 260.534 374.39 260.469 374.295C260.404 374.195 260.318 374.11 260.211 374.041C260.122 373.988 260.018 373.941 259.897 373.902C259.775 373.862 259.655 373.834 259.536 373.816C259.299 373.787 259.075 373.76 258.866 373.734C258.661 373.702 258.468 373.672 258.287 373.643C257.935 373.585 257.618 373.513 257.336 373.426C257.053 373.334 256.773 373.211 256.497 373.057C256.167 372.879 255.892 372.647 255.67 372.359C255.448 372.071 255.327 371.712 255.305 371.283C255.271 370.721 255.398 370.229 255.684 369.806C255.976 369.382 256.351 369.038 256.809 368.773C257.133 368.582 257.497 368.426 257.9 368.306C258.308 368.179 258.704 368.102 259.088 368.073C259.544 368.038 259.993 368.059 260.437 368.137C260.88 368.209 261.284 368.349 261.65 368.557C262.01 368.765 262.309 369.043 262.547 369.391C262.79 369.733 262.935 370.156 262.98 370.662L260.731 370.855C260.717 370.638 260.664 370.455 260.573 370.307C260.487 370.158 260.372 370.04 260.23 369.952C260.089 369.869 259.924 369.814 259.737 369.786C259.555 369.752 259.361 369.744 259.156 369.763C258.984 369.778 258.802 369.811 258.611 369.862C258.419 369.913 258.241 369.985 258.076 370.078C257.911 370.177 257.771 370.301 257.656 370.451C257.546 370.595 257.483 370.769 257.468 370.972C257.448 371.186 257.496 371.353 257.613 371.471C257.73 371.589 257.875 371.677 258.048 371.734C258.222 371.797 258.407 371.839 258.605 371.86C258.803 371.882 258.975 371.9 259.122 371.915C259.348 371.939 259.583 371.971 259.827 372.011C260.071 372.045 260.311 372.093 260.546 372.156C260.706 372.198 260.864 372.245 261.02 372.298C261.176 372.351 261.324 372.414 261.465 372.485C261.811 372.661 262.101 372.898 262.335 373.196C262.574 373.493 262.703 373.876 262.723 374.345C262.746 374.913 262.616 375.401 262.334 375.806C262.051 376.207 261.694 376.535 261.264 376.792C260.886 377.005 260.473 377.174 260.025 377.298C259.577 377.422 259.153 377.499 258.753 377.53C258.292 377.566 257.834 377.54 257.378 377.452C256.922 377.364 256.508 377.208 256.136 376.984C255.758 376.766 255.441 376.481 255.186 376.129C254.936 375.771 254.787 375.337 254.742 374.826L256.882 374.642C256.915 374.885 256.987 375.089 257.097 375.253C257.206 375.416 257.347 375.543 257.517 375.635C257.682 375.732 257.867 375.796 258.072 375.828C258.282 375.86 258.5 375.865 258.728 375.845C258.9 375.829 259.087 375.799 259.29 375.752C259.499 375.706 259.694 375.635 259.876 375.54C260.052 375.452 260.201 375.335 260.323 375.19C260.45 375.044 260.523 374.864 260.543 374.649ZM271.575 373.659C271.59 373.518 271.566 373.4 271.501 373.305C271.436 373.204 271.35 373.12 271.244 373.051C271.155 372.997 271.05 372.951 270.929 372.911C270.808 372.872 270.688 372.843 270.569 372.826C270.331 372.797 270.107 372.769 269.898 372.743C269.694 372.711 269.501 372.681 269.319 372.653C268.967 372.595 268.65 372.523 268.368 372.436C268.085 372.344 267.806 372.221 267.529 372.066C267.2 371.889 266.924 371.656 266.702 371.368C266.481 371.08 266.359 370.722 266.337 370.293C266.304 369.731 266.43 369.238 266.717 368.815C267.009 368.392 267.384 368.047 267.841 367.783C268.165 367.591 268.529 367.435 268.932 367.315C269.341 367.189 269.737 367.112 270.12 367.083C270.576 367.047 271.025 367.069 271.469 367.146C271.912 367.218 272.316 367.358 272.682 367.566C273.042 367.775 273.341 368.053 273.579 368.401C273.823 368.742 273.967 369.166 274.012 369.671L271.763 369.865C271.749 369.648 271.697 369.465 271.605 369.317C271.519 369.168 271.405 369.049 271.263 368.961C271.121 368.879 270.956 368.824 270.769 368.796C270.587 368.762 270.393 368.754 270.188 368.772C270.016 368.788 269.834 368.821 269.643 368.872C269.451 368.922 269.273 368.994 269.108 369.087C268.944 369.186 268.804 369.311 268.688 369.461C268.578 369.605 268.515 369.779 268.5 369.981C268.48 370.196 268.529 370.362 268.646 370.48C268.763 370.599 268.908 370.686 269.081 370.744C269.254 370.806 269.44 370.848 269.638 370.87C269.835 370.891 270.008 370.909 270.154 370.924C270.38 370.949 270.616 370.981 270.86 371.02C271.103 371.054 271.343 371.103 271.578 371.166C271.738 371.207 271.897 371.255 272.052 371.308C272.208 371.361 272.357 371.423 272.497 371.494C272.843 371.67 273.133 371.907 273.367 372.205C273.606 372.503 273.736 372.886 273.755 373.354C273.778 373.923 273.649 374.41 273.366 374.816C273.083 375.216 272.727 375.545 272.296 375.802C271.918 376.015 271.505 376.183 271.057 376.308C270.61 376.432 270.186 376.509 269.786 376.539C269.324 376.575 268.866 376.549 268.41 376.461C267.955 376.374 267.541 376.218 267.168 375.994C266.79 375.776 266.474 375.491 266.218 375.139C265.968 374.781 265.82 374.346 265.774 373.836L267.915 373.652C267.948 373.895 268.019 374.099 268.129 374.262C268.239 374.426 268.379 374.553 268.549 374.644C268.715 374.741 268.9 374.806 269.104 374.838C269.314 374.869 269.533 374.875 269.76 374.854C269.932 374.839 270.12 374.808 270.323 374.762C270.531 374.715 270.726 374.645 270.908 374.55C271.085 374.461 271.234 374.344 271.355 374.199C271.482 374.053 271.555 373.873 271.575 373.659ZM282.276 375.242C282.219 375.101 282.178 374.965 282.155 374.833C282.137 374.695 282.125 374.553 282.117 374.408C282.005 374.53 281.89 374.647 281.771 374.758C281.652 374.864 281.529 374.962 281.403 375.052C281.16 375.219 280.898 375.351 280.616 375.45C280.334 375.553 280.032 375.617 279.71 375.64C279.332 375.668 278.965 375.637 278.61 375.546C278.26 375.448 277.95 375.297 277.679 375.092C277.404 374.893 277.183 374.639 277.015 374.329C276.847 374.019 276.754 373.664 276.735 373.263C276.715 372.862 276.759 372.503 276.864 372.185C276.976 371.867 277.132 371.585 277.334 371.337C277.536 371.09 277.774 370.878 278.049 370.702C278.324 370.521 278.621 370.368 278.94 370.245C279.259 370.121 279.589 370.024 279.929 369.954C280.276 369.884 280.618 369.834 280.957 369.803L282.257 369.703L282.315 369.136C282.329 368.916 282.304 368.723 282.238 368.555C282.178 368.387 282.087 368.247 281.965 368.135C281.838 368.028 281.686 367.953 281.508 367.907C281.33 367.856 281.133 367.837 280.916 367.851C280.715 367.863 280.531 367.902 280.364 367.968C280.201 368.027 280.061 368.113 279.942 368.224C279.828 368.324 279.736 368.45 279.665 368.601C279.6 368.747 279.556 368.913 279.534 369.1L277.279 369.319C277.267 368.817 277.37 368.374 277.587 367.99C277.804 367.602 278.091 367.271 278.447 366.998C278.803 366.731 279.205 366.525 279.65 366.378C280.101 366.226 280.552 366.132 281.002 366.097C281.475 366.066 281.928 366.101 282.363 366.202C282.797 366.303 283.181 366.47 283.516 366.703C283.845 366.942 284.105 367.249 284.295 367.623C284.491 367.997 284.587 368.445 284.583 368.966L284.306 372.894C284.286 373.226 284.277 373.565 284.28 373.912C284.289 374.252 284.365 374.578 284.511 374.89L284.516 375.041L282.276 375.242ZM280.141 373.805C280.369 373.79 280.589 373.745 280.8 373.67C281.012 373.595 281.207 373.494 281.386 373.366C281.512 373.276 281.631 373.173 281.744 373.057C281.862 372.94 281.968 372.813 282.062 372.676L282.206 371.093L281.181 371.177C280.959 371.196 280.736 371.236 280.512 371.295C280.287 371.355 280.079 371.435 279.887 371.536C279.765 371.614 279.647 371.7 279.532 371.795C279.417 371.883 279.32 371.99 279.242 372.114C279.178 372.215 279.127 372.329 279.088 372.456C279.049 372.582 279.025 372.722 279.016 372.873C279.01 373.048 279.034 373.196 279.09 373.32C279.146 373.444 279.225 373.543 279.327 373.618C279.428 373.693 279.548 373.746 279.685 373.779C279.828 373.811 279.98 373.819 280.141 373.805ZM287.915 370.186C287.926 369.804 287.967 369.417 288.038 369.025C288.109 368.632 288.212 368.254 288.347 367.889C288.482 367.524 288.65 367.182 288.851 366.862C289.051 366.542 289.292 366.257 289.572 366.008C289.846 365.765 290.159 365.569 290.509 365.42C290.865 365.265 291.259 365.174 291.693 365.146C291.96 365.128 292.219 365.141 292.469 365.185C292.725 365.224 292.963 365.298 293.186 365.407C293.32 365.473 293.451 365.556 293.578 365.657C293.704 365.752 293.82 365.862 293.926 365.986L294.147 365.085L296.222 364.907L295.522 373.759C295.488 374.377 295.357 374.94 295.128 375.448C294.899 375.955 294.594 376.391 294.213 376.755C293.827 377.126 293.374 377.418 292.856 377.633C292.339 377.853 291.774 377.982 291.162 378.02C290.561 378.063 289.97 377.984 289.386 377.785C288.804 377.591 288.303 377.275 287.883 376.837L288.916 375.351C289.195 375.65 289.509 375.874 289.858 376.022C290.207 376.175 290.591 376.238 291.008 376.212C291.331 376.194 291.624 376.126 291.888 376.007C292.152 375.894 292.381 375.739 292.576 375.543C292.772 375.352 292.931 375.125 293.053 374.862C293.175 374.605 293.255 374.318 293.294 374.001L293.363 373.457C293.236 373.603 293.103 373.738 292.963 373.863C292.823 373.987 292.676 374.095 292.522 374.188C292.326 374.312 292.116 374.409 291.893 374.479C291.676 374.549 291.442 374.592 291.192 374.609C290.791 374.64 290.43 374.602 290.107 374.497C289.79 374.391 289.51 374.234 289.267 374.026C289.02 373.825 288.808 373.584 288.632 373.303C288.461 373.022 288.322 372.718 288.214 372.392C288.101 372.072 288.021 371.738 287.973 371.389C287.925 371.041 287.903 370.699 287.906 370.363L287.915 370.186ZM290.179 370.159C290.178 370.332 290.184 370.519 290.196 370.72C290.208 370.915 290.233 371.105 290.273 371.292C290.312 371.484 290.368 371.667 290.439 371.84C290.51 372.007 290.604 372.152 290.722 372.276C290.84 372.405 290.98 372.507 291.144 372.582C291.312 372.651 291.511 372.678 291.739 372.663C291.939 372.651 292.126 372.614 292.3 372.554C292.473 372.494 292.631 372.412 292.773 372.31C292.894 372.226 293.006 372.127 293.107 372.011C293.214 371.895 293.315 371.769 293.409 371.632L293.747 367.732C293.661 367.583 293.563 367.457 293.453 367.355C293.343 367.248 293.223 367.163 293.095 367.102C292.973 367.051 292.843 367.015 292.707 366.994C292.571 366.973 292.425 366.966 292.269 366.975C291.891 367.003 291.571 367.116 291.309 367.313C291.046 367.504 290.835 367.744 290.677 368.032C290.512 368.321 290.39 368.64 290.309 368.989C290.234 369.331 290.191 369.663 290.18 369.983L290.179 370.159ZM303.156 373.535C302.54 373.585 301.971 373.518 301.451 373.336C300.937 373.152 300.493 372.882 300.119 372.523C299.741 372.171 299.448 371.742 299.24 371.234C299.032 370.727 298.928 370.165 298.929 369.55L298.932 369.205C298.942 368.701 299.016 368.207 299.151 367.725C299.293 367.242 299.487 366.794 299.736 366.38C299.913 366.107 300.11 365.848 300.329 365.605C300.547 365.356 300.785 365.136 301.042 364.945C301.368 364.708 301.728 364.516 302.124 364.369C302.519 364.216 302.941 364.125 303.392 364.096C304.021 364.056 304.574 364.138 305.051 364.341C305.528 364.545 305.926 364.836 306.246 365.216C306.56 365.602 306.791 366.054 306.938 366.573C307.091 367.091 307.158 367.644 307.138 368.234L307.076 369.23L301.189 369.758C301.204 370.048 301.264 370.314 301.37 370.556C301.475 370.793 301.616 370.996 301.794 371.164C301.966 371.334 302.173 371.463 302.416 371.553C302.659 371.638 302.93 371.67 303.23 371.648C303.704 371.622 304.141 371.502 304.541 371.287C304.947 371.066 305.295 370.774 305.587 370.412L306.725 371.578C306.375 372.169 305.87 372.628 305.211 372.956C304.558 373.283 303.873 373.476 303.156 373.535ZM303.393 365.976C303.092 365.992 302.827 366.066 302.599 366.198C302.37 366.331 302.172 366.5 302.006 366.705C301.834 366.911 301.69 367.139 301.572 367.39C301.455 367.641 301.355 367.894 301.271 368.147L304.943 367.818L304.966 367.606C304.983 367.358 304.957 367.131 304.888 366.925C304.819 366.718 304.717 366.543 304.581 366.398C304.439 366.254 304.267 366.146 304.065 366.075C303.868 365.998 303.644 365.965 303.393 365.976ZM318.058 367.581L311.321 368.185L311.478 366.283L318.223 365.677L318.058 367.581ZM329.094 366.539C329.083 366.915 329.044 367.299 328.979 367.691C328.918 368.077 328.826 368.449 328.701 368.808C328.577 369.171 328.421 369.513 328.231 369.832C328.041 370.151 327.815 370.432 327.551 370.674C327.287 370.915 326.98 371.111 326.63 371.26C326.286 371.414 325.897 371.505 325.463 371.533C325.162 371.554 324.872 371.532 324.592 371.468C324.318 371.409 324.063 371.306 323.826 371.159C323.707 371.086 323.594 371.004 323.485 370.913C323.381 370.816 323.282 370.71 323.187 370.595L322.941 371.591L320.893 371.775L321.959 358.786L324.224 358.582L323.755 363.267C323.861 363.134 323.97 363.012 324.083 362.901C324.201 362.784 324.321 362.681 324.442 362.592C324.652 362.445 324.879 362.326 325.123 362.237C325.367 362.148 325.631 362.094 325.914 362.074C326.326 362.048 326.691 362.088 327.008 362.194C327.331 362.299 327.613 362.453 327.855 362.655C328.092 362.858 328.29 363.103 328.45 363.391C328.615 363.672 328.746 363.977 328.843 364.304C328.939 364.631 329.006 364.972 329.044 365.327C329.086 365.676 329.106 366.021 329.103 366.362L329.094 366.539ZM326.838 366.566C326.839 366.392 326.837 366.208 326.83 366.012C326.824 365.812 326.806 365.614 326.777 365.421C326.743 365.228 326.693 365.045 326.627 364.872C326.566 364.693 326.483 364.538 326.376 364.408C326.263 364.278 326.126 364.179 325.963 364.109C325.799 364.034 325.601 364.005 325.367 364.02C325.161 364.033 324.972 364.072 324.799 364.138C324.631 364.198 324.476 364.282 324.334 364.39C324.203 364.485 324.082 364.6 323.971 364.733C323.865 364.866 323.769 365.011 323.683 365.17L323.382 368.84C323.446 368.991 323.525 369.124 323.62 369.239C323.713 369.348 323.82 369.439 323.938 369.512C324.074 369.595 324.233 369.651 324.415 369.679C324.596 369.708 324.759 369.715 324.904 369.702C325.187 369.677 325.404 369.63 325.554 369.56C325.71 369.485 325.852 369.388 325.981 369.27C326.163 369.114 326.311 368.924 326.425 368.701C326.539 368.473 326.624 368.236 326.681 367.99C326.73 367.79 326.767 367.582 326.793 367.367C326.818 367.152 326.833 366.944 326.837 366.742L326.838 366.566ZM331.96 366.215C331.981 365.575 332.09 364.961 332.289 364.372C332.493 363.778 332.779 363.248 333.146 362.784C333.513 362.321 333.96 361.942 334.488 361.648C335.021 361.354 335.627 361.185 336.306 361.141C336.778 361.104 337.206 361.138 337.591 361.244C337.981 361.349 338.325 361.508 338.624 361.722C338.864 361.902 339.078 362.106 339.267 362.336C339.455 362.559 339.614 362.805 339.744 363.073C339.903 363.412 340.02 363.779 340.095 364.175C340.175 364.565 340.211 364.971 340.204 365.391L340.196 365.576C340.175 366.216 340.062 366.831 339.858 367.42C339.658 368.003 339.375 368.524 339.007 368.982C338.64 369.44 338.19 369.816 337.656 370.111C337.128 370.399 336.528 370.564 335.854 370.608C335.365 370.641 334.91 370.598 334.491 370.479C334.078 370.359 333.738 370.191 333.472 369.974C333.236 369.777 333.033 369.574 332.864 369.366C332.694 369.157 332.544 368.921 332.414 368.659C332.256 368.332 332.137 367.976 332.058 367.591C331.984 367.206 331.951 366.806 331.959 366.391L331.96 366.215ZM334.215 366.189C334.212 366.469 334.228 366.764 334.261 367.074C334.294 367.379 334.37 367.658 334.487 367.91C334.6 368.169 334.765 368.381 334.981 368.546C335.202 368.705 335.494 368.774 335.856 368.753C336.234 368.73 336.552 368.623 336.809 368.432C337.071 368.235 337.284 367.992 337.449 367.703C337.608 367.42 337.723 367.111 337.793 366.774C337.869 366.432 337.915 366.1 337.931 365.78L337.932 365.603C337.933 365.301 337.912 364.981 337.871 364.643C337.835 364.305 337.736 363.99 337.576 363.696C337.455 363.478 337.292 363.308 337.085 363.186C336.878 363.065 336.619 363.01 336.306 363.021C335.922 363.044 335.599 363.152 335.336 363.343C335.079 363.534 334.871 363.774 334.713 364.062C334.548 364.351 334.426 364.667 334.345 365.01C334.269 365.353 334.226 365.687 334.216 366.012L334.215 366.189ZM347.347 363.146L349.451 360.129L351.999 359.9L348.707 364.745L351.384 369.038L349.078 369.245L347.265 366.444L345.081 369.604L342.516 369.834L345.926 364.81L343.348 360.677L345.654 360.47L347.347 363.146Z" fill="#FFA500"/>
<path d="M359.329 368.064C359.383 368.664 359.29 369.285 359.051 369.927C358.818 370.575 358.483 371.134 358.044 371.604L356.875 371.113C357.078 370.698 357.224 370.265 357.312 369.815C357.406 369.364 357.428 368.864 357.379 368.315L357.221 366.558L359.178 366.382L359.329 368.064ZM406.501 367.137C405.956 367.174 405.472 367.092 405.051 366.889C404.631 366.692 404.276 366.416 403.987 366.061C403.692 365.713 403.463 365.314 403.3 364.864C403.137 364.42 403.036 363.978 402.996 363.54L402.872 362.157C402.804 361.397 402.574 360.863 402.183 360.557C401.797 360.25 401.235 360.13 400.497 360.196L400.365 358.723C401.103 358.656 401.635 358.438 401.959 358.067C402.29 357.696 402.42 357.125 402.351 356.353L402.227 354.971C402.186 354.51 402.207 354.03 402.291 353.53C402.375 353.03 402.539 352.582 402.783 352.185C402.991 351.825 403.28 351.522 403.65 351.276C404.024 351.024 404.486 350.871 405.035 350.816L405.372 351.952C405.012 351.985 404.736 352.093 404.546 352.278C404.355 352.458 404.221 352.682 404.144 352.952C404.068 353.222 404.033 353.519 404.04 353.843C404.052 354.167 404.072 354.486 404.101 354.803L404.225 356.185C404.284 356.846 404.176 357.446 403.899 357.986C403.628 358.519 403.172 358.949 402.53 359.275C403.225 359.476 403.75 359.815 404.107 360.292C404.468 360.763 404.681 361.329 404.746 361.989L404.87 363.371C404.898 363.688 404.946 364.005 405.014 364.324C405.087 364.642 405.194 364.926 405.334 365.176C405.474 365.427 405.648 365.624 405.857 365.767C406.066 365.917 406.324 365.977 406.629 365.95L406.501 367.137ZM373.52 386.926C373.486 386.543 373.578 386.205 373.798 385.911C374.024 385.616 374.37 385.448 374.836 385.406C375.291 385.365 375.659 385.469 375.938 385.718C376.218 385.962 376.375 386.278 376.41 386.667C376.444 387.055 376.343 387.392 376.106 387.676C375.874 387.96 375.533 388.122 375.083 388.162C374.628 388.203 374.261 388.105 373.982 387.867C373.709 387.623 373.554 387.309 373.52 386.926ZM372.887 379.873C372.853 379.49 372.945 379.152 373.165 378.858C373.391 378.563 373.736 378.395 374.203 378.353C374.658 378.312 375.025 378.416 375.305 378.666C375.584 378.909 375.742 379.225 375.776 379.614C375.811 380.002 375.71 380.339 375.473 380.623C375.241 380.907 374.9 381.069 374.45 381.109C373.995 381.15 373.628 381.052 373.349 380.814C373.075 380.57 372.921 380.256 372.887 379.873ZM578.048 369.513C578.102 370.113 578.009 370.734 577.77 371.377C577.537 372.024 577.202 372.583 576.763 373.054L575.594 372.563C575.797 372.147 575.943 371.714 576.031 371.264C576.125 370.814 576.147 370.314 576.098 369.764L575.94 368.007L577.897 367.831L578.048 369.513ZM697.645 350.718C697.61 350.335 697.703 349.997 697.923 349.703C698.148 349.408 698.494 349.24 698.96 349.198C699.416 349.158 699.783 349.262 700.063 349.511C700.342 349.754 700.499 350.07 700.534 350.459C700.569 350.848 700.468 351.184 700.23 351.468C699.998 351.752 699.657 351.914 699.208 351.955C698.753 351.996 698.386 351.897 698.107 351.659C697.833 351.415 697.679 351.101 697.645 350.718ZM700.702 358.502C700.756 359.102 700.663 359.723 700.425 360.365C700.192 361.013 699.856 361.572 699.417 362.042L698.248 361.551C698.451 361.136 698.597 360.703 698.685 360.253C698.779 359.802 698.801 359.302 698.752 358.753L698.594 356.996L700.551 356.82L700.702 358.502ZM227.939 424.161C228.239 424.134 228.478 424.028 228.658 423.844C228.843 423.665 228.982 423.44 229.076 423.169C229.169 422.897 229.223 422.599 229.239 422.273C229.26 421.946 229.256 421.625 229.228 421.308L229.103 419.926C229.071 419.56 229.087 419.211 229.152 418.881C229.223 418.544 229.349 418.236 229.531 417.957C229.662 417.738 229.826 417.539 230.023 417.359C230.224 417.173 230.459 417.009 230.726 416.868C230.473 416.79 230.24 416.69 230.028 416.569C229.82 416.443 229.634 416.3 229.469 416.141C229.205 415.885 228.999 415.587 228.851 415.248C228.708 414.903 228.619 414.527 228.582 414.122L228.458 412.74C228.43 412.423 228.387 412.106 228.331 411.786C228.28 411.466 228.195 411.18 228.077 410.927C227.954 410.675 227.782 410.478 227.563 410.336C227.342 410.188 227.052 410.13 226.691 410.162L226.82 408.984C227.392 408.938 227.886 409.014 228.301 409.212C228.721 409.403 229.073 409.677 229.357 410.032C229.651 410.38 229.875 410.783 230.028 411.239C230.185 411.689 230.284 412.134 230.324 412.572L230.448 413.955C230.477 414.277 230.53 414.557 230.607 414.797C230.69 415.035 230.803 415.235 230.946 415.396C231.134 415.619 231.386 415.776 231.702 415.865C232.017 415.949 232.391 415.971 232.824 415.932L232.957 417.406C232.518 417.445 232.154 417.537 231.865 417.68C231.575 417.818 231.355 418.02 231.206 418.285C231.099 418.463 231.025 418.676 230.986 418.926C230.947 419.17 230.941 419.448 230.969 419.759L231.093 421.141C231.132 421.58 231.109 422.035 231.022 422.507C230.936 422.979 230.784 423.41 230.567 423.799C230.346 424.199 230.046 424.537 229.668 424.811C229.29 425.086 228.829 425.25 228.285 425.305L227.939 424.161Z" fill="#C0C0C0"/>
<path d="M381.8 366.307C381.742 366.167 381.702 366.03 381.679 365.898C381.661 365.76 381.648 365.618 381.641 365.474C381.529 365.596 381.413 365.712 381.295 365.824C381.175 365.929 381.053 366.027 380.926 366.117C380.684 366.284 380.422 366.417 380.14 366.515C379.858 366.619 379.556 366.682 379.233 366.705C378.855 366.734 378.489 366.702 378.134 366.611C377.784 366.514 377.473 366.363 377.203 366.157C376.928 365.958 376.706 365.704 376.539 365.394C376.371 365.085 376.278 364.729 376.258 364.328C376.239 363.927 376.282 363.568 376.388 363.251C376.5 362.933 376.656 362.65 376.858 362.403C377.059 362.155 377.298 361.943 377.573 361.768C377.848 361.586 378.145 361.434 378.464 361.31C378.783 361.186 379.112 361.089 379.453 361.02C379.799 360.949 380.142 360.899 380.481 360.869L381.781 360.769L381.839 360.201C381.853 359.982 381.827 359.788 381.762 359.62C381.702 359.452 381.611 359.312 381.489 359.2C381.362 359.094 381.21 359.018 381.032 358.972C380.854 358.921 380.657 358.903 380.44 358.916C380.239 358.929 380.055 358.968 379.888 359.033C379.725 359.093 379.584 359.178 379.466 359.289C379.352 359.389 379.259 359.515 379.189 359.667C379.124 359.812 379.08 359.979 379.058 360.165L376.802 360.385C376.791 359.882 376.894 359.439 377.111 359.056C377.328 358.667 377.615 358.336 377.971 358.064C378.327 357.797 378.728 357.59 379.174 357.444C379.625 357.291 380.075 357.198 380.526 357.163C380.998 357.132 381.452 357.166 381.886 357.267C382.321 357.368 382.705 357.535 383.039 357.768C383.369 358.007 383.628 358.314 383.819 358.689C384.015 359.063 384.111 359.51 384.107 360.031L383.83 363.959C383.81 364.291 383.801 364.63 383.804 364.977C383.812 365.318 383.889 365.644 384.035 365.955L384.04 366.106L381.8 366.307ZM379.665 364.87C379.893 364.855 380.112 364.811 380.324 364.736C380.536 364.661 380.731 364.559 380.909 364.431C381.036 364.342 381.155 364.238 381.268 364.122C381.386 364.005 381.492 363.878 381.586 363.741L381.729 362.158L380.705 362.242C380.482 362.262 380.259 362.301 380.035 362.361C379.811 362.42 379.603 362.5 379.411 362.602C379.289 362.68 379.171 362.766 379.056 362.86C378.941 362.949 378.844 363.055 378.766 363.18C378.702 363.281 378.651 363.394 378.612 363.521C378.573 363.648 378.549 363.787 378.54 363.939C378.533 364.113 378.558 364.262 378.614 364.385C378.67 364.509 378.748 364.608 378.85 364.683C378.952 364.758 379.072 364.812 379.209 364.844C379.352 364.876 379.504 364.885 379.665 364.87Z" fill="#EC3939"/>
<path d="M249.25 399.291L248.575 391.772L246.16 391.989L246.026 390.498L248.441 390.281L248.392 389.732C248.339 389.143 248.381 388.619 248.519 388.159C248.662 387.693 248.886 387.292 249.192 386.957C249.498 386.627 249.877 386.364 250.33 386.166C250.788 385.969 251.308 385.844 251.891 385.791C252.096 385.773 252.297 385.766 252.493 385.771C252.695 385.769 252.891 385.774 253.082 385.785C253.24 385.793 253.4 385.807 253.564 385.826C253.728 385.839 253.894 385.855 254.064 385.873L254.048 387.478C253.821 387.437 253.564 387.407 253.277 387.388C252.995 387.368 252.677 387.374 252.321 387.406C251.949 387.44 251.631 387.513 251.367 387.626C251.109 387.739 250.901 387.889 250.745 388.077C250.598 388.252 250.494 388.463 250.432 388.709C250.376 388.955 250.362 389.236 250.39 389.552L250.44 390.102L253.779 389.802L253.912 391.293L250.573 391.592L251.248 399.112L249.25 399.291ZM257.472 393.928C257.413 393.273 257.453 392.659 257.592 392.087C257.731 391.509 257.962 390.999 258.286 390.556C258.604 390.113 259.011 389.752 259.506 389.473C260.002 389.193 260.58 389.024 261.24 388.964C261.901 388.905 262.5 388.969 263.037 389.156C263.58 389.342 264.05 389.624 264.448 390.003C264.84 390.382 265.156 390.843 265.395 391.387C265.633 391.925 265.782 392.521 265.841 393.176L265.856 393.351C265.916 394.012 265.876 394.628 265.737 395.2C265.598 395.772 265.369 396.28 265.051 396.723C264.733 397.165 264.323 397.527 263.822 397.807C263.327 398.086 262.752 398.255 262.097 398.314C261.436 398.373 260.834 398.31 260.291 398.124C259.749 397.937 259.281 397.655 258.889 397.276C258.491 396.897 258.173 396.439 257.935 395.901C257.696 395.363 257.547 394.763 257.488 394.103L257.472 393.928ZM259.478 393.924C259.514 394.329 259.59 394.709 259.706 395.062C259.827 395.415 259.992 395.719 260.199 395.975C260.401 396.231 260.648 396.427 260.94 396.563C261.232 396.693 261.569 396.741 261.952 396.707C262.324 396.674 262.642 396.567 262.906 396.386C263.169 396.2 263.377 395.963 263.53 395.676C263.683 395.388 263.785 395.059 263.836 394.691C263.893 394.322 263.903 393.935 263.866 393.53L263.851 393.355C263.815 392.961 263.737 392.587 263.616 392.235C263.494 391.882 263.336 391.577 263.139 391.32C262.931 391.065 262.682 390.869 262.39 390.733C262.103 390.596 261.768 390.545 261.385 390.58C261.008 390.614 260.688 390.724 260.424 390.909C260.167 391.095 259.962 391.332 259.808 391.619C259.65 391.908 259.542 392.237 259.485 392.605C259.435 392.974 259.427 393.355 259.462 393.749L259.478 393.924ZM269.516 397.472L268.707 388.462L270.506 388.3L270.746 389.572C270.852 389.389 270.971 389.218 271.103 389.061C271.239 388.898 271.385 388.75 271.541 388.619C271.792 388.412 272.07 388.244 272.378 388.116C272.685 387.987 273.014 387.907 273.363 387.876C273.824 387.835 274.252 387.863 274.647 387.962C275.042 388.061 275.389 388.243 275.687 388.507C275.984 388.771 276.229 389.121 276.419 389.558C276.609 389.988 276.732 390.52 276.789 391.153L277.293 396.773L275.303 396.952L274.801 391.365C274.768 390.993 274.699 390.686 274.593 390.443C274.487 390.201 274.347 390.012 274.173 389.877C273.998 389.741 273.794 389.653 273.561 389.613C273.328 389.566 273.064 389.557 272.77 389.583C272.525 389.605 272.301 389.659 272.096 389.744C271.89 389.824 271.707 389.93 271.545 390.062C271.42 390.163 271.305 390.282 271.2 390.421C271.094 390.559 271.004 390.707 270.929 390.865L271.506 397.293L269.516 397.472ZM283.772 384.893L283.969 387.092L287.358 386.787L287.492 388.278L284.103 388.582L284.49 392.887C284.52 393.22 284.584 393.497 284.682 393.718C284.785 393.932 284.914 394.097 285.07 394.212C285.227 394.332 285.407 394.411 285.612 394.449C285.817 394.486 286.039 394.494 286.277 394.473C286.449 394.457 286.626 394.433 286.808 394.4C286.99 394.367 287.165 394.329 287.335 394.286C287.499 394.248 287.653 394.209 287.794 394.169C287.941 394.122 288.064 394.083 288.162 394.052L288.502 395.406C288.365 395.508 288.197 395.602 287.998 395.687C287.804 395.766 287.592 395.838 287.363 395.903C287.133 395.968 286.892 396.024 286.639 396.069C286.391 396.119 286.143 396.155 285.893 396.178C285.438 396.219 285.013 396.195 284.619 396.107C284.23 396.014 283.888 395.846 283.592 395.604C283.297 395.367 283.053 395.05 282.86 394.654C282.674 394.256 282.554 393.769 282.502 393.192L282.105 388.762L279.923 388.958L279.789 387.467L281.971 387.271L281.774 385.073L283.772 384.893ZM299.177 390.251L292.474 390.853L292.328 389.237L299.032 388.635L299.177 390.251ZM305.577 394.234L304.902 386.715L302.487 386.932L302.353 385.441L304.768 385.225L304.719 384.675C304.666 384.086 304.709 383.562 304.846 383.102C304.989 382.636 305.213 382.235 305.519 381.9C305.825 381.571 306.205 381.307 306.657 381.11C307.115 380.912 307.635 380.787 308.218 380.735C308.423 380.716 308.624 380.709 308.821 380.714C309.022 380.713 309.218 380.718 309.409 380.728C309.567 380.737 309.728 380.75 309.892 380.769C310.055 380.782 310.222 380.798 310.391 380.816L310.376 382.421C310.148 382.38 309.891 382.35 309.604 382.331C309.322 382.311 309.004 382.318 308.648 382.35C308.277 382.383 307.959 382.456 307.694 382.569C307.436 382.682 307.228 382.832 307.072 383.02C306.925 383.195 306.821 383.406 306.759 383.652C306.703 383.898 306.689 384.179 306.717 384.496L306.767 385.045L310.106 384.745L310.24 386.236L306.901 386.536L307.576 394.055L305.577 394.234ZM320.332 392.91C320.261 392.804 320.199 392.675 320.146 392.524C320.098 392.366 320.053 392.202 320.009 392.032C319.884 392.189 319.738 392.342 319.572 392.491C319.411 392.634 319.227 392.763 319.019 392.877C318.812 392.996 318.585 393.095 318.341 393.172C318.096 393.25 317.829 393.302 317.54 393.328C317.074 393.37 316.641 393.342 316.24 393.244C315.845 393.139 315.5 392.98 315.207 392.765C314.908 392.557 314.666 392.296 314.482 391.983C314.302 391.663 314.195 391.312 314.16 390.929C314.116 390.435 314.174 389.99 314.334 389.595C314.5 389.194 314.76 388.852 315.115 388.568C315.444 388.304 315.858 388.087 316.358 387.919C316.863 387.751 317.441 387.638 318.09 387.579L319.539 387.449L319.485 386.841C319.464 386.608 319.403 386.401 319.303 386.22C319.208 386.038 319.08 385.884 318.917 385.759C318.744 385.635 318.537 385.547 318.298 385.496C318.063 385.438 317.796 385.423 317.496 385.45C317.224 385.475 316.988 385.529 316.789 385.614C316.595 385.699 316.437 385.805 316.314 385.934C316.19 386.051 316.102 386.191 316.049 386.352C316.002 386.508 315.986 386.671 316.001 386.843L314.003 387.023C313.976 386.662 314.031 386.307 314.167 385.959C314.304 385.611 314.522 385.295 314.821 385.01C315.108 384.722 315.473 384.482 315.915 384.291C316.362 384.094 316.879 383.969 317.468 383.917C317.995 383.869 318.492 383.892 318.959 383.984C319.432 384.07 319.846 384.226 320.202 384.452C320.558 384.677 320.848 384.979 321.072 385.356C321.296 385.727 321.43 386.169 321.476 386.679L321.836 390.685C321.872 391.09 321.933 391.454 322.018 391.776C322.108 392.093 322.219 392.363 322.351 392.586L322.363 392.727L320.332 392.91ZM317.78 391.695C318.041 391.672 318.279 391.617 318.495 391.53C318.717 391.443 318.915 391.339 319.088 391.217C319.262 391.095 319.41 390.961 319.531 390.816C319.652 390.671 319.742 390.523 319.802 390.372L319.652 388.707L318.37 388.822C317.937 388.861 317.566 388.936 317.257 389.048C316.947 389.154 316.705 389.29 316.53 389.457C316.375 389.6 316.263 389.763 316.196 389.949C316.134 390.133 316.113 390.337 316.133 390.559C316.15 390.742 316.198 390.911 316.28 391.066C316.36 391.215 316.469 391.34 316.607 391.439C316.745 391.539 316.911 391.614 317.105 391.663C317.3 391.707 317.524 391.718 317.78 391.695ZM326.167 383.304L326.314 384.289C326.454 383.913 326.664 383.609 326.945 383.376C327.232 383.143 327.59 383.008 328.017 382.97C328.239 382.95 328.441 382.957 328.623 382.991C328.805 383.025 328.965 383.089 329.102 383.183C329.209 383.251 329.306 383.338 329.394 383.442C329.481 383.54 329.559 383.657 329.627 383.79C329.693 383.656 329.771 383.528 329.861 383.408C329.951 383.288 330.051 383.184 330.16 383.096C330.301 382.983 330.461 382.89 330.639 382.818C330.823 382.746 331.026 382.699 331.248 382.679C331.537 382.654 331.805 382.68 332.052 382.758C332.305 382.831 332.529 382.959 332.725 383.143C332.921 383.338 333.082 383.6 333.207 383.931C333.337 384.255 333.423 384.653 333.465 385.125L334.053 391.678L332.222 391.842L331.632 385.272C331.616 385.095 331.583 384.947 331.533 384.828C331.483 384.704 331.418 384.606 331.339 384.535C331.26 384.469 331.167 384.424 331.058 384.4C330.955 384.376 330.843 384.369 330.721 384.38C330.593 384.392 330.483 384.419 330.392 384.46C330.301 384.502 330.222 384.557 330.155 384.624C330.093 384.686 330.044 384.757 330.006 384.839C329.968 384.915 329.943 385.001 329.929 385.098C329.931 385.12 329.933 385.148 329.936 385.181C329.939 385.209 329.943 385.251 329.948 385.306L330.548 391.993L328.749 392.154L328.159 385.576C328.143 385.398 328.11 385.25 328.06 385.131C328.015 385.007 327.953 384.911 327.875 384.846C327.796 384.78 327.705 384.735 327.602 384.711C327.505 384.686 327.395 384.679 327.273 384.69C327.14 384.702 327.022 384.732 326.92 384.78C326.823 384.823 326.742 384.883 326.676 384.962C326.625 385.017 326.581 385.079 326.542 385.15C326.509 385.22 326.48 385.298 326.454 385.385L327.075 392.304L325.244 392.469L324.435 383.459L326.167 383.304ZM336.758 382.353L341.537 381.924L342.198 389.285L344.846 389.047L344.994 390.696L337.566 391.363L337.418 389.714L340.191 389.465L339.679 383.761L336.906 384.01L336.758 382.353ZM339.138 379.789C339.124 379.628 339.138 379.478 339.182 379.34C339.225 379.196 339.295 379.07 339.391 378.96C339.482 378.857 339.595 378.774 339.73 378.711C339.869 378.643 340.027 378.601 340.205 378.585C340.505 378.558 340.753 378.614 340.951 378.753C341.153 378.886 341.278 379.07 341.328 379.307C341.388 379.547 341.366 379.765 341.26 379.959C341.154 380.148 340.987 380.283 340.759 380.365C340.652 380.481 340.52 380.563 340.362 380.611C340.204 380.658 340.025 380.66 339.825 380.617C339.62 380.574 339.457 380.479 339.338 380.333C339.224 380.181 339.157 380 339.138 379.789ZM347.609 377.568L352.463 377.132L353.464 388.273L356.195 388.028L356.343 389.677L348.757 390.358L348.609 388.709L351.457 388.454L350.605 378.969L347.758 379.225L347.609 377.568ZM361.099 392.918C360.904 392.936 360.717 392.936 360.536 392.918C360.362 392.906 360.192 392.888 360.028 392.863L360.163 391.281C360.274 391.277 360.399 391.271 360.539 391.264C360.684 391.263 360.801 391.258 360.89 391.25C361.084 391.232 361.254 391.158 361.399 391.028C361.544 390.903 361.669 390.763 361.773 390.608C361.871 390.454 361.948 390.318 362.005 390.201C362.067 390.084 362.123 389.961 362.173 389.833L362.643 388.708L358.031 380.443L360.221 380.246L362.955 385.549L363.352 386.513L363.64 385.513L365.317 379.789L367.524 379.591L363.884 390.377C363.799 390.619 363.688 390.878 363.551 391.154C363.419 391.434 363.244 391.696 363.025 391.939C362.807 392.188 362.541 392.403 362.227 392.582C361.913 392.767 361.537 392.879 361.099 392.918Z" fill="#3FA8FF"/>
<path d="M393.981 376.334C393.956 376.062 393.967 375.776 394.013 375.475C394.058 375.169 394.134 374.865 394.241 374.565C394.349 374.27 394.481 373.987 394.635 373.715C394.796 373.443 394.981 373.2 395.191 372.985L396.214 373.532C396.019 373.924 395.872 374.335 395.77 374.763C395.674 375.186 395.649 375.653 395.694 376.164L395.819 377.546L394.103 377.7L393.981 376.334ZM396.762 376.085C396.737 375.812 396.748 375.526 396.794 375.225C396.839 374.919 396.915 374.616 397.023 374.315C397.131 374.02 397.262 373.737 397.417 373.466C397.577 373.194 397.762 372.95 397.972 372.736L398.995 373.282C398.801 373.674 398.653 374.085 398.551 374.514C398.455 374.936 398.43 375.403 398.476 375.914L398.6 377.296L396.884 377.45L396.762 376.085ZM403.863 373.189L411.007 372.548L411.156 374.205L408.566 374.437L409.358 383.256L411.948 383.023L412.096 384.672L404.951 385.313L404.803 383.664L407.334 383.437L406.543 374.619L404.011 374.846L403.863 373.189ZM415.967 384.324L415.158 375.314L416.956 375.153L417.196 376.424C417.303 376.241 417.422 376.071 417.553 375.914C417.69 375.75 417.836 375.603 417.992 375.471C418.242 375.264 418.521 375.096 418.828 374.968C419.136 374.84 419.465 374.76 419.814 374.729C420.275 374.687 420.703 374.716 421.098 374.815C421.493 374.914 421.839 375.095 422.137 375.359C422.435 375.624 422.679 375.974 422.87 376.41C423.059 376.841 423.183 377.372 423.239 378.005L423.744 383.626L421.754 383.805L421.252 378.217C421.219 377.845 421.149 377.538 421.044 377.296C420.938 377.054 420.798 376.865 420.623 376.729C420.449 376.594 420.245 376.506 420.012 376.465C419.779 376.419 419.515 376.409 419.22 376.435C418.976 376.457 418.752 376.511 418.547 376.597C418.341 376.677 418.158 376.783 417.996 376.915C417.871 377.016 417.755 377.135 417.65 377.273C417.545 377.411 417.455 377.559 417.38 377.717L417.957 384.146L415.967 384.324ZM430.223 371.746L430.42 373.944L433.809 373.64L433.943 375.131L430.554 375.435L430.94 379.74C430.97 380.073 431.034 380.35 431.133 380.57C431.236 380.785 431.365 380.95 431.521 381.064C431.677 381.185 431.858 381.264 432.063 381.301C432.268 381.339 432.489 381.347 432.728 381.325C432.9 381.31 433.077 381.286 433.259 381.253C433.44 381.219 433.616 381.181 433.786 381.138C433.95 381.101 434.103 381.062 434.245 381.021C434.392 380.975 434.515 380.936 434.612 380.904L434.952 382.259C434.816 382.361 434.648 382.454 434.449 382.539C434.254 382.618 434.043 382.69 433.813 382.756C433.584 382.821 433.343 382.876 433.09 382.921C432.842 382.972 432.594 383.008 432.344 383.03C431.889 383.071 431.464 383.048 431.07 382.96C430.681 382.866 430.339 382.698 430.043 382.456C429.747 382.22 429.503 381.903 429.311 381.506C429.124 381.109 429.005 380.622 428.953 380.044L428.555 375.614L426.374 375.81L426.24 374.32L428.422 374.124L428.224 371.925L430.223 371.746ZM442.718 382.091C442.051 382.15 441.431 382.094 440.856 381.922C440.286 381.749 439.787 381.484 439.357 381.125C438.928 380.772 438.582 380.341 438.318 379.833C438.059 379.319 437.902 378.754 437.847 378.138L437.816 377.796C437.753 377.091 437.806 376.443 437.977 375.851C438.148 375.26 438.409 374.744 438.762 374.303C439.114 373.863 439.536 373.512 440.027 373.25C440.523 372.981 441.063 372.821 441.646 372.769C442.295 372.71 442.88 372.77 443.399 372.947C443.918 373.119 444.365 373.384 444.738 373.742C445.112 374.105 445.41 374.552 445.631 375.08C445.851 375.609 445.991 376.195 446.049 376.839L446.126 377.697L439.88 378.257L439.884 378.299C439.981 378.688 440.105 379.009 440.256 379.264C440.408 379.519 440.604 379.743 440.845 379.934C441.087 380.136 441.363 380.284 441.674 380.38C441.99 380.474 442.329 380.505 442.69 380.473C443.184 380.429 443.636 380.293 444.047 380.066C444.457 379.833 444.785 379.527 445.03 379.146L446.189 380.083C445.928 380.543 445.502 380.973 444.911 381.373C444.326 381.773 443.595 382.012 442.718 382.091ZM441.782 374.385C441.499 374.41 441.24 374.487 441.005 374.614C440.776 374.735 440.575 374.899 440.403 375.105C440.232 375.316 440.095 375.563 439.991 375.847C439.888 376.13 439.821 376.447 439.791 376.796L444.03 376.416L444.018 376.283C443.994 376.022 443.924 375.768 443.807 375.521C443.689 375.269 443.535 375.053 443.346 374.874C443.162 374.7 442.938 374.569 442.672 374.481C442.412 374.387 442.115 374.355 441.782 374.385ZM455.168 371.555C455.49 371.526 455.803 371.52 456.106 371.538C456.416 371.555 456.659 371.586 456.837 371.632L456.73 373.622C456.419 373.583 456.112 373.56 455.809 373.554C455.512 373.547 455.216 373.557 454.922 373.583C454.589 373.613 454.292 373.673 454.031 373.764C453.771 373.854 453.544 373.978 453.351 374.135C453.141 374.288 452.968 374.475 452.831 374.694C452.694 374.913 452.584 375.161 452.503 375.437L453.002 380.999L451.012 381.178L450.203 372.168L452.068 372.001L452.264 373.242L452.291 373.45C452.612 372.912 453.015 372.475 453.5 372.141C453.99 371.806 454.546 371.611 455.168 371.555ZM475.133 379.013L470.314 367.223L472.504 367.027L475.565 375.213L475.829 375.92L475.972 375.168L477.542 366.575L479.724 366.379L477.082 378.838L475.133 379.013ZM489.313 377.74C489.242 377.634 489.18 377.505 489.127 377.353C489.08 377.195 489.034 377.032 488.991 376.862C488.865 377.019 488.719 377.172 488.554 377.321C488.393 377.464 488.209 377.593 488.001 377.706C487.793 377.826 487.567 377.924 487.322 378.002C487.077 378.08 486.811 378.132 486.522 378.158C486.056 378.2 485.622 378.172 485.222 378.073C484.826 377.969 484.482 377.81 484.188 377.595C483.89 377.387 483.648 377.126 483.463 376.813C483.283 376.493 483.176 376.142 483.142 375.759C483.098 375.265 483.156 374.82 483.316 374.425C483.482 374.024 483.742 373.682 484.097 373.398C484.426 373.134 484.84 372.917 485.34 372.749C485.845 372.581 486.422 372.467 487.072 372.409L488.521 372.279L488.466 371.671C488.445 371.438 488.385 371.231 488.285 371.05C488.19 370.868 488.061 370.714 487.899 370.589C487.726 370.465 487.519 370.377 487.279 370.326C487.045 370.268 486.778 370.253 486.478 370.28C486.206 370.304 485.97 370.359 485.771 370.444C485.577 370.529 485.419 370.635 485.296 370.764C485.172 370.881 485.084 371.021 485.031 371.182C484.984 371.337 484.967 371.501 484.983 371.673L482.984 371.853C482.958 371.491 483.012 371.137 483.149 370.789C483.286 370.441 483.504 370.124 483.803 369.84C484.09 369.551 484.455 369.312 484.896 369.121C485.343 368.924 485.861 368.799 486.449 368.746C486.977 368.699 487.474 368.722 487.941 368.814C488.413 368.9 488.827 369.056 489.183 369.282C489.539 369.507 489.83 369.808 490.054 370.186C490.277 370.557 490.412 370.998 490.458 371.509L490.817 375.514C490.854 375.92 490.914 376.284 490.999 376.606C491.089 376.923 491.2 377.192 491.332 377.416L491.345 377.557L489.313 377.74ZM486.761 376.525C487.022 376.502 487.261 376.447 487.477 376.36C487.699 376.273 487.896 376.168 488.07 376.047C488.244 375.925 488.391 375.791 488.512 375.646C488.634 375.501 488.724 375.353 488.783 375.202L488.634 373.536L487.351 373.652C486.918 373.69 486.547 373.766 486.238 373.877C485.929 373.983 485.687 374.12 485.511 374.287C485.356 374.429 485.245 374.593 485.178 374.778C485.116 374.963 485.095 375.166 485.115 375.388C485.131 375.572 485.18 375.741 485.261 375.896C485.342 376.045 485.451 376.17 485.589 376.269C485.726 376.369 485.892 376.443 486.087 376.493C486.281 376.537 486.506 376.548 486.761 376.525ZM500.23 367.509C500.551 367.48 500.864 367.475 501.168 367.492C501.477 367.509 501.721 367.541 501.898 367.586L501.792 369.577C501.48 369.538 501.173 369.515 500.871 369.508C500.573 369.501 500.278 369.511 499.984 369.538C499.65 369.567 499.354 369.628 499.093 369.718C498.833 369.809 498.606 369.933 498.413 370.09C498.203 370.243 498.029 370.429 497.892 370.649C497.755 370.868 497.646 371.116 497.565 371.392L498.064 376.954L496.074 377.133L495.265 368.123L497.13 367.955L497.326 369.197L497.353 369.404C497.674 368.866 498.077 368.43 498.561 368.096C499.052 367.761 499.608 367.565 500.23 367.509ZM505.739 367.183L510.519 366.753L511.18 374.115L513.828 373.877L513.976 375.526L506.548 376.192L506.4 374.544L509.173 374.295L508.661 368.591L505.888 368.84L505.739 367.183ZM508.12 364.619C508.105 364.458 508.12 364.308 508.163 364.17C508.206 364.026 508.276 363.899 508.373 363.79C508.464 363.687 508.577 363.604 508.711 363.541C508.851 363.473 509.009 363.431 509.187 363.415C509.487 363.388 509.735 363.444 509.932 363.583C510.134 363.716 510.26 363.9 510.309 364.137C510.37 364.377 510.348 364.595 510.242 364.789C510.136 364.978 509.969 365.113 509.741 365.195C509.634 365.311 509.501 365.393 509.343 365.44C509.185 365.488 509.007 365.49 508.807 365.447C508.601 365.403 508.439 365.309 508.32 365.163C508.205 365.011 508.139 364.829 508.12 364.619ZM523.11 374.706C523.039 374.6 522.977 374.471 522.924 374.319C522.876 374.161 522.831 373.998 522.787 373.828C522.662 373.985 522.516 374.138 522.35 374.287C522.189 374.43 522.005 374.559 521.797 374.672C521.59 374.792 521.363 374.89 521.119 374.968C520.874 375.046 520.607 375.098 520.318 375.124C519.852 375.166 519.419 375.138 519.018 375.039C518.623 374.935 518.278 374.776 517.985 374.561C517.686 374.353 517.444 374.092 517.26 373.779C517.08 373.459 516.973 373.108 516.938 372.725C516.894 372.231 516.952 371.786 517.112 371.391C517.278 370.99 517.538 370.648 517.893 370.364C518.222 370.1 518.636 369.883 519.136 369.715C519.641 369.547 520.219 369.433 520.868 369.375L522.317 369.245L522.263 368.637C522.242 368.404 522.181 368.197 522.081 368.016C521.986 367.834 521.858 367.68 521.695 367.555C521.522 367.431 521.315 367.343 521.076 367.292C520.841 367.234 520.574 367.219 520.274 367.246C520.002 367.27 519.766 367.325 519.567 367.41C519.373 367.495 519.215 367.601 519.092 367.73C518.968 367.847 518.88 367.987 518.827 368.148C518.78 368.303 518.764 368.467 518.779 368.639L516.781 368.819C516.754 368.457 516.809 368.103 516.945 367.755C517.082 367.407 517.3 367.09 517.599 366.806C517.886 366.517 518.251 366.278 518.693 366.087C519.14 365.89 519.657 365.765 520.246 365.712C520.773 365.665 521.27 365.688 521.737 365.78C522.21 365.866 522.624 366.022 522.98 366.248C523.336 366.473 523.626 366.774 523.85 367.152C524.074 367.523 524.208 367.964 524.254 368.475L524.614 372.48C524.65 372.886 524.711 373.25 524.796 373.572C524.886 373.889 524.997 374.158 525.129 374.382L525.141 374.523L523.11 374.706ZM520.558 373.491C520.819 373.467 521.057 373.412 521.273 373.326C521.495 373.239 521.693 373.134 521.866 373.012C522.04 372.891 522.188 372.757 522.309 372.612C522.43 372.467 522.52 372.319 522.58 372.168L522.43 370.502L521.148 370.618C520.715 370.656 520.344 370.732 520.035 370.843C519.725 370.949 519.483 371.086 519.308 371.253C519.153 371.395 519.041 371.559 518.974 371.744C518.912 371.929 518.891 372.132 518.911 372.354C518.928 372.538 518.976 372.707 519.058 372.862C519.138 373.011 519.247 373.136 519.385 373.235C519.523 373.335 519.689 373.409 519.883 373.459C520.078 373.503 520.302 373.514 520.558 373.491ZM536.144 369.087C536.181 369.503 536.186 369.903 536.159 370.286C536.132 370.669 536.075 371.026 535.987 371.359C535.888 371.754 535.742 372.117 535.547 372.447C535.353 372.778 535.11 373.06 534.818 373.294C534.583 373.483 534.314 373.635 534.011 373.752C533.714 373.874 533.385 373.951 533.024 373.983C532.658 374.016 532.321 374.002 532.013 373.94C531.705 373.878 531.424 373.772 531.17 373.621C531.04 373.543 530.915 373.459 530.795 373.369C530.68 373.273 530.567 373.169 530.456 373.056L530.453 374.046L528.654 374.208L527.506 361.418L529.496 361.239L529.915 365.902C530.019 365.747 530.134 365.605 530.263 365.476C530.391 365.347 530.532 365.231 530.685 365.128C530.885 364.992 531.108 364.886 531.353 364.808C531.603 364.724 531.875 364.668 532.169 364.642C532.558 364.607 532.918 364.628 533.249 364.705C533.585 364.775 533.893 364.893 534.171 365.058C534.407 365.194 534.621 365.368 534.813 365.58C535.011 365.786 535.188 366.016 535.345 366.271C535.556 366.627 535.727 367.028 535.856 367.476C535.992 367.922 536.082 368.401 536.128 368.912L536.144 369.087ZM534.138 369.09C534.115 368.835 534.076 368.589 534.021 368.354C533.972 368.112 533.91 367.888 533.835 367.682C533.735 367.434 533.611 367.213 533.465 367.019C533.324 366.819 533.142 366.656 532.918 366.531C532.77 366.443 532.605 366.382 532.423 366.348C532.241 366.314 532.039 366.307 531.817 366.327C531.545 366.352 531.304 366.412 531.094 366.51C530.884 366.601 530.705 366.724 530.556 366.877C530.448 366.982 530.353 367.102 530.27 367.238C530.192 367.368 530.126 367.509 530.073 367.659L530.408 371.389C530.5 371.549 530.606 371.694 530.723 371.823C530.846 371.946 530.982 372.054 531.13 372.147C531.296 372.244 531.481 372.317 531.687 372.366C531.898 372.408 532.128 372.419 532.378 372.396C532.606 372.376 532.809 372.33 532.987 372.258C533.165 372.18 533.321 372.085 533.457 371.972C533.638 371.816 533.781 371.627 533.884 371.405C533.992 371.177 534.068 370.927 534.11 370.654C534.148 370.449 534.17 370.229 534.177 369.993C534.184 369.758 534.176 369.515 534.154 369.265L534.138 369.09ZM539.121 360.375L543.976 359.939L544.976 371.081L547.707 370.835L547.855 372.484L540.27 373.165L540.121 371.516L542.969 371.261L542.118 361.776L539.27 362.032L539.121 360.375ZM555.372 371.977C554.706 372.037 554.085 371.981 553.51 371.809C552.941 371.636 552.441 371.37 552.012 371.011C551.583 370.658 551.236 370.228 550.972 369.72C550.713 369.206 550.556 368.641 550.501 368.024L550.47 367.683C550.407 366.978 550.461 366.33 550.632 365.738C550.802 365.146 551.064 364.63 551.416 364.19C551.768 363.75 552.19 363.399 552.681 363.136C553.178 362.868 553.717 362.708 554.3 362.655C554.95 362.597 555.534 362.656 556.054 362.834C556.573 363.005 557.019 363.27 557.393 363.628C557.767 363.992 558.064 364.438 558.285 364.967C558.506 365.495 558.645 366.082 558.703 366.726L558.78 367.583L552.535 368.144L552.539 368.186C552.635 368.574 552.759 368.896 552.911 369.151C553.062 369.406 553.259 369.629 553.5 369.82C553.742 370.022 554.018 370.171 554.329 370.266C554.645 370.361 554.983 370.392 555.344 370.36C555.838 370.315 556.291 370.179 556.701 369.952C557.111 369.72 557.439 369.413 557.685 369.033L558.843 369.97C558.582 370.43 558.156 370.86 557.566 371.26C556.98 371.659 556.249 371.898 555.372 371.977ZM554.437 364.271C554.154 364.297 553.895 364.373 553.66 364.501C553.43 364.622 553.229 364.785 553.058 364.991C552.886 365.202 552.749 365.45 552.646 365.733C552.543 366.017 552.476 366.333 552.446 366.683L556.684 366.302L556.672 366.169C556.649 365.908 556.578 365.654 556.461 365.408C556.343 365.155 556.19 364.939 556 364.761C555.817 364.587 555.592 364.456 555.327 364.368C555.067 364.274 554.77 364.241 554.437 364.271ZM565.045 359.214C565.07 359.486 565.059 359.775 565.014 360.082C564.968 360.382 564.894 360.68 564.792 360.975C564.679 361.27 564.542 361.557 564.382 361.834C564.228 362.105 564.048 362.348 563.843 362.562L562.821 362.016C563.02 361.623 563.168 361.215 563.265 360.793C563.361 360.364 563.385 359.892 563.339 359.376L563.217 358.019L564.924 357.865L565.045 359.214ZM567.935 358.955C567.959 359.227 567.949 359.516 567.903 359.822C567.858 360.123 567.784 360.421 567.681 360.715C567.568 361.011 567.432 361.297 567.272 361.575C567.117 361.846 566.937 362.089 566.733 362.303L565.71 361.757C565.91 361.364 566.058 360.956 566.154 360.533C566.25 360.105 566.275 359.633 566.228 359.116L566.107 357.759L567.814 357.606L567.935 358.955Z" fill="#3ABF7E"/>
<path d="M601.261 365.18C601.275 365.027 601.253 364.898 601.193 364.791C601.132 364.679 601.051 364.586 600.949 364.511C600.854 364.447 600.746 364.392 600.624 364.347C600.508 364.296 600.386 364.257 600.261 364.229C600.033 364.188 599.815 364.151 599.605 364.12C599.4 364.088 599.205 364.058 599.017 364.03C598.688 363.975 598.374 363.906 598.075 363.821C597.776 363.73 597.488 363.61 597.212 363.462C596.889 363.289 596.617 363.062 596.395 362.779C596.18 362.497 596.061 362.141 596.039 361.712C596.008 361.177 596.13 360.702 596.406 360.285C596.688 359.863 597.041 359.526 597.466 359.275C597.796 359.083 598.154 358.928 598.54 358.809C598.927 358.685 599.306 358.609 599.678 358.581C600.123 358.547 600.556 358.573 600.978 358.658C601.405 358.737 601.792 358.878 602.141 359.082C602.479 359.293 602.761 359.569 602.988 359.913C603.214 360.251 603.346 360.661 603.384 361.145L601.459 361.309C601.439 361.081 601.38 360.888 601.281 360.729C601.183 360.564 601.056 360.43 600.901 360.327C600.747 360.234 600.571 360.169 600.371 360.131C600.172 360.093 599.964 360.081 599.747 360.095C599.553 360.112 599.349 360.153 599.137 360.217C598.929 360.274 598.738 360.356 598.563 360.461C598.382 360.572 598.233 360.712 598.113 360.879C597.999 361.041 597.935 361.231 597.921 361.45C597.903 361.682 597.953 361.865 598.071 361.999C598.195 362.128 598.346 362.227 598.526 362.294C598.711 362.362 598.905 362.409 599.109 362.435C599.319 362.461 599.505 362.483 599.669 362.502C599.901 362.532 600.14 362.569 600.385 362.614C600.634 362.653 600.877 362.707 601.112 362.776C601.308 362.836 601.496 362.906 601.677 362.985C601.863 363.058 602.03 363.149 602.18 363.259C602.453 363.43 602.68 363.651 602.86 363.92C603.041 364.183 603.14 364.51 603.158 364.9C603.178 365.43 603.06 365.891 602.804 366.284C602.554 366.675 602.23 366.998 601.833 367.252C601.468 367.481 601.064 367.66 600.622 367.789C600.181 367.924 599.755 368.007 599.344 368.038C598.894 368.073 598.446 368.046 598.002 367.957C597.557 367.868 597.154 367.711 596.793 367.486C596.432 367.267 596.129 366.984 595.885 366.636C595.647 366.283 595.508 365.856 595.468 365.356L597.343 365.196C597.372 365.462 597.445 365.685 597.562 365.864C597.678 366.039 597.825 366.179 598.003 366.287C598.18 366.394 598.38 366.468 598.602 366.51C598.824 366.546 599.059 366.553 599.309 366.53C599.498 366.513 599.704 366.478 599.929 366.424C600.153 366.365 600.361 366.282 600.553 366.175C600.745 366.074 600.907 365.942 601.038 365.779C601.169 365.616 601.243 365.416 601.261 365.18ZM610.142 363.417L610.34 364.306L613.34 357.523L615.58 357.322L610.292 368.264C610.142 368.585 609.971 368.894 609.779 369.191C609.588 369.488 609.371 369.754 609.129 369.988C608.887 370.223 608.611 370.415 608.3 370.567C607.994 370.717 607.653 370.809 607.275 370.843C607.091 370.854 606.906 370.851 606.72 370.834C606.54 370.817 606.356 370.797 606.169 370.775L606.438 369.181C606.555 369.181 606.676 369.185 606.799 369.19C606.923 369.196 607.043 369.191 607.159 369.175C607.341 369.147 607.503 369.085 607.646 368.988C607.788 368.892 607.918 368.774 608.034 368.635C608.15 368.501 608.255 368.354 608.347 368.195C608.439 368.041 608.53 367.893 608.618 367.751L609.333 366.461L606.354 358.15L608.411 357.965L610.142 363.417ZM623.326 363.199C623.34 363.047 623.317 362.917 623.257 362.811C623.197 362.698 623.116 362.605 623.014 362.53C622.919 362.466 622.81 362.411 622.689 362.366C622.572 362.315 622.451 362.276 622.325 362.248C622.098 362.207 621.879 362.17 621.669 362.139C621.465 362.107 621.269 362.077 621.082 362.049C620.753 361.995 620.439 361.925 620.14 361.84C619.841 361.749 619.553 361.629 619.277 361.481C618.953 361.308 618.681 361.081 618.46 360.799C618.244 360.516 618.126 360.16 618.104 359.731C618.073 359.196 618.195 358.721 618.471 358.305C618.752 357.882 619.105 357.545 619.53 357.294C619.86 357.103 620.218 356.947 620.605 356.829C620.991 356.704 621.37 356.628 621.743 356.601C622.187 356.566 622.621 356.592 623.042 356.677C623.469 356.756 623.857 356.898 624.205 357.101C624.543 357.312 624.825 357.589 625.052 357.932C625.278 358.27 625.41 358.68 625.448 359.164L623.524 359.328C623.503 359.101 623.444 358.907 623.346 358.748C623.247 358.584 623.12 358.45 622.966 358.346C622.812 358.253 622.635 358.188 622.436 358.15C622.237 358.112 622.029 358.1 621.812 358.114C621.617 358.131 621.414 358.172 621.201 358.236C620.994 358.293 620.803 358.375 620.627 358.48C620.447 358.592 620.297 358.731 620.178 358.898C620.064 359.06 620 359.25 619.986 359.47C619.967 359.701 620.017 359.884 620.136 360.019C620.259 360.147 620.411 360.246 620.59 360.314C620.776 360.381 620.97 360.428 621.174 360.454C621.383 360.48 621.57 360.503 621.734 360.521C621.966 360.551 622.204 360.588 622.449 360.634C622.699 360.673 622.941 360.726 623.177 360.795C623.373 360.856 623.561 360.925 623.742 361.004C623.927 361.077 624.095 361.168 624.245 361.278C624.517 361.45 624.744 361.67 624.925 361.939C625.105 362.203 625.205 362.529 625.223 362.92C625.243 363.449 625.124 363.91 624.869 364.303C624.618 364.695 624.295 365.017 623.898 365.271C623.532 365.5 623.129 365.679 622.687 365.808C622.246 365.943 621.82 366.026 621.408 366.057C620.958 366.092 620.511 366.065 620.066 365.976C619.622 365.887 619.219 365.731 618.857 365.506C618.496 365.286 618.194 365.003 617.95 364.655C617.711 364.302 617.572 363.875 617.533 363.375L619.407 363.215C619.437 363.481 619.51 363.704 619.627 363.884C619.743 364.058 619.89 364.199 620.067 364.306C620.245 364.413 620.445 364.487 620.667 364.529C620.888 364.565 621.124 364.572 621.374 364.549C621.562 364.532 621.769 364.497 621.994 364.443C622.218 364.384 622.426 364.301 622.618 364.194C622.81 364.093 622.972 363.961 623.103 363.798C623.233 363.635 623.308 363.436 623.326 363.199ZM633.226 353.522L633.04 355.754L636.329 355.459L636.205 356.973L632.916 357.268L632.587 361.646C632.58 361.887 632.598 362.109 632.638 362.313C632.684 362.515 632.761 362.688 632.869 362.829C632.966 362.977 633.102 363.088 633.277 363.162C633.457 363.235 633.678 363.263 633.939 363.245C634.256 363.228 634.568 363.18 634.875 363.102C635.181 363.024 635.487 362.938 635.792 362.844L636.016 364.225C635.652 364.471 635.243 364.647 634.788 364.755C634.334 364.869 633.895 364.939 633.472 364.966C632.989 365.004 632.567 364.952 632.208 364.811C631.853 364.663 631.56 364.455 631.329 364.184C631.092 363.909 630.914 363.581 630.796 363.2C630.682 362.813 630.628 362.392 630.632 361.939L630.967 357.443L628.844 357.634L628.976 356.119L631.091 355.929L631.277 353.696L633.226 353.522ZM643.639 364.053C643.028 364.102 642.47 364.032 641.966 363.842C641.462 363.653 641.032 363.375 640.674 363.01C640.312 362.656 640.033 362.225 639.836 361.717C639.645 361.208 639.548 360.654 639.544 360.056L639.555 359.702C639.564 359.243 639.627 358.789 639.743 358.342C639.865 357.895 640.035 357.474 640.251 357.08C640.424 356.767 640.625 356.475 640.852 356.203C641.085 355.925 641.339 355.678 641.617 355.463C641.936 355.221 642.288 355.028 642.673 354.881C643.062 354.729 643.476 354.638 643.916 354.61C644.545 354.57 645.092 354.656 645.559 354.865C646.025 355.07 646.409 355.365 646.713 355.752C647.016 356.139 647.239 356.592 647.38 357.111C647.522 357.624 647.582 358.17 647.561 358.748L647.505 359.618L641.484 360.159C641.491 360.483 641.546 360.788 641.651 361.075C641.754 361.357 641.899 361.601 642.086 361.809C642.272 362.016 642.499 362.177 642.767 362.293C643.04 362.403 643.349 362.445 643.693 362.42C644.189 362.392 644.642 362.262 645.052 362.029C645.461 361.791 645.817 361.482 646.119 361.102L647.178 362.057C646.824 362.659 646.323 363.129 645.676 363.467C645.029 363.8 644.35 363.995 643.639 364.053ZM643.936 356.237C643.596 356.25 643.295 356.333 643.035 356.485C642.78 356.637 642.559 356.828 642.373 357.057C642.181 357.287 642.019 357.545 641.888 357.831C641.757 358.117 641.648 358.403 641.562 358.691L645.668 358.331L645.685 358.145C645.705 357.869 645.676 357.611 645.599 357.372C645.527 357.132 645.416 356.926 645.267 356.755C645.111 356.579 644.92 356.445 644.693 356.353C644.472 356.261 644.22 356.222 643.936 356.237ZM652.314 354.016L652.212 355.032C652.398 354.668 652.634 354.365 652.92 354.121C653.206 353.877 653.559 353.736 653.981 353.698C654.17 353.681 654.344 353.691 654.504 353.727C654.67 353.762 654.821 353.824 654.958 353.913C655.058 353.976 655.15 354.06 655.232 354.165C655.314 354.269 655.381 354.395 655.434 354.541C655.636 354.238 655.871 353.984 656.138 353.781C656.404 353.573 656.727 353.454 657.105 353.426C657.427 353.403 657.703 353.448 657.931 353.562C658.16 353.675 658.344 353.832 658.485 354.032C658.674 354.329 658.801 354.653 658.867 355.005C658.931 355.352 658.956 355.686 658.94 356.006L658.445 362.556L656.654 362.717L657.171 356.039C657.172 355.921 657.165 355.807 657.149 355.697C657.133 355.581 657.101 355.477 657.054 355.386C657.002 355.302 656.931 355.235 656.843 355.187C656.755 355.139 656.641 355.121 656.503 355.134C656.375 355.145 656.26 355.175 656.158 355.223C656.061 355.266 655.971 355.327 655.889 355.407C655.833 355.468 655.78 355.537 655.731 355.614C655.687 355.685 655.65 355.762 655.618 355.843L655.039 362.862L653.282 363.02L653.807 356.333C653.807 356.215 653.8 356.101 653.784 355.991C653.769 355.88 653.74 355.779 653.698 355.688C653.646 355.608 653.576 355.545 653.488 355.497C653.405 355.443 653.294 355.422 653.155 355.434C653.033 355.445 652.923 355.472 652.826 355.514C652.73 355.556 652.648 355.611 652.581 355.679C652.513 355.735 652.452 355.802 652.398 355.88C652.349 355.957 652.3 356.04 652.252 356.128L651.675 363.164L649.885 363.325L650.633 354.175L652.314 354.016ZM669.188 357.034L662.684 357.617L662.822 355.977L669.334 355.392L669.188 357.034ZM675.77 361.177C675.231 361.214 674.779 361.137 674.415 360.946C674.05 360.749 673.755 360.482 673.529 360.144C673.295 359.785 673.136 359.382 673.051 358.936C672.966 358.485 672.927 358.024 672.935 357.553L673.347 352.136L675.287 351.962L674.878 357.404C674.873 357.662 674.879 357.919 674.896 358.175C674.919 358.43 674.976 358.657 675.067 358.856C675.152 359.056 675.284 359.214 675.462 359.333C675.646 359.45 675.897 359.501 676.214 359.483C676.465 359.467 676.698 359.42 676.915 359.345C677.132 359.269 677.33 359.168 677.509 359.04C677.661 358.925 677.8 358.793 677.927 358.641C678.058 358.49 678.178 358.319 678.284 358.131L678.826 351.644L680.775 351.469L680.018 360.619L678.261 360.777L678.331 359.503C678.031 359.961 677.668 360.346 677.243 360.659C676.823 360.965 676.332 361.138 675.77 361.177ZM684.762 351.111L689.409 350.694L688.796 358.169L691.369 357.938L691.225 359.613L684.006 360.261L684.149 358.586L686.839 358.345L687.309 352.553L684.62 352.794L684.762 351.111ZM687.47 348.551C687.447 348.229 687.531 347.95 687.723 347.714C687.92 347.478 688.182 347.343 688.509 347.308C688.824 347.268 689.099 347.339 689.334 347.519C689.568 347.7 689.7 347.954 689.729 348.281C689.759 348.614 689.675 348.893 689.477 349.118C689.279 349.343 689.019 349.472 688.698 349.507C688.382 349.546 688.105 349.479 687.865 349.305C687.632 349.13 687.5 348.879 687.47 348.551Z" fill="#977EFF"/>
<g filter="url(#filter7_d_270_7)">
<rect x="539.328" y="177" width="252" height="153" rx="15" transform="rotate(11.4327 539.328 177)" fill="url(#paint3_linear_270_7)"/>
<g filter="url(#filter8_ii_270_7)">
<rect x="550.75" y="246.646" width="62" height="62" rx="10" transform="rotate(11.4327 550.75 246.646)" fill="url(#paint4_linear_270_7)"/>
</g>
<g filter="url(#filter9_ii_270_7)">
<rect x="619.359" y="260.521" width="62" height="62" rx="10" transform="rotate(11.4327 619.359 260.521)" fill="url(#paint5_linear_270_7)"/>
</g>
<g filter="url(#filter10_ii_270_7)">
<rect x="687.973" y="274.396" width="62" height="62" rx="10" transform="rotate(11.4327 687.973 274.396)" fill="url(#paint6_linear_270_7)"/>
</g>
<path d="M557.316 220.427L559.785 208.218L561.793 208.624L563.296 217.133C563.335 217.334 563.378 217.588 563.424 217.893C563.477 218.193 563.528 218.505 563.576 218.827C563.631 219.146 563.677 219.437 563.715 219.7C563.852 219.472 564.005 219.221 564.174 218.948C564.35 218.671 564.518 218.404 564.678 218.146C564.844 217.884 564.982 217.667 565.091 217.496L569.733 210.229L571.749 210.637L569.28 222.847L567.829 222.554L569.261 215.474C569.35 215.036 569.453 214.551 569.573 214.018C569.693 213.48 569.812 212.946 569.93 212.419C569.565 213.016 569.23 213.562 568.925 214.058C568.62 214.553 568.369 214.952 568.171 215.253L563.904 221.76L562.691 221.515L561.272 213.858C561.209 213.521 561.133 213.082 561.043 212.541C560.954 211.999 560.853 211.402 560.74 210.748C560.655 211.254 560.564 211.759 560.468 212.262C560.378 212.767 560.29 213.227 560.206 213.642L558.774 220.722L557.316 220.427ZM571.987 226.96L572.236 225.731L573.088 225.903C573.601 226.007 574.062 225.739 574.47 225.099L575.194 223.966L573.577 214.709L575.085 215.014L575.946 220.374C576.001 220.72 576.053 221.069 576.101 221.42C576.156 221.767 576.206 222.112 576.25 222.457C576.43 222.158 576.61 221.858 576.79 221.559C576.976 221.256 577.162 220.955 577.347 220.657L580.19 216.046L581.674 216.346L575.608 225.799C575.267 226.332 574.857 226.716 574.378 226.949C573.898 227.181 573.386 227.243 572.839 227.132L571.987 226.96ZM590.945 227.433C590.147 227.272 589.484 226.938 588.955 226.433C588.432 225.924 588.07 225.296 587.868 224.55C587.672 223.806 587.663 222.993 587.841 222.114C588.02 221.229 588.345 220.479 588.816 219.863C589.293 219.249 589.871 218.808 590.551 218.542C591.235 218.277 591.977 218.225 592.774 218.386C593.43 218.519 593.991 218.769 594.457 219.136C594.924 219.497 595.275 219.938 595.511 220.458C595.753 220.979 595.853 221.539 595.811 222.139L594.402 221.854C594.4 221.325 594.245 220.859 593.934 220.455C593.63 220.046 593.158 219.777 592.519 219.648C591.705 219.483 591.006 219.652 590.421 220.153C589.842 220.656 589.451 221.405 589.25 222.399C589.051 223.382 589.122 224.215 589.461 224.898C589.801 225.581 590.38 226.005 591.2 226.171C591.85 226.302 592.379 226.245 592.787 225.997C593.197 225.745 593.523 225.367 593.767 224.865L595.201 225.155C595.01 225.707 594.701 226.18 594.275 226.571C593.856 226.958 593.356 227.233 592.778 227.394C592.206 227.552 591.595 227.564 590.945 227.433ZM600.736 229.413C599.939 229.252 599.275 228.919 598.746 228.414C598.224 227.904 597.862 227.276 597.66 226.531C597.464 225.786 597.455 224.974 597.632 224.094C597.811 223.209 598.137 222.459 598.608 221.843C599.085 221.229 599.663 220.789 600.342 220.522C601.027 220.257 601.768 220.205 602.566 220.366C603.369 220.529 604.032 220.865 604.554 221.374C605.077 221.883 605.435 222.513 605.631 223.263C605.831 224.015 605.842 224.833 605.663 225.718C605.485 226.598 605.158 227.342 604.683 227.951C604.212 228.561 603.638 228.999 602.958 229.265C602.28 229.526 601.539 229.575 600.736 229.413ZM600.991 228.151C601.811 228.317 602.51 228.151 603.088 227.654C603.667 227.151 604.056 226.411 604.254 225.433C604.454 224.444 604.382 223.605 604.038 222.916C603.7 222.222 603.125 221.793 602.311 221.628C601.497 221.464 600.797 221.632 600.212 222.134C599.633 222.636 599.243 223.385 599.042 224.379C598.843 225.362 598.913 226.195 599.253 226.878C599.593 227.561 600.172 227.985 600.991 228.151ZM611.283 218.632L608.814 230.842L607.421 230.56L609.89 218.35L611.283 218.632ZM615.419 232.382C614.621 232.221 613.958 231.888 613.429 231.383C612.907 230.873 612.544 230.246 612.343 229.5C612.146 228.755 612.137 227.943 612.315 227.063C612.494 226.178 612.819 225.428 613.291 224.813C613.767 224.198 614.346 223.758 615.025 223.491C615.71 223.226 616.451 223.174 617.249 223.336C618.052 223.498 618.714 223.834 619.237 224.343C619.759 224.853 620.118 225.482 620.313 226.233C620.514 226.984 620.525 227.802 620.346 228.687C620.168 229.567 619.841 230.311 619.366 230.92C618.895 231.53 618.32 231.968 617.641 232.235C616.963 232.496 616.222 232.545 615.419 232.382ZM615.674 231.12C616.494 231.286 617.193 231.12 617.771 230.623C618.35 230.12 618.739 229.38 618.936 228.402C619.136 227.413 619.064 226.574 618.72 225.885C618.383 225.191 617.807 224.762 616.993 224.597C616.179 224.433 615.48 224.601 614.895 225.103C614.316 225.606 613.926 226.354 613.725 227.348C613.526 228.332 613.596 229.165 613.936 229.848C614.275 230.53 614.855 230.955 615.674 231.12ZM625.25 234.336C624.671 234.219 624.164 233.986 623.728 233.636C623.3 233.282 622.992 232.822 622.805 232.255C622.625 231.684 622.612 231.016 622.767 230.252L623.854 224.876L625.247 225.158L624.18 230.435C624.028 231.183 624.094 231.785 624.377 232.241C624.662 232.691 625.126 232.981 625.771 233.111C626.405 233.239 626.982 233.154 627.503 232.856C628.024 232.557 628.373 231.971 628.549 231.097L629.574 226.033L630.967 226.314L629.217 234.968L627.856 234.693L628.113 233.423C627.713 233.854 627.271 234.142 626.786 234.289C626.309 234.431 625.796 234.447 625.25 234.336ZM632.289 235.589L634.039 226.936L635.366 227.204L635.091 228.564L635.124 228.571C635.373 228.155 635.697 227.845 636.096 227.642C636.496 227.438 636.966 227.391 637.507 227.501C637.632 227.526 637.746 227.555 637.848 227.587C637.955 227.62 638.034 227.647 638.087 227.669L637.805 229.062C637.754 229.035 637.651 228.994 637.497 228.94C637.35 228.882 637.175 228.832 636.973 228.791C636.492 228.694 636.04 228.779 635.616 229.046C635.193 229.313 634.907 229.812 634.759 230.544L633.682 235.871L632.289 235.589ZM643.214 241.364L645.657 229.285L647.017 229.56L646.758 230.839L646.775 230.842C647.152 230.412 647.61 230.129 648.149 229.994C648.689 229.853 649.241 229.839 649.803 229.953C650.557 230.106 651.178 230.427 651.664 230.918C652.15 231.409 652.481 232.024 652.655 232.765C652.831 233.5 652.828 234.312 652.648 235.203C652.469 236.088 652.156 236.838 651.707 237.452C651.26 238.061 650.716 238.5 650.076 238.768C649.437 239.032 648.741 239.087 647.987 238.934C647.424 238.821 646.935 238.597 646.519 238.262C646.105 237.923 645.792 237.473 645.581 236.913L645.565 236.909L644.607 241.646L643.214 241.364ZM648.028 237.638C648.776 237.789 649.443 237.64 650.029 237.189C650.621 236.735 651.025 235.978 651.239 234.918C651.453 233.858 651.376 233.004 651.007 232.355C650.643 231.707 650.087 231.307 649.338 231.156C648.535 230.993 647.836 231.162 647.24 231.661C646.651 232.156 646.258 232.893 646.06 233.87C645.862 234.848 645.939 235.68 646.289 236.365C646.645 237.051 647.225 237.475 648.028 237.638ZM657.097 240.743C656.239 240.569 655.566 240.203 655.076 239.643C654.592 239.084 654.437 238.374 654.612 237.51C654.712 237.013 654.89 236.628 655.144 236.356C655.403 236.084 655.712 235.893 656.07 235.784C656.434 235.67 656.83 235.608 657.259 235.598C657.693 235.589 658.131 235.601 658.574 235.633C659.141 235.668 659.587 235.699 659.912 235.725C660.236 235.751 660.473 235.733 660.622 235.672C660.776 235.612 660.875 235.473 660.919 235.255L660.936 235.173C661.031 234.703 660.94 234.281 660.663 233.906C660.392 233.533 659.953 233.285 659.346 233.162C658.745 233.041 658.221 233.088 657.774 233.305C657.333 233.517 657.052 233.836 656.932 234.261L655.514 233.974C655.649 233.45 655.908 233.013 656.291 232.664C656.676 232.31 657.152 232.065 657.719 231.929C658.287 231.794 658.912 231.795 659.595 231.933C660.606 232.138 661.353 232.562 661.837 233.206C662.327 233.845 662.486 234.594 662.313 235.451L661.106 241.417L659.729 241.138L659.978 239.909L659.945 239.903C659.799 240.089 659.604 240.269 659.359 240.441C659.115 240.608 658.806 240.727 658.433 240.8C658.067 240.868 657.621 240.849 657.097 240.743ZM657.546 239.537C658.114 239.652 658.596 239.644 658.992 239.514C659.389 239.378 659.702 239.163 659.933 238.868C660.163 238.573 660.316 238.238 660.392 237.861L660.611 236.779C660.487 236.856 660.193 236.891 659.729 236.882C659.265 236.868 658.778 236.846 658.266 236.817C657.924 236.793 657.592 236.805 657.269 236.854C656.953 236.898 656.683 237 656.457 237.159C656.233 237.312 656.087 237.553 656.021 237.881C655.939 238.285 656.034 238.634 656.304 238.927C656.58 239.222 656.994 239.425 657.546 239.537ZM668.04 230.11L665.571 242.32L664.178 242.038L666.647 229.828L668.04 230.11ZM672.176 243.86C671.329 243.689 670.645 243.349 670.122 242.839C669.605 242.331 669.257 241.706 669.077 240.965C668.898 240.218 668.897 239.41 669.072 238.541C669.25 237.662 669.575 236.914 670.046 236.299C670.518 235.683 671.087 235.241 671.756 234.973C672.425 234.699 673.143 234.639 673.907 234.794C674.711 234.956 675.368 235.288 675.881 235.79C676.394 236.292 676.739 236.916 676.918 237.663C677.102 238.411 677.104 239.233 676.923 240.129L676.845 240.514L670.371 239.205C670.233 240.058 670.337 240.796 670.683 241.417C671.029 242.039 671.612 242.433 672.431 242.598C673.049 242.723 673.58 242.683 674.025 242.477C674.476 242.273 674.812 241.96 675.034 241.538L676.427 241.82C676.206 242.35 675.881 242.79 675.452 243.141C675.024 243.487 674.527 243.724 673.96 243.854C673.399 243.985 672.805 243.987 672.176 243.86ZM670.629 238.012L675.694 239.036C675.771 238.261 675.628 237.604 675.265 237.064C674.902 236.524 674.366 236.183 673.656 236.039C672.945 235.896 672.321 236.002 671.782 236.36C671.244 236.717 670.86 237.268 670.629 238.012ZM684.176 237.075L683.934 238.271L682.18 237.917L681.096 243.276C681.029 243.609 681.05 243.858 681.158 244.022C681.274 244.182 681.509 244.298 681.864 244.369L682.667 244.532L682.426 245.728L681.491 245.539C680.016 245.241 679.41 244.442 679.673 243.142L680.787 237.635L679.246 237.323L679.488 236.127L681.029 236.438L681.506 234.078L682.899 234.36L682.422 236.72L684.176 237.075ZM689.837 238.22L689.595 239.416L687.841 239.061L686.758 244.421C686.69 244.754 686.711 245.003 686.82 245.167C686.935 245.327 687.171 245.443 687.526 245.514L688.329 245.677L688.087 246.873L687.153 246.684C685.678 246.386 685.072 245.587 685.335 244.287L686.448 238.78L684.908 238.468L685.15 237.272L686.69 237.583L687.168 235.223L688.561 235.505L688.083 237.865L689.837 238.22ZM693.914 248.256C693.067 248.085 692.382 247.745 691.86 247.235C691.343 246.727 690.994 246.102 690.814 245.361C690.636 244.614 690.634 243.806 690.81 242.937C690.988 242.058 691.312 241.31 691.784 240.695C692.255 240.079 692.825 239.637 693.493 239.369C694.163 239.094 694.88 239.035 695.645 239.189C696.448 239.352 697.106 239.684 697.618 240.186C698.131 240.687 698.477 241.312 698.656 242.059C698.84 242.807 698.841 243.629 698.66 244.525L698.582 244.91L692.109 243.601C691.97 244.454 692.074 245.192 692.42 245.813C692.766 246.435 693.349 246.829 694.169 246.994C694.786 247.119 695.317 247.079 695.763 246.873C696.214 246.669 696.55 246.356 696.772 245.934L698.165 246.216C697.944 246.745 697.619 247.186 697.189 247.537C696.761 247.882 696.264 248.12 695.698 248.25C695.137 248.381 694.542 248.383 693.914 248.256ZM692.367 242.408L697.431 243.432C697.508 242.657 697.365 242 697.002 241.46C696.64 240.92 696.103 240.579 695.393 240.435C694.683 240.291 694.058 240.398 693.52 240.756C692.981 241.113 692.597 241.664 692.367 242.408Z" fill="white"/>
</g>
<defs>
<filter id="filter0_d_270_7" x="156.886" y="65.1357" width="318.838" height="322.533" filterUnits="userSpaceOnUse" color-interpolation-filters="sRGB">
<feFlood flood-opacity="0" result="BackgroundImageFix"/>
<feColorMatrix in="SourceAlpha" type="matrix" values="0 0 0 0 0 0 0 0 0 0 0 0 0 0 0 0 0 0 127 0" result="hardAlpha"/>
<feOffset/>
<feGaussianBlur stdDeviation="6.25444"/>
<feComposite in2="hardAlpha" operator="out"/>
<feColorMatrix type="matrix" values="0 0 0 0 0 0 0 0 0 0 0 0 0 0 0 0 0 0 0.37 0"/>
<feBlend mode="normal" in2="BackgroundImageFix" result="effect1_dropShadow_270_7"/>
<feBlend mode="normal" in="SourceGraphic" in2="effect1_dropShadow_270_7" result="shape"/>
</filter>
<filter id="filter1_ii_270_7" x="209.228" y="201.095" width="50.5333" height="64.4301" filterUnits="userSpaceOnUse" color-interpolation-filters="sRGB">
<feFlood flood-opacity="0" result="BackgroundImageFix"/>
<feBlend mode="normal" in="SourceGraphic" in2="BackgroundImageFix" result="shape"/>
<feColorMatrix in="SourceAlpha" type="matrix" values="0 0 0 0 0 0 0 0 0 0 0 0 0 0 0 0 0 0 127 0" result="hardAlpha"/>
<feMorphology radius="5.21203" operator="erode" in="SourceAlpha" result="effect1_innerShadow_270_7"/>
<feOffset dx="-1.73734" dy="7.81805"/>
<feGaussianBlur stdDeviation="7.38371"/>
<feComposite in2="hardAlpha" operator="arithmetic" k2="-1" k3="1"/>
<feColorMatrix type="matrix" values="0 0 0 0 0.95 0 0 0 0 0.431458 0 0 0 0 0.461322 0 0 0 0.73 0"/>
<feBlend mode="normal" in2="shape" result="effect1_innerShadow_270_7"/>
<feColorMatrix in="SourceAlpha" type="matrix" values="0 0 0 0 0 0 0 0 0 0 0 0 0 0 0 0 0 0 127 0" result="hardAlpha"/>
<feOffset dx="-3.47469" dy="-9.55539"/>
<feGaussianBlur stdDeviation="7.73118"/>
<feComposite in2="hardAlpha" operator="arithmetic" k2="-1" k3="1"/>
<feColorMatrix type="matrix" values="0 0 0 0 0 0 0 0 0 0 0 0 0 0 0 0 0 0 0.24 0"/>
<feBlend mode="normal" in2="effect1_innerShadow_270_7" result="effect2_innerShadow_270_7"/>
</filter>
<filter id="filter2_ii_270_7" x="242.275" y="134.134" width="50.5333" height="64.4301" filterUnits="userSpaceOnUse" color-interpolation-filters="sRGB">
<feFlood flood-opacity="0" result="BackgroundImageFix"/>
<feBlend mode="normal" in="SourceGraphic" in2="BackgroundImageFix" result="shape"/>
<feColorMatrix in="SourceAlpha" type="matrix" values="0 0 0 0 0 0 0 0 0 0 0 0 0 0 0 0 0 0 127 0" result="hardAlpha"/>
<feMorphology radius="5.21203" operator="erode" in="SourceAlpha" result="effect1_innerShadow_270_7"/>
<feOffset dx="-1.73734" dy="7.81805"/>
<feGaussianBlur stdDeviation="7.38371"/>
<feComposite in2="hardAlpha" operator="arithmetic" k2="-1" k3="1"/>
<feColorMatrix type="matrix" values="0 0 0 0 0.292517 0 0 0 0 0.845833 0 0 0 0 0.575416 0 0 0 0.72 0"/>
<feBlend mode="normal" in2="shape" result="effect1_innerShadow_270_7"/>
<feColorMatrix in="SourceAlpha" type="matrix" values="0 0 0 0 0 0 0 0 0 0 0 0 0 0 0 0 0 0 127 0" result="hardAlpha"/>
<feOffset dx="-3.47469" dy="-9.55539"/>
<feGaussianBlur stdDeviation="7.73118"/>
<feComposite in2="hardAlpha" operator="arithmetic" k2="-1" k3="1"/>
<feColorMatrix type="matrix" values="0 0 0 0 0 0 0 0 0 0 0 0 0 0 0 0 0 0 0.24 0"/>
<feBlend mode="normal" in2="effect1_innerShadow_270_7" result="effect2_innerShadow_270_7"/>
</filter>
<filter id="filter3_ii_270_7" x="312.701" y="120.706" width="65.3007" height="65.2988" filterUnits="userSpaceOnUse" color-interpolation-filters="sRGB">
<feFlood flood-opacity="0" result="BackgroundImageFix"/>
<feBlend mode="normal" in="SourceGraphic" in2="BackgroundImageFix" result="shape"/>
<feColorMatrix in="SourceAlpha" type="matrix" values="0 0 0 0 0 0 0 0 0 0 0 0 0 0 0 0 0 0 127 0" result="hardAlpha"/>
<feMorphology radius="5.21203" operator="erode" in="SourceAlpha" result="effect1_innerShadow_270_7"/>
<feOffset dx="12.1614" dy="8.68672"/>
<feGaussianBlur stdDeviation="7.38371"/>
<feComposite in2="hardAlpha" operator="arithmetic" k2="-1" k3="1"/>
<feColorMatrix type="matrix" values="0 0 0 0 0.9875 0 0 0 0 0.705772 0 0 0 0 0.189271 0 0 0 1 0"/>
<feBlend mode="normal" in2="shape" result="effect1_innerShadow_270_7"/>
<feColorMatrix in="SourceAlpha" type="matrix" values="0 0 0 0 0 0 0 0 0 0 0 0 0 0 0 0 0 0 127 0" result="hardAlpha"/>
<feOffset dx="-6.0807" dy="-9.55539"/>
<feGaussianBlur stdDeviation="7.73118"/>
<feComposite in2="hardAlpha" operator="arithmetic" k2="-1" k3="1"/>
<feColorMatrix type="matrix" values="0 0 0 0 0 0 0 0 0 0 0 0 0 0 0 0 0 0 0.24 0"/>
<feBlend mode="normal" in2="effect1_innerShadow_270_7" result="effect2_innerShadow_270_7"/>
</filter>
<filter id="filter4_ii_270_7" x="366.22" y="171.324" width="65.3007" height="65.2988" filterUnits="userSpaceOnUse" color-interpolation-filters="sRGB">
<feFlood flood-opacity="0" result="BackgroundImageFix"/>
<feBlend mode="normal" in="SourceGraphic" in2="BackgroundImageFix" result="shape"/>
<feColorMatrix in="SourceAlpha" type="matrix" values="0 0 0 0 0 0 0 0 0 0 0 0 0 0 0 0 0 0 127 0" result="hardAlpha"/>
<feMorphology radius="5.21203" operator="erode" in="SourceAlpha" result="effect1_innerShadow_270_7"/>
<feOffset dx="12.1614" dy="8.68672"/>
<feGaussianBlur stdDeviation="7.38371"/>
<feComposite in2="hardAlpha" operator="arithmetic" k2="-1" k3="1"/>
<feColorMatrix type="matrix" values="0 0 0 0 0.329167 0 0 0 0 0.696029 0 0 0 0 1 0 0 0 1 0"/>
<feBlend mode="normal" in2="shape" result="effect1_innerShadow_270_7"/>
<feColorMatrix in="SourceAlpha" type="matrix" values="0 0 0 0 0 0 0 0 0 0 0 0 0 0 0 0 0 0 127 0" result="hardAlpha"/>
<feOffset dx="-6.0807" dy="-9.55539"/>
<feGaussianBlur stdDeviation="7.73118"/>
<feComposite in2="hardAlpha" operator="arithmetic" k2="-1" k3="1"/>
<feColorMatrix type="matrix" values="0 0 0 0 0 0 0 0 0 0 0 0 0 0 0 0 0 0 0.24 0"/>
<feBlend mode="normal" in2="effect1_innerShadow_270_7" result="effect2_innerShadow_270_7"/>
</filter>
<filter id="filter5_dd_270_7" x="0.983866" y="181.984" width="278.935" height="278.937" filterUnits="userSpaceOnUse" color-interpolation-filters="sRGB">
<feFlood flood-opacity="0" result="BackgroundImageFix"/>
<feColorMatrix in="SourceAlpha" type="matrix" values="0 0 0 0 0 0 0 0 0 0 0 0 0 0 0 0 0 0 127 0" result="hardAlpha"/>
<feOffset/>
<feGaussianBlur stdDeviation="13.5628"/>
<feComposite in2="hardAlpha" operator="out"/>
<feColorMatrix type="matrix" values="0 0 0 0 0.2625 0 0 0 0 0.77875 0 0 0 0 1 0 0 0 0.1 0"/>
<feBlend mode="normal" in2="BackgroundImageFix" result="effect1_dropShadow_270_7"/>
<feColorMatrix in="SourceAlpha" type="matrix" values="0 0 0 0 0 0 0 0 0 0 0 0 0 0 0 0 0 0 127 0" result="hardAlpha"/>
<feOffset dy="4"/>
<feGaussianBlur stdDeviation="2"/>
<feComposite in2="hardAlpha" operator="out"/>
<feColorMatrix type="matrix" values="0 0 0 0 0 0 0 0 0 0 0 0 0 0 0 0 0 0 0.25 0"/>
<feBlend mode="normal" in2="effect1_dropShadow_270_7" result="effect2_dropShadow_270_7"/>
<feBlend mode="normal" in="SourceGraphic" in2="effect2_dropShadow_270_7" result="shape"/>
</filter>
<filter id="filter6_d_270_7" x="185.759" y="292.761" width="556.702" height="161.432" filterUnits="userSpaceOnUse" color-interpolation-filters="sRGB">
<feFlood flood-opacity="0" result="BackgroundImageFix"/>
<feColorMatrix in="SourceAlpha" type="matrix" values="0 0 0 0 0 0 0 0 0 0 0 0 0 0 0 0 0 0 127 0" result="hardAlpha"/>
<feOffset/>
<feGaussianBlur stdDeviation="3.4"/>
<feComposite in2="hardAlpha" operator="out"/>
<feColorMatrix type="matrix" values="0 0 0 0 0 0 0 0 0 0 0 0 0 0 0 0 0 0 0.42 0"/>
<feBlend mode="normal" in2="BackgroundImageFix" result="effect1_dropShadow_270_7"/>
<feBlend mode="normal" in="SourceGraphic" in2="effect1_dropShadow_270_7" result="shape"/>
</filter>
<filter id="filter7_d_270_7" x="499.172" y="167.172" width="296.984" height="219.57" filterUnits="userSpaceOnUse" color-interpolation-filters="sRGB">
<feFlood flood-opacity="0" result="BackgroundImageFix"/>
<feColorMatrix in="SourceAlpha" type="matrix" values="0 0 0 0 0 0 0 0 0 0 0 0 0 0 0 0 0 0 127 0" result="hardAlpha"/>
<feOffset/>
<feGaussianBlur stdDeviation="6.25"/>
<feComposite in2="hardAlpha" operator="out"/>
<feColorMatrix type="matrix" values="0 0 0 0 0 0 0 0 0 0 0 0 0 0 0 0 0 0 0.71 0"/>
<feBlend mode="normal" in2="BackgroundImageFix" result="effect1_dropShadow_270_7"/>
<feBlend mode="normal" in="SourceGraphic" in2="effect1_dropShadow_270_7" result="shape"/>
</filter>
<filter id="filter8_ii_270_7" x="538.242" y="244.428" width="74.4961" height="77.4961" filterUnits="userSpaceOnUse" color-interpolation-filters="sRGB">
<feFlood flood-opacity="0" result="BackgroundImageFix"/>
<feBlend mode="normal" in="SourceGraphic" in2="BackgroundImageFix" result="shape"/>
<feColorMatrix in="SourceAlpha" type="matrix" values="0 0 0 0 0 0 0 0 0 0 0 0 0 0 0 0 0 0 127 0" result="hardAlpha"/>
<feOffset dx="-2" dy="-4"/>
<feGaussianBlur stdDeviation="7.8"/>
<feComposite in2="hardAlpha" operator="arithmetic" k2="-1" k3="1"/>
<feColorMatrix type="matrix" values="0 0 0 0 0 0 0 0 0 0 0 0 0 0 0 0 0 0 0.13 0"/>
<feBlend mode="normal" in2="shape" result="effect1_innerShadow_270_7"/>
<feColorMatrix in="SourceAlpha" type="matrix" values="0 0 0 0 0 0 0 0 0 0 0 0 0 0 0 0 0 0 127 0" result="hardAlpha"/>
<feOffset dx="3" dy="4"/>
<feGaussianBlur stdDeviation="5.8"/>
<feComposite in2="hardAlpha" operator="arithmetic" k2="-1" k3="1"/>
<feColorMatrix type="matrix" values="0 0 0 0 1 0 0 0 0 1 0 0 0 0 1 0 0 0 0.25 0"/>
<feBlend mode="normal" in2="effect1_innerShadow_270_7" result="effect2_innerShadow_270_7"/>
</filter>
<filter id="filter9_ii_270_7" x="606.852" y="258.303" width="74.4961" height="77.4961" filterUnits="userSpaceOnUse" color-interpolation-filters="sRGB">
<feFlood flood-opacity="0" result="BackgroundImageFix"/>
<feBlend mode="normal" in="SourceGraphic" in2="BackgroundImageFix" result="shape"/>
<feColorMatrix in="SourceAlpha" type="matrix" values="0 0 0 0 0 0 0 0 0 0 0 0 0 0 0 0 0 0 127 0" result="hardAlpha"/>
<feOffset dx="-2" dy="-4"/>
<feGaussianBlur stdDeviation="9.05"/>
<feComposite in2="hardAlpha" operator="arithmetic" k2="-1" k3="1"/>
<feColorMatrix type="matrix" values="0 0 0 0 0 0 0 0 0 0 0 0 0 0 0 0 0 0 0.06 0"/>
<feBlend mode="normal" in2="shape" result="effect1_innerShadow_270_7"/>
<feColorMatrix in="SourceAlpha" type="matrix" values="0 0 0 0 0 0 0 0 0 0 0 0 0 0 0 0 0 0 127 0" result="hardAlpha"/>
<feOffset dx="3" dy="4"/>
<feGaussianBlur stdDeviation="10.15"/>
<feComposite in2="hardAlpha" operator="arithmetic" k2="-1" k3="1"/>
<feColorMatrix type="matrix" values="0 0 0 0 1 0 0 0 0 1 0 0 0 0 1 0 0 0 0.16 0"/>
<feBlend mode="normal" in2="effect1_innerShadow_270_7" result="effect2_innerShadow_270_7"/>
</filter>
<filter id="filter10_ii_270_7" x="675.465" y="272.178" width="74.4961" height="77.4961" filterUnits="userSpaceOnUse" color-interpolation-filters="sRGB">
<feFlood flood-opacity="0" result="BackgroundImageFix"/>
<feBlend mode="normal" in="SourceGraphic" in2="BackgroundImageFix" result="shape"/>
<feColorMatrix in="SourceAlpha" type="matrix" values="0 0 0 0 0 0 0 0 0 0 0 0 0 0 0 0 0 0 127 0" result="hardAlpha"/>
<feOffset dx="-2" dy="-4"/>
<feGaussianBlur stdDeviation="10.95"/>
<feComposite in2="hardAlpha" operator="arithmetic" k2="-1" k3="1"/>
<feColorMatrix type="matrix" values="0 0 0 0 0 0 0 0 0 0 0 0 0 0 0 0 0 0 0.05 0"/>
<feBlend mode="normal" in2="shape" result="effect1_innerShadow_270_7"/>
<feColorMatrix in="SourceAlpha" type="matrix" values="0 0 0 0 0 0 0 0 0 0 0 0 0 0 0 0 0 0 127 0" result="hardAlpha"/>
<feOffset dx="3" dy="4"/>
<feGaussianBlur stdDeviation="10.15"/>
<feComposite in2="hardAlpha" operator="arithmetic" k2="-1" k3="1"/>
<feColorMatrix type="matrix" values="0 0 0 0 1 0 0 0 0 1 0 0 0 0 1 0 0 0 0.25 0"/>
<feBlend mode="normal" in2="effect1_innerShadow_270_7" result="effect2_innerShadow_270_7"/>
</filter>
<linearGradient id="paint0_linear_270_7" x1="291.411" y1="80.7841" x2="344.116" y2="372.747" gradientUnits="userSpaceOnUse">
<stop offset="0.31" stop-color="#C8B05C"/>
<stop offset="1" stop-color="#B9A04A"/>
</linearGradient>
<linearGradient id="paint1_linear_270_7" x1="183.511" y1="404.666" x2="140.264" y2="203" gradientUnits="userSpaceOnUse">
<stop stop-color="#1F3D61"/>
<stop offset="1" stop-color="#436EAD"/>
</linearGradient>
<linearGradient id="paint2_linear_270_7" x1="460.5" y1="345.373" x2="460.5" y2="450.373" gradientUnits="userSpaceOnUse">
<stop stop-color="#404040"/>
<stop offset="1" stop-color="#131313"/>
</linearGradient>
<linearGradient id="paint3_linear_270_7" x1="548.122" y1="181.25" x2="796.207" y2="313.597" gradientUnits="userSpaceOnUse">
<stop stop-color="#070C1A"/>
<stop offset="1" stop-color="#262B37"/>
</linearGradient>
<linearGradient id="paint4_linear_270_7" x1="581.75" y1="246.646" x2="581.75" y2="308.646" gradientUnits="userSpaceOnUse">
<stop stop-color="#E7E7E7"/>
<stop offset="1" stop-color="#DEDEDE"/>
</linearGradient>
<linearGradient id="paint5_linear_270_7" x1="650.359" y1="260.521" x2="650.359" y2="322.521" gradientUnits="userSpaceOnUse">
<stop stop-color="#F14141"/>
<stop offset="1" stop-color="#F84848"/>
</linearGradient>
<linearGradient id="paint6_linear_270_7" x1="689.287" y1="274.396" x2="748.658" y2="336.396" gradientUnits="userSpaceOnUse">
<stop stop-color="#00FFFF"/>
<stop offset="1" stop-color="#A894FF"/>
</linearGradient>
</defs>
</svg>
