<svg xmlns="http://www.w3.org/2000/svg" xmlns:xlink="http://www.w3.org/1999/xlink" viewBox="0 0 500 702.48"><defs><style>.a,.l{fill:#fff;}.a{opacity:0.1;}.b{fill:#404040;}.c{fill:url(#a);}.d{fill:url(#b);}.e{fill:url(#c);}.f{fill:#f6f6f6;}.g{fill:#8aabff;}.h{fill:url(#d);}.i{fill:url(#e);}.j{fill:url(#f);}.k{fill:#ffc9fe;}.m{fill:none;stroke:#fff;stroke-miterlimit:10;stroke-width:6px;}</style><linearGradient id="a" x1="41.61" y1="108.29" x2="291.31" y2="108.29" gradientUnits="userSpaceOnUse"><stop offset="0" stop-color="#ff94ff"/><stop offset="1" stop-color="#74e8e8"/></linearGradient><linearGradient id="b" x1="41.61" y1="163.56" x2="291.31" y2="163.56" gradientUnits="userSpaceOnUse"><stop offset="0" stop-color="#9fdb8a"/><stop offset="1" stop-color="#ffe282"/></linearGradient><linearGradient id="c" x1="41.61" y1="218.83" x2="291.31" y2="218.83" gradientUnits="userSpaceOnUse"><stop offset="0" stop-color="#ff8794"/><stop offset="1" stop-color="#9bafff"/></linearGradient><linearGradient id="d" x1="41.61" y1="339.94" x2="291.31" y2="339.94" xlink:href="#a"/><linearGradient id="e" x1="41.61" y1="395.21" x2="291.31" y2="395.21" xlink:href="#b"/><linearGradient id="f" x1="41.61" y1="450.49" x2="291.31" y2="450.49" xlink:href="#c"/></defs><rect class="a" width="500" height="702.48" rx="14.59"/><rect class="b" x="314.61" y="93.94" width="139.23" height="139.23" rx="14.34"/><rect class="c" x="41.61" y="93.94" width="249.7" height="28.68" rx="14.34"/><rect class="d" x="41.61" y="149.22" width="249.7" height="28.68" rx="14.34"/><rect class="e" x="41.61" y="204.49" width="249.7" height="28.68" rx="14.34"/><path class="f" d="M43.38,61V40.6h8.15a7.56,7.56,0,0,1,5.07,1.47,4.73,4.73,0,0,1,1.7,3.75,4.06,4.06,0,0,1-1,2.91,5,5,0,0,1-2.63,1.47v.2a4.61,4.61,0,0,1,2.18.65,4.8,4.8,0,0,1,1.66,1.69,5.11,5.11,0,0,1,.63,2.6,5.26,5.26,0,0,1-.8,2.89,5.4,5.4,0,0,1-2.36,2,9.15,9.15,0,0,1-3.85.73Zm4.31-11.85h3.19a3.46,3.46,0,0,0,2.2-.69A2.28,2.28,0,0,0,54,46.54a2.23,2.23,0,0,0-.78-1.78A3.28,3.28,0,0,0,51,44.08H47.69Zm0,8.33H51.2a4.08,4.08,0,0,0,2.63-.7,2.31,2.31,0,0,0,.82-1.84,2.66,2.66,0,0,0-.9-2.07,3.54,3.54,0,0,0-2.46-.8h-3.6Z"/><path class="f" d="M66.16,61.26a5.67,5.67,0,0,1-3.63-1.15A4.79,4.79,0,0,1,61.9,54,4.59,4.59,0,0,1,64,52.59,11.85,11.85,0,0,1,66.83,52a23.78,23.78,0,0,0,2.84-.42c.57-.15.86-.47.86-1v-.06a1.85,1.85,0,0,0-.59-1.46,2.52,2.52,0,0,0-1.68-.51,3,3,0,0,0-1.82.49,2.28,2.28,0,0,0-.89,1.27L61.63,50a5.19,5.19,0,0,1,2.17-3.31,7.58,7.58,0,0,1,4.48-1.23,9.15,9.15,0,0,1,3.18.54,5.34,5.34,0,0,1,2.4,1.68,4.6,4.6,0,0,1,.91,2.95V61h-4V58.85h-.12A4.33,4.33,0,0,1,69,60.58,5.3,5.3,0,0,1,66.16,61.26Zm1.22-2.93a3.26,3.26,0,0,0,2.28-.81,2.6,2.6,0,0,0,.9-2V53.89a2.43,2.43,0,0,1-.77.29,11,11,0,0,1-1.12.23l-1,.16a4.24,4.24,0,0,0-1.8.63,1.55,1.55,0,0,0-.68,1.36,1.5,1.5,0,0,0,.63,1.32A2.71,2.71,0,0,0,67.38,58.33Z"/><path class="f" d="M85,61.27a7.8,7.8,0,0,1-4-1,6.68,6.68,0,0,1-2.59-2.78,9,9,0,0,1-.9-4.1,8.84,8.84,0,0,1,.91-4.12,6.75,6.75,0,0,1,2.59-2.78,7.73,7.73,0,0,1,4-1,8,8,0,0,1,3.51.73,5.75,5.75,0,0,1,2.37,2,6,6,0,0,1,1,3.08h-4a3.09,3.09,0,0,0-.89-1.84A2.57,2.57,0,0,0,85,48.79,2.84,2.84,0,0,0,82.64,50a5.5,5.5,0,0,0-.89,3.35,5.56,5.56,0,0,0,.89,3.39A2.81,2.81,0,0,0,85,57.91a2.68,2.68,0,0,0,1.84-.66,3,3,0,0,0,.93-1.88h4a6.18,6.18,0,0,1-1,3.08,5.67,5.67,0,0,1-2.34,2.07A7.75,7.75,0,0,1,85,61.27Z"/><path class="f" d="M94.51,61V40.6h4.23V51.49H99l4.9-5.8h4.86l-5.67,6.61L109,61h-5l-4.16-6.16-1.15,1.3V61Z"/><path class="f" d="M117,67a8.41,8.41,0,0,1-4.84-1.22,4.9,4.9,0,0,1-2.14-3l3.92-.53a2.63,2.63,0,0,0,1,1.22,3.73,3.73,0,0,0,2.15.52,3.69,3.69,0,0,0,2.28-.67,2.63,2.63,0,0,0,.91-2.24v-2.8h-.18A4.37,4.37,0,0,1,118.67,60a4.8,4.8,0,0,1-2.88.77,6.16,6.16,0,0,1-3.13-.81,5.64,5.64,0,0,1-2.24-2.45,9.36,9.36,0,0,1-.83-4.19,9.93,9.93,0,0,1,.85-4.34,6.17,6.17,0,0,1,2.26-2.6,5.76,5.76,0,0,1,3.08-.87,4.9,4.9,0,0,1,2.15.43,4.52,4.52,0,0,1,1.4,1.07,5.56,5.56,0,0,1,.82,1.27h.16V45.69h4.2V61.12a5.38,5.38,0,0,1-1,3.26,5.84,5.84,0,0,1-2.64,2A10.53,10.53,0,0,1,117,67Zm.09-9.44a2.77,2.77,0,0,0,2.37-1.14,5.17,5.17,0,0,0,.84-3.15,5.5,5.5,0,0,0-.83-3.21,2.74,2.74,0,0,0-2.38-1.21,2.68,2.68,0,0,0-2.39,1.24,5.6,5.6,0,0,0-.82,3.18,5.28,5.28,0,0,0,.83,3.13A2.74,2.74,0,0,0,117.13,57.57Z"/><path class="f" d="M127.89,61V45.69H132v2.67h.16a4,4,0,0,1,1.4-2.16,3.75,3.75,0,0,1,2.27-.73,5.71,5.71,0,0,1,1.33.15v3.76a4,4,0,0,0-.82-.16,6.91,6.91,0,0,0-1-.07,3.25,3.25,0,0,0-2.32.88,3,3,0,0,0-.92,2.29V61Z"/><path class="f" d="M145.53,61.27a7.79,7.79,0,0,1-4-1,6.75,6.75,0,0,1-2.6-2.77,9.83,9.83,0,0,1,0-8.26,6.69,6.69,0,0,1,2.6-2.77,8.6,8.6,0,0,1,8,0,6.69,6.69,0,0,1,2.6,2.77,9.83,9.83,0,0,1,0,8.26,6.75,6.75,0,0,1-2.6,2.77A7.76,7.76,0,0,1,145.53,61.27Zm0-3.29a2.62,2.62,0,0,0,2.38-1.31,7.19,7.19,0,0,0,0-6.63,2.63,2.63,0,0,0-2.38-1.32A2.66,2.66,0,0,0,143.13,50a7.11,7.11,0,0,0,0,6.63A2.65,2.65,0,0,0,145.55,58Z"/><path class="f" d="M165.61,54.46V45.69h4.23V61h-4.07V58.19h-.15a4.52,4.52,0,0,1-1.72,2.16,5.09,5.09,0,0,1-2.92.82,4.86,4.86,0,0,1-3.73-1.54,6,6,0,0,1-1.44-4.21V45.69h4.24v9a3.09,3.09,0,0,0,.72,2.14,2.49,2.49,0,0,0,1.92.79,3,3,0,0,0,2-.8A3,3,0,0,0,165.61,54.46Z"/><path class="f" d="M177.46,52.14V61h-4.24V45.69h4v2.7h.18a4.35,4.35,0,0,1,1.71-2.12,5.13,5.13,0,0,1,2.89-.78A5,5,0,0,1,185.86,47a5.87,5.87,0,0,1,1.45,4.21V61h-4.24V52a3.06,3.06,0,0,0-.72-2.2,2.6,2.6,0,0,0-2-.79,2.8,2.8,0,0,0-2.08.82A3.24,3.24,0,0,0,177.46,52.14Z"/><path class="f" d="M196.27,61.22a5.73,5.73,0,0,1-3.15-.9,6.2,6.2,0,0,1-2.22-2.66,10.1,10.1,0,0,1-.83-4.31,9.89,9.89,0,0,1,.85-4.37,6.11,6.11,0,0,1,2.26-2.62,5.74,5.74,0,0,1,3.08-.87,4.85,4.85,0,0,1,2.14.43A4.36,4.36,0,0,1,199.79,47a5.18,5.18,0,0,1,.81,1.27h.13V40.6H205V61h-4.18V58.52h-.18a5.16,5.16,0,0,1-.83,1.26,4.44,4.44,0,0,1-1.41,1A4.87,4.87,0,0,1,196.27,61.22Zm1.34-3.38A2.71,2.71,0,0,0,200,56.61a5.76,5.76,0,0,0,.84-3.28,5.7,5.7,0,0,0-.83-3.26,2.74,2.74,0,0,0-2.38-1.21,2.69,2.69,0,0,0-2.39,1.24,5.73,5.73,0,0,0-.82,3.23,5.86,5.86,0,0,0,.82,3.26A2.68,2.68,0,0,0,197.61,57.84Z"/><rect class="g" x="314.61" y="325.6" width="139.23" height="139.23" rx="14.34"/><rect class="h" x="41.61" y="325.6" width="249.7" height="28.68" rx="14.34"/><rect class="i" x="41.61" y="380.87" width="249.7" height="28.68" rx="14.34"/><rect class="j" x="41.61" y="436.14" width="249.7" height="28.68" rx="14.34"/><path class="f" d="M43.38,272.25h5.31l5.61,13.69h.24l5.61-13.69h5.31v20.37H61.28V279.36h-.17l-5.27,13.16H53l-5.28-13.21h-.16v13.31H43.38Z"/><path class="f" d="M75.88,292.92a8.12,8.12,0,0,1-4-1,6.49,6.49,0,0,1-2.61-2.73,9.87,9.87,0,0,1,0-8.32,6.77,6.77,0,0,1,2.58-2.77,7.5,7.5,0,0,1,3.91-1,7.74,7.74,0,0,1,3.65.86,6.29,6.29,0,0,1,2.58,2.58,8.91,8.91,0,0,1,1,4.32v1.17H72.49a3.76,3.76,0,0,0,.93,2.69,3.33,3.33,0,0,0,2.53,1,3.61,3.61,0,0,0,1.84-.45A2.41,2.41,0,0,0,78.88,288l3.92.26a5.37,5.37,0,0,1-2.27,3.41A8,8,0,0,1,75.88,292.92Zm-3.39-9.48H78.9a3.12,3.12,0,0,0-.87-2.25,3,3,0,0,0-2.25-.88,3.13,3.13,0,0,0-2.32.91A3.33,3.33,0,0,0,72.49,283.44Z"/><path class="f" d="M98.37,281.7l-3.88.24a2.23,2.23,0,0,0-.81-1.26,2.63,2.63,0,0,0-1.75-.53,3.19,3.19,0,0,0-1.66.41,1.24,1.24,0,0,0-.68,1.1,1.15,1.15,0,0,0,.44.92,3.32,3.32,0,0,0,1.5.61l2.77.56q4.41.9,4.41,4.14a4.13,4.13,0,0,1-.88,2.63,5.67,5.67,0,0,1-2.41,1.77,9.16,9.16,0,0,1-3.51.63,8.2,8.2,0,0,1-4.83-1.27,4.88,4.88,0,0,1-2.1-3.46l4.17-.21a2.15,2.15,0,0,0,.92,1.41,3.28,3.28,0,0,0,1.85.47,3.33,3.33,0,0,0,1.8-.43,1.34,1.34,0,0,0,.69-1.12c0-.75-.68-1.26-2-1.52l-2.65-.53c-3-.59-4.43-2-4.41-4.36a4,4,0,0,1,1.76-3.48,7.93,7.93,0,0,1,4.71-1.28,7.53,7.53,0,0,1,4.56,1.23A4.73,4.73,0,0,1,98.37,281.7Z"/><path class="f" d="M114.1,281.7l-3.88.24a2.21,2.21,0,0,0-.8-1.26,2.67,2.67,0,0,0-1.75-.53,3.2,3.2,0,0,0-1.67.41,1.21,1.21,0,0,0-.67,1.1,1.14,1.14,0,0,0,.43.92,3.43,3.43,0,0,0,1.51.61l2.76.56q4.41.9,4.42,4.14a4.19,4.19,0,0,1-.88,2.63,5.73,5.73,0,0,1-2.41,1.77,9.23,9.23,0,0,1-3.51.63,8.21,8.21,0,0,1-4.84-1.27,4.88,4.88,0,0,1-2.1-3.46l4.17-.21a2.15,2.15,0,0,0,.92,1.41,3.93,3.93,0,0,0,3.65,0,1.34,1.34,0,0,0,.69-1.12c0-.75-.67-1.26-2-1.52l-2.64-.53q-4.44-.88-4.42-4.36a4,4,0,0,1,1.77-3.48,7.89,7.89,0,0,1,4.71-1.28,7.57,7.57,0,0,1,4.56,1.23A4.72,4.72,0,0,1,114.1,281.7Z"/><path class="f" d="M121.48,292.91a5.61,5.61,0,0,1-3.63-1.15,4.81,4.81,0,0,1-.64-6.09,4.63,4.63,0,0,1,2.12-1.43,11.85,11.85,0,0,1,2.82-.59,20.45,20.45,0,0,0,2.84-.42.94.94,0,0,0,.85-1v-.06a1.84,1.84,0,0,0-.59-1.47,2.47,2.47,0,0,0-1.67-.51,3,3,0,0,0-1.82.49,2.42,2.42,0,0,0-.9,1.27l-3.92-.32a5.24,5.24,0,0,1,2.18-3.31,7.56,7.56,0,0,1,4.48-1.23,9.23,9.23,0,0,1,3.18.54,5.31,5.31,0,0,1,2.39,1.68,4.57,4.57,0,0,1,.91,3v10.3h-4V290.5h-.12a4.39,4.39,0,0,1-1.66,1.74A5.4,5.4,0,0,1,121.48,292.91Zm1.21-2.93a3.29,3.29,0,0,0,2.29-.81,2.59,2.59,0,0,0,.89-2v-1.62a2.55,2.55,0,0,1-.77.3c-.34.08-.72.16-1.11.22l-1.06.16a4.24,4.24,0,0,0-1.79.63,1.69,1.69,0,0,0,0,2.69A2.75,2.75,0,0,0,122.69,290Z"/><path class="f" d="M140.26,298.67a8.37,8.37,0,0,1-4.85-1.23,4.94,4.94,0,0,1-2.14-3l3.92-.53a2.58,2.58,0,0,0,1,1.22,4.46,4.46,0,0,0,4.44-.15,2.61,2.61,0,0,0,.9-2.24v-2.8h-.18a4.36,4.36,0,0,1-1.47,1.72,4.86,4.86,0,0,1-2.89.77,6.28,6.28,0,0,1-3.13-.8,5.7,5.7,0,0,1-2.23-2.46,9.22,9.22,0,0,1-.83-4.19,9.71,9.71,0,0,1,.85-4.33,6.18,6.18,0,0,1,2.25-2.61,5.76,5.76,0,0,1,3.08-.87,4.76,4.76,0,0,1,2.15.44,4.17,4.17,0,0,1,1.4,1.07,5.3,5.3,0,0,1,.82,1.26h.16v-2.57h4.2v15.43a5.36,5.36,0,0,1-1,3.26,5.77,5.77,0,0,1-2.64,2A10.31,10.31,0,0,1,140.26,298.67Zm.09-9.45a2.77,2.77,0,0,0,2.37-1.14,5.17,5.17,0,0,0,.84-3.15,5.5,5.5,0,0,0-.84-3.21,2.95,2.95,0,0,0-4.77,0,5.68,5.68,0,0,0-.82,3.18,5.26,5.26,0,0,0,.83,3.13A2.75,2.75,0,0,0,140.35,289.22Z"/><path class="f" d="M158.07,292.92a8.09,8.09,0,0,1-4-1,6.51,6.51,0,0,1-2.62-2.73,10,10,0,0,1,0-8.32,6.77,6.77,0,0,1,2.58-2.77,7.57,7.57,0,0,1,3.92-1,7.7,7.7,0,0,1,3.64.86,6.17,6.17,0,0,1,2.58,2.58,8.79,8.79,0,0,1,1,4.32v1.17h-10.4a3.76,3.76,0,0,0,.93,2.69,3.31,3.31,0,0,0,2.53,1,3.61,3.61,0,0,0,1.84-.45,2.45,2.45,0,0,0,1.09-1.33l3.92.26a5.37,5.37,0,0,1-2.27,3.41A8,8,0,0,1,158.07,292.92Zm-3.39-9.48h6.41a3.16,3.16,0,0,0-.87-2.25,3,3,0,0,0-2.25-.88,3.12,3.12,0,0,0-2.32.91A3.29,3.29,0,0,0,154.68,283.44Z"/><path class="f" d="M180.55,281.7l-3.88.24a2.16,2.16,0,0,0-.8-1.26,2.65,2.65,0,0,0-1.75-.53,3.23,3.23,0,0,0-1.67.41,1.24,1.24,0,0,0-.67,1.1,1.17,1.17,0,0,0,.43.92,3.43,3.43,0,0,0,1.51.61l2.77.56c2.93.6,4.41,2,4.41,4.14a4.13,4.13,0,0,1-.88,2.63,5.67,5.67,0,0,1-2.41,1.77,9.16,9.16,0,0,1-3.51.63,8.2,8.2,0,0,1-4.83-1.27,4.88,4.88,0,0,1-2.1-3.46l4.16-.21a2.19,2.19,0,0,0,.92,1.41,3.93,3.93,0,0,0,3.65,0,1.33,1.33,0,0,0,.7-1.12c0-.75-.68-1.26-2-1.52l-2.65-.53q-4.44-.88-4.41-4.36a4,4,0,0,1,1.76-3.48,7.89,7.89,0,0,1,4.71-1.28,7.53,7.53,0,0,1,4.56,1.23A4.68,4.68,0,0,1,180.55,281.7Z"/><rect class="k" x="45.65" y="530.82" width="139.23" height="139.23" rx="14.34"/><path class="f" d="M65,496.61H60.68A4,4,0,0,0,59.25,494a4.54,4.54,0,0,0-3-1,4.68,4.68,0,0,0-3.79,1.73,7.57,7.57,0,0,0-1.43,4.92,7.47,7.47,0,0,0,1.44,5,5.07,5.07,0,0,0,6.67.8,4,4,0,0,0,1.5-2.54l4.36,0a8,8,0,0,1-1.34,3.52,8.1,8.1,0,0,1-3,2.68,9.41,9.41,0,0,1-4.51,1,9.6,9.6,0,0,1-4.87-1.23A8.64,8.64,0,0,1,48,505.32,13.51,13.51,0,0,1,48,494a8.85,8.85,0,0,1,3.4-3.56,9.57,9.57,0,0,1,4.84-1.23,10.09,10.09,0,0,1,4.25.87,7.81,7.81,0,0,1,3.1,2.53A8.32,8.32,0,0,1,65,496.61Z"/><path class="f" d="M75,510.14a7.75,7.75,0,0,1-4-1,6.75,6.75,0,0,1-2.6-2.77,9.73,9.73,0,0,1,0-8.26,6.69,6.69,0,0,1,2.6-2.77,8.6,8.6,0,0,1,8,0,6.69,6.69,0,0,1,2.6,2.77,9.83,9.83,0,0,1,0,8.26,6.75,6.75,0,0,1-2.6,2.77A7.79,7.79,0,0,1,75,510.14Zm0-3.28a2.63,2.63,0,0,0,2.38-1.31,7.19,7.19,0,0,0,0-6.63,2.83,2.83,0,0,0-4.79,0,7.11,7.11,0,0,0,0,6.63A2.66,2.66,0,0,0,75,506.86Z"/><path class="f" d="M85.24,509.85V494.57h4.1v2.67h.16a4,4,0,0,1,1.4-2.16,3.78,3.78,0,0,1,2.27-.73,5.64,5.64,0,0,1,1.33.15v3.76a3.81,3.81,0,0,0-.82-.16,6.81,6.81,0,0,0-1-.07,3.27,3.27,0,0,0-2.32.88,3,3,0,0,0-.92,2.29v8.65Z"/><path class="f" d="M100.92,501v8.84H96.68V494.57h4v2.7h.18a4.33,4.33,0,0,1,1.7-2.12,5.18,5.18,0,0,1,2.89-.78,5,5,0,0,1,3.83,1.54,5.91,5.91,0,0,1,1.45,4.21v9.73h-4.24v-9a3.11,3.11,0,0,0-.72-2.2,2.6,2.6,0,0,0-2-.79,2.8,2.8,0,0,0-2.08.82A3.23,3.23,0,0,0,100.92,501Z"/><path class="f" d="M121.06,510.14a8.09,8.09,0,0,1-4-.95,6.49,6.49,0,0,1-2.61-2.73,9.87,9.87,0,0,1,0-8.32,6.64,6.64,0,0,1,2.58-2.77,7.41,7.41,0,0,1,3.91-1,7.7,7.7,0,0,1,3.64.86,6.17,6.17,0,0,1,2.58,2.58,8.79,8.79,0,0,1,1,4.32v1.16h-10.4a3.79,3.79,0,0,0,.93,2.7,3.34,3.34,0,0,0,2.53,1,3.61,3.61,0,0,0,1.84-.45,2.39,2.39,0,0,0,1.09-1.32l3.92.26a5.35,5.35,0,0,1-2.27,3.4A7.91,7.91,0,0,1,121.06,510.14Zm-3.39-9.47h6.41a3.16,3.16,0,0,0-.87-2.25,3,3,0,0,0-2.25-.89,3.13,3.13,0,0,0-2.32.92A3.29,3.29,0,0,0,117.67,500.67Z"/><path class="f" d="M130.83,509.85V494.57h4.11v2.67h.16a4,4,0,0,1,1.4-2.16,3.78,3.78,0,0,1,2.27-.73,5.64,5.64,0,0,1,1.33.15v3.76a4,4,0,0,0-.82-.16,6.91,6.91,0,0,0-1-.07,3.25,3.25,0,0,0-2.32.88,3,3,0,0,0-.92,2.29v8.65Z"/><path class="f" d="M155,498.93l-3.88.24a2.16,2.16,0,0,0-.8-1.27,2.7,2.7,0,0,0-1.75-.52,3.11,3.11,0,0,0-1.67.41,1.21,1.21,0,0,0-.67,1.1,1.14,1.14,0,0,0,.43.92,3.55,3.55,0,0,0,1.51.61l2.76.56q4.41.9,4.42,4.13a4.18,4.18,0,0,1-.88,2.64,5.8,5.8,0,0,1-2.41,1.76,9.16,9.16,0,0,1-3.51.63,8.29,8.29,0,0,1-4.84-1.26,4.88,4.88,0,0,1-2.1-3.46l4.17-.22a2.1,2.1,0,0,0,.92,1.41,3.29,3.29,0,0,0,1.86.48,3.19,3.19,0,0,0,1.79-.44,1.28,1.28,0,0,0,.69-1.11c0-.76-.67-1.26-2-1.52l-2.64-.53c-3-.59-4.43-2-4.42-4.37a4,4,0,0,1,1.77-3.48,8,8,0,0,1,4.71-1.27,7.59,7.59,0,0,1,4.56,1.22A4.72,4.72,0,0,1,155,498.93Z"/><path class="l" d="M313.31,576.1v29.73H307V582.07h-.17L300,586.34v-5.58l7.36-4.66Z"/><path class="l" d="M331.37,606.24a14.16,14.16,0,0,1-5.8-1.12,9.55,9.55,0,0,1-4-3.1,7.84,7.84,0,0,1-1.51-4.59h6.33a3.32,3.32,0,0,0,1.48,2.63,5.91,5.91,0,0,0,3.48,1,5.47,5.47,0,0,0,3.54-1.11,3.72,3.72,0,0,0-.11-5.82,6.36,6.36,0,0,0-4-1.14H328v-4.62h2.77a5.42,5.42,0,0,0,3.5-1.08,3.43,3.43,0,0,0,1.34-2.84,3.48,3.48,0,0,0-1.15-2.73,4.44,4.44,0,0,0-3.08-1,5.41,5.41,0,0,0-3.29,1,3.39,3.39,0,0,0-1.42,2.72h-6a7.76,7.76,0,0,1,1.47-4.54A9.55,9.55,0,0,1,326,576.8a12.93,12.93,0,0,1,5.46-1.1,12.32,12.32,0,0,1,5.39,1.11,8.86,8.86,0,0,1,3.59,3,7.27,7.27,0,0,1,1.27,4.24,5.8,5.8,0,0,1-1.54,4.17,7.14,7.14,0,0,1-4.06,2.12v.23a7.86,7.86,0,0,1,5,2.27,6.49,6.49,0,0,1,1.71,4.63,7.27,7.27,0,0,1-1.46,4.51,10,10,0,0,1-4.06,3.11A14.71,14.71,0,0,1,331.37,606.24Z"/><path class="l" d="M347.39,614.2V583.54h6.1v3.74h.28a8.18,8.18,0,0,1,1.19-1.84,6.13,6.13,0,0,1,2-1.56,6.94,6.94,0,0,1,3.12-.63,8.32,8.32,0,0,1,4.5,1.27,8.93,8.93,0,0,1,3.29,3.81,14.51,14.51,0,0,1,1.24,6.38,14.81,14.81,0,0,1-1.2,6.3,9,9,0,0,1-3.26,3.87,8.26,8.26,0,0,1-4.58,1.32,7.08,7.08,0,0,1-3.06-.6,6,6,0,0,1-2.05-1.5,8,8,0,0,1-1.22-1.84h-.19V614.2Zm6.06-19.51a8.45,8.45,0,0,0,1.22,4.78,4,4,0,0,0,3.47,1.81,3.92,3.92,0,0,0,3.48-1.84,8.54,8.54,0,0,0,1.21-4.75,8.41,8.41,0,0,0-1.2-4.72,4.29,4.29,0,0,0-7,0A8.19,8.19,0,0,0,353.45,594.69Z"/><path class="l" d="M377.59,583.54l4.09,7.79,4.2-7.79h6.34l-6.46,11.15,6.64,11.14h-6.32l-4.4-7.7-4.32,7.7H371l6.62-11.14-6.39-11.15Z"/><path class="m" d="M278.12,607.76l.05-17.94a13.55,13.55,0,0,0-13.56-13.6H246.35"/></svg>