<svg xmlns="http://www.w3.org/2000/svg" xmlns:xlink="http://www.w3.org/1999/xlink" viewBox="0 0 1920 987.752"><defs><style>.a{fill:#191919;}.b{fill:#6a6a6a;}.c{fill:none;stroke:#575756;stroke-miterlimit:10;stroke-width:2px;}.d{fill:#3c3c3b;}.e{fill:#a7a7a7;}.f{fill:#3fa8ff;}.g{fill:url(#a);}.h{fill:#787878;}.i{fill:url(#b);}.j{fill:#fd6671;}.k{fill:#ff8ac5;}.l{fill:#005c94;}.m{fill:url(#c);}.n{fill:#a5a5a5;}.o{fill:url(#d);}.p{fill:url(#e);}.q{fill:#1e1e1e;}.r{fill:#2d2d2d;}.s{fill:#363636;}.t{fill:#4d4d4d;}.u{fill:url(#f);}.v{fill:#977eff;}.w{fill:#3abf7e;}.x{fill:#f39f00;}.y{fill:#f84848;}.z{fill:url(#g);}.aa{fill:url(#h);}.ab{fill:#4dff99;}.ac{fill:url(#i);}.ad{fill:#5cabff;}.ae{fill:url(#j);}.af{fill:#c1ff71;}.ag{fill:#3498db;}.ah{fill:#838383;}.ai{fill:#ffcf94;}.aj{fill:#aaecff;}.ak{fill:#a894ff;}.al{fill:#666;}.am{fill:#ffa2b5;}.an{fill:#edaaff;}.ao{fill:#b1ffb7;}.ap{fill:#bebebe;}.aq{fill:#b1d0ff;}.ar{fill:#ffaab1;}.as{fill:#c8c8c8;}</style><linearGradient id="a" x1="417.664" y1="822.387" x2="454.674" y2="822.387" gradientUnits="userSpaceOnUse"><stop offset="0" stop-color="#b500b5"/><stop offset="1" stop-color="orange"/></linearGradient><linearGradient id="b" x1="397.054" y1="763.805" x2="436.169" y2="763.805" xlink:href="#a"/><linearGradient id="c" x1="397.054" y1="583.577" x2="436.169" y2="583.577" xlink:href="#a"/><linearGradient id="d" x1="397.16" y1="247.674" x2="436.275" y2="247.674" xlink:href="#a"/><linearGradient id="e" x1="398.656" y1="126.208" x2="437.771" y2="126.208" xlink:href="#a"/><linearGradient id="f" x1="194.082" y1="32.36" x2="194.082" y2="167.05" gradientUnits="userSpaceOnUse"><stop offset="0" stop-color="#232323"/><stop offset="1" stop-color="#171717"/></linearGradient><linearGradient id="g" x1="1730.145" y1="153.702" x2="1811" y2="153.702" xlink:href="#a"/><linearGradient id="h" x1="1730.145" y1="250.354" x2="1806.565" y2="250.354" gradientUnits="userSpaceOnUse"><stop offset="0" stop-color="#ff424f"/><stop offset="1" stop-color="#ad1457"/></linearGradient><linearGradient id="i" x1="1730.145" y1="299.963" x2="1871.522" y2="299.963" xlink:href="#h"/><linearGradient id="j" x1="1729.618" y1="349.572" x2="1842.565" y2="349.572" xlink:href="#h"/></defs><rect class="a" width="1920" height="987.752"/><rect class="b" x="340.935" y="837.028" width="40.989" height="40.989" rx="20.495"/><path class="c" d="M359.962,833.555v-8.608s.44-3.815,3.815-3.815H385.4"/><rect class="b" x="397.087" y="841.007" width="36.783" height="12.13" rx="6.065"/><rect class="d" x="441.304" y="843.941" width="75.978" height="7.696" rx="3.848"/><rect class="e" x="397.087" y="860.409" width="171.391" height="12.13" rx="6.065"/><rect class="e" x="397.087" y="881.343" width="234.196" height="12.13" rx="6.065"/><rect class="f" x="394.478" y="814.137" width="16.5" height="16.5" rx="8.25"/><rect class="g" x="417.664" y="817.887" width="37.01" height="9" rx="4.5"/><rect class="h" x="462.452" y="817.887" width="269.331" height="9" rx="4.5"/><rect class="f" x="340.902" y="753.762" width="40.989" height="40.989" rx="20.495"/><rect class="i" x="397.054" y="757.74" width="39.115" height="12.13" rx="6.065"/><rect class="d" x="441.272" y="760.675" width="75.978" height="7.696" rx="3.848"/><rect class="e" x="397.054" y="777.142" width="276.554" height="12.13" rx="6.065"/><rect class="j" x="681.027" y="777.142" width="276.554" height="12.13" rx="6.065"/><rect class="e" x="574.609" y="860.409" width="115.696" height="12.13" rx="6.065"/><rect class="k" x="340.935" y="694.838" width="40.989" height="40.989" rx="20.495"/><rect class="f" x="397.054" y="699.566" width="64.402" height="12.13" rx="6.065"/><rect class="d" x="470.033" y="702.501" width="75.978" height="7.696" rx="3.848"/><rect class="e" x="397.054" y="718.968" width="235.402" height="12.13" rx="6.065"/><rect class="e" x="642.255" y="718.968" width="117.701" height="12.13" rx="6.065"/><rect class="l" x="340.902" y="634.561" width="40.989" height="40.989" rx="20.495"/><rect class="b" x="397.054" y="638.539" width="44.217" height="12.13" rx="6.065"/><rect class="d" x="447.272" y="641.474" width="75.978" height="7.696" rx="3.848"/><rect class="e" x="397.054" y="657.941" width="155.511" height="12.13" rx="6.065"/><rect class="f" x="340.902" y="573.534" width="40.989" height="40.989" rx="20.495"/><rect class="m" x="397.054" y="577.512" width="39.115" height="12.13" rx="6.065"/><rect class="d" x="441.272" y="580.447" width="75.978" height="7.696" rx="3.848"/><rect class="e" x="397.054" y="596.914" width="170.641" height="12.13" rx="6.065"/><rect class="e" x="573.94" y="596.914" width="102" height="12.13" rx="6.065"/><path class="c" d="M359.962,569.295v-8.609s.44-3.815,3.815-3.815H385.4"/><rect class="b" x="394.853" y="549.876" width="16.5" height="16.5" rx="8.25"/><rect class="b" x="418.039" y="553.626" width="37.01" height="9" rx="4.5"/><rect class="h" x="462.827" y="553.626" width="225.978" height="9" rx="4.5"/><path class="c" d="M359.962,548.2v-8.609s.44-3.815,3.815-3.815H385.4"/><rect class="n" x="394.853" y="528.778" width="16.5" height="16.5" rx="8.25"/><rect class="b" x="418.039" y="532.528" width="51.993" height="9" rx="4.5"/><rect class="h" x="479.261" y="532.528" width="169.63" height="9" rx="4.5"/><rect class="l" x="341.44" y="469.92" width="40.989" height="40.989" rx="20.495"/><rect class="b" x="397.592" y="473.898" width="44.217" height="12.13" rx="6.065"/><rect class="d" x="447.81" y="476.833" width="75.978" height="7.696" rx="3.848"/><rect class="e" x="397.592" y="493.3" width="209.625" height="12.13" rx="6.065"/><rect class="k" x="341.44" y="406.46" width="40.989" height="40.989" rx="20.495"/><rect class="f" x="397.56" y="411.189" width="64.402" height="12.13" rx="6.065"/><rect class="d" x="470.538" y="414.123" width="75.978" height="7.696" rx="3.848"/><rect class="e" x="397.56" y="430.591" width="65.267" height="12.13" rx="6.065"/><rect class="b" x="341.44" y="345.795" width="40.989" height="40.989" rx="20.495"/><rect class="b" x="397.592" y="349.773" width="44.217" height="12.13" rx="6.065"/><rect class="d" x="447.81" y="352.708" width="75.978" height="7.696" rx="3.848"/><rect class="e" x="397.592" y="369.175" width="249.538" height="12.13" rx="6.065"/><rect class="f" x="341.008" y="237.63" width="40.989" height="40.989" rx="20.495"/><rect class="o" x="397.16" y="241.608" width="39.115" height="12.13" rx="6.065"/><rect class="d" x="441.378" y="244.543" width="75.978" height="7.696" rx="3.848"/><rect class="e" x="397.16" y="261.011" width="190.492" height="12.13" rx="6.065"/><rect class="e" x="396.81" y="286.054" width="170.992" height="12.13" rx="6.065"/><rect class="e" x="396.81" y="311.098" width="268.321" height="12.13" rx="6.065"/><rect class="e" x="673.992" y="311.098" width="166.834" height="12.13" rx="6.065"/><rect class="f" x="342.504" y="116.164" width="40.989" height="40.989" rx="20.495"/><rect class="p" x="398.656" y="120.142" width="39.115" height="12.13" rx="6.065"/><rect class="d" x="442.874" y="123.077" width="75.978" height="7.696" rx="3.848"/><rect class="e" x="398.656" y="139.545" width="83.649" height="12.13" rx="6.065"/><rect class="j" x="488.298" y="139.545" width="158.833" height="12.13" rx="6.065"/><rect class="e" x="652.751" y="139.545" width="61.553" height="12.13" rx="6.065"/><rect class="n" x="341.008" y="178.886" width="40.989" height="40.989" rx="20.495"/><rect class="b" x="397.16" y="182.865" width="39.115" height="12.13" rx="6.065"/><rect class="d" x="441.378" y="185.799" width="75.978" height="7.696" rx="3.848"/><rect class="e" x="397.16" y="202.267" width="24.448" height="12.13" rx="6.065"/><rect class="q" x="63.077" y="32.36" width="262.01" height="955.392"/><rect class="r" x="325.087" y="32.36" width="1594.913" height="53.299"/><rect class="q" x="1657.87" y="85.659" width="262.13" height="902.093"/><rect class="s" x="325.087" y="933.485" width="1332.783" height="54.267"/><rect class="a" y="32.36" width="63.077" height="955.392"/><rect class="t" y="91.887" width="63.077" height="1.239"/><rect class="u" x="63.077" y="32.36" width="262.01" height="134.69"/><rect class="j" x="7.278" y="32.36" width="48.522" height="48.522" rx="24.261"/><rect class="v" x="7.278" y="106.577" width="48.522" height="48.522" rx="24.261"/><rect class="w" x="7.278" y="171.833" width="48.522" height="48.522" rx="24.261"/><rect class="x" x="7.278" y="237.088" width="48.522" height="48.522" rx="24.261"/><rect class="y" x="7.278" y="302.344" width="48.522" height="48.522" rx="24.261"/><rect class="b" x="72.565" y="136.659" width="161.217" height="18.783" rx="9.391"/><rect class="b" x="285.435" y="39.746" width="30.913" height="30.913" rx="15.457"/><rect class="b" x="128.604" y="191.423" width="126.57" height="18.783" rx="9.391"/><rect class="b" x="78.587" y="186.691" width="28.246" height="28.246" rx="14.123"/><rect class="b" x="128.604" y="240.889" width="90.635" height="18.783" rx="9.391"/><rect class="b" x="129.126" y="290.354" width="171.766" height="18.783" rx="9.391"/><rect class="z" x="1730.145" y="144.311" width="80.855" height="18.783" rx="9.391"/><rect class="f" x="1675.878" y="135.329" width="36.746" height="36.746" rx="18.373"/><rect class="b" x="1675.878" y="103.528" width="127.032" height="12.913" rx="6.457"/><rect class="aa" x="1730.145" y="240.963" width="76.421" height="18.783" rx="9.391"/><rect class="ab" x="1675.878" y="231.981" width="36.746" height="36.746" rx="18.373"/><rect class="b" x="1675.878" y="200.18" width="127.032" height="12.913" rx="6.457"/><rect class="ac" x="1730.145" y="290.572" width="141.377" height="18.783" rx="9.391"/><rect class="ad" x="1675.878" y="281.59" width="36.746" height="36.746" rx="18.373"/><rect class="ae" x="1729.618" y="340.18" width="112.948" height="18.783" rx="9.391"/><rect class="af" x="1675.351" y="331.199" width="36.746" height="36.746" rx="18.373"/><rect class="ag" x="1730.145" y="438.304" width="101.986" height="18.783" rx="9.391"/><rect class="ah" x="1675.878" y="429.322" width="36.746" height="36.746" rx="18.373"/><rect class="b" x="1675.878" y="397.521" width="127.032" height="12.913" rx="6.457"/><rect class="ag" x="1730.145" y="487.912" width="141.377" height="18.783" rx="9.391"/><rect class="ai" x="1675.878" y="478.93" width="36.746" height="36.746" rx="18.373"/><rect class="ag" x="1729.618" y="537.521" width="131.209" height="18.783" rx="9.391"/><rect class="aj" x="1675.351" y="528.539" width="36.746" height="36.746" rx="18.373"/><rect class="ag" x="1729.618" y="587.13" width="51.52" height="18.783" rx="9.391"/><rect class="ak" x="1675.351" y="578.148" width="36.746" height="36.746" rx="18.373"/><rect class="ag" x="1729.618" y="636.738" width="141.904" height="18.783" rx="9.391"/><rect class="al" x="1675.351" y="627.757" width="36.746" height="36.746" rx="18.373"/><rect class="ag" x="1730.145" y="686.347" width="107.203" height="18.783" rx="9.391"/><rect class="am" x="1675.878" y="677.365" width="36.746" height="36.746" rx="18.373"/><rect class="b" x="1730.145" y="787.45" width="127.032" height="18.783" rx="9.391"/><rect class="an" x="1675.878" y="778.468" width="36.746" height="36.746" rx="18.373"/><rect class="b" x="1675.878" y="746.668" width="127.032" height="12.913" rx="6.457"/><rect class="b" x="1730.145" y="837.059" width="127.032" height="18.783" rx="9.391"/><rect class="ao" x="1675.878" y="828.077" width="36.746" height="36.746" rx="18.373"/><rect class="b" x="1729.618" y="886.668" width="127.032" height="18.783" rx="9.391"/><rect class="ap" x="1675.351" y="877.686" width="36.746" height="36.746" rx="18.373"/><rect class="b" x="1730.145" y="936.276" width="127.032" height="18.783" rx="9.391"/><rect class="aq" x="1675.878" y="927.295" width="36.746" height="36.746" rx="18.373"/><path class="b" d="M1852.861,987.752a9.34,9.34,0,0,0-5.6-1.867H1739.009a9.34,9.34,0,0,0-5.6,1.867Z"/><path class="ar" d="M1710.474,987.752a18.355,18.355,0,0,0-33.5,0Z"/><rect class="b" x="396.81" y="51.959" width="128.941" height="14.1" rx="7.05"/><rect class="b" x="347.156" y="45.217" width="27.585" height="27.585" rx="13.792"/><rect class="b" x="1876.316" y="45.217" width="27.585" height="27.585" rx="13.792"/><rect class="b" x="1834.468" y="45.217" width="27.585" height="27.585" rx="13.792"/><rect class="b" x="1793.055" y="45.217" width="27.585" height="27.585" rx="13.792"/><rect class="b" x="1612.099" y="946.826" width="27.585" height="27.585" rx="13.792"/><rect class="b" x="340.935" y="946.826" width="27.585" height="27.585" rx="13.792"/><rect class="b" x="78.587" y="236.157" width="28.246" height="28.246" rx="14.123"/><rect class="b" x="78.587" y="285.623" width="28.246" height="28.246" rx="14.123"/><path class="as" d="M18.289,14.371c0,.808-.44,1.293-1.381,1.293H15.351V13.107h1.558C17.849,13.107,18.289,13.606,18.289,14.371Zm-6.957-3.35,1.507,2.091v8.221h2.513V17.441h.6L18.1,21.334h2.836l-2.38-4.084a3,3,0,0,0,2.291-2.982c0-1.793-1.263-3.247-3.79-3.247Zm17.4,0H22.418V21.333h6.317V19.321h-3.8V17.06H28.3V15.12H24.93V13.109h3.805Zm6.082,7.786-2.556-7.786H29.587l3.659,10.312H36.39l3.658-10.312H37.389Zm16.426-2.659a5.29,5.29,0,0,0-10.58,0,5.188,5.188,0,0,0,5.087,5.289c.073,0,.146,0,.218,0a5.164,5.164,0,0,0,5.274-5.052q0-.119,0-.237Zm-8.007,0a2.737,2.737,0,1,1,5.45,0,2.738,2.738,0,1,1-5.451,0Zm9.4-5.127V21.333h5.8V19.319H55.151v-8.3Zm6.449,2.087h2.733v8.225h2.512V13.107h2.733V11.02H59.088Z"/></svg>