<?xml version="1.0" encoding="UTF-8"?>
<svg version="1.1" viewBox="0 0 500 721.5" xmlns="http://www.w3.org/2000/svg" xmlns:xlink="http://www.w3.org/1999/xlink"><defs><style>.a{fill:url(#a);}.b{fill:url(#b);}.c,.g{fill:#fff;}.c{opacity:0.1;}.d{fill:#b4b6ff;}.e{fill:url(#c);}.f{opacity:0.51;}.h{fill:#aaffbf;}.i{fill:url(#h);}.j{fill:#ffb4c9;}.k{fill:url(#n);}.l{fill:#edffaa;}.m{fill:url(#r);}.n{fill:#94beff;}.o{mask:url(#x);}.p{fill:#ffb57f;}.q{mask:url(#y);}.r{fill:url(#z);}</style><linearGradient id="a" x1="61.55" x2="61.55" y1="639.35" y2="689.83" gradientUnits="userSpaceOnUse"><stop stop-color="#fff" offset="0"/><stop offset="1"/></linearGradient><linearGradient id="b" x1="264.46" x2="264.46" y1="659.62" y2="690.29" xlink:href="#a"/><linearGradient id="c" x1="130.86" x2="217.61" y1="116.25" y2="116.25" gradientUnits="userSpaceOnUse"><stop stop-color="#3facff" offset="0"/><stop stop-color="#00e9a5" offset="1"/></linearGradient><linearGradient id="h" x1="131.35" x2="231.76" y1="253.17" y2="253.17" gradientUnits="userSpaceOnUse"><stop stop-color="#ff4f15" offset="0"/><stop stop-color="#ff2a59" offset=".01"/></linearGradient><linearGradient id="n" x1="130.86" x2="200.73" y1="347.73" y2="347.73" xlink:href="#h"/><linearGradient id="r" x1="132.06" x2="225.66" y1="443.96" y2="443.96" xlink:href="#h"/><mask id="x" x="12.21" y="638.24" width="97.8" height="83.26" maskUnits="userSpaceOnUse"><g transform="translate(-.44 -1.11)"><rect class="a" x="12.65" y="639.35" width="97.8" height="50.48"/></g></mask><mask id="y" x="127.65" y="658.51" width="272.74" height="33.29" maskUnits="userSpaceOnUse"><g transform="translate(-.44 -1.11)"><rect class="b" x="128.09" y="659.62" width="272.74" height="30.68"/></g></mask><linearGradient id="z" x1="156.44" x2="156.44" y1="670.58" y2="692.91" gradientUnits="userSpaceOnUse"><stop stop-color="#fff" offset="0"/><stop stop-color="#fff" offset="1"/></linearGradient></defs><rect class="c" width="500" height="720.65" rx="14.32" stroke-width="1.0154"/><rect class="d" x="31.92" y="77.91" width="78.08" height="78.08" rx="39.04"/><path class="e" transform="translate(-.44 -1.11)" d="M140.88,105.08h4.6v15.35a7,7,0,0,1-.95,3.7,6.41,6.41,0,0,1-2.64,2.41,8.59,8.59,0,0,1-3.93.86,8.93,8.93,0,0,1-3.6-.71,5.76,5.76,0,0,1-2.57-2.15,6.4,6.4,0,0,1-.93-3.63h4.63a2.81,2.81,0,0,0,.76,2,2.63,2.63,0,0,0,1.95.73c1.77,0,2.66-1.08,2.68-3.24Z"/><path class="e" transform="translate(-.44 -1.11)" d="M153.94,127.41a6.07,6.07,0,0,1-3.92-1.24,4.4,4.4,0,0,1-1.56-3.68,4.45,4.45,0,0,1,.87-2.91,5.06,5.06,0,0,1,2.28-1.54,12.79,12.79,0,0,1,3-.64,22.75,22.75,0,0,0,3.08-.45c.61-.16.92-.5.92-1v-.07a2,2,0,0,0-.64-1.58,2.69,2.69,0,0,0-1.81-.56,3.24,3.24,0,0,0-2,.54,2.51,2.51,0,0,0-1,1.37l-4.23-.35a5.64,5.64,0,0,1,2.35-3.58,8.22,8.22,0,0,1,4.84-1.32,9.94,9.94,0,0,1,3.44.58,5.77,5.77,0,0,1,2.59,1.81,5,5,0,0,1,1,3.2V127.1H158.9v-2.29h-.13a4.68,4.68,0,0,1-1.8,1.87A5.71,5.71,0,0,1,153.94,127.41Zm1.31-3.16a3.49,3.49,0,0,0,2.47-.88,2.79,2.79,0,0,0,1-2.17v-1.76a2.58,2.58,0,0,1-.83.33c-.38.09-.78.17-1.21.24l-1.14.18a4.57,4.57,0,0,0-1.94.67,1.69,1.69,0,0,0-.74,1.48,1.64,1.64,0,0,0,.69,1.43A2.92,2.92,0,0,0,155.25,124.25Z"/><path class="e" transform="translate(-.44 -1.11)" d="M180.54,115.29l-4.2.26a2.33,2.33,0,0,0-.87-1.36,2.88,2.88,0,0,0-1.89-.57,3.48,3.48,0,0,0-1.8.44,1.32,1.32,0,0,0-.72,1.19,1.21,1.21,0,0,0,.46,1,3.89,3.89,0,0,0,1.63.66l3,.6q4.77,1,4.77,4.47a4.49,4.49,0,0,1-.95,2.85,6.17,6.17,0,0,1-2.61,1.91,9.93,9.93,0,0,1-3.79.68,8.9,8.9,0,0,1-5.22-1.37,5.23,5.23,0,0,1-2.27-3.74l4.5-.23a2.3,2.3,0,0,0,1,1.52,3.5,3.5,0,0,0,2,.52,3.59,3.59,0,0,0,1.94-.47,1.45,1.45,0,0,0,.75-1.21c0-.81-.73-1.36-2.12-1.64l-2.86-.57q-4.8-1-4.77-4.72a4.34,4.34,0,0,1,1.91-3.76,8.52,8.52,0,0,1,5.09-1.38,8.22,8.22,0,0,1,4.93,1.32A5.1,5.1,0,0,1,180.54,115.29Z"/><path class="e" transform="translate(-.44 -1.11)" d="m191.27 127.42a8.43 8.43 0 0 1-4.33-1.07 7.18 7.18 0 0 1-2.81-3 10.56 10.56 0 0 1 0-8.93 7.18 7.18 0 0 1 2.81-3 9.28 9.28 0 0 1 8.65 0 7.12 7.12 0 0 1 2.81 3 10.56 10.56 0 0 1 0 8.93 7.12 7.12 0 0 1-2.81 3 8.39 8.39 0 0 1-4.32 1.07zm0-3.55a2.82 2.82 0 0 0 2.57-1.42 7.72 7.72 0 0 0 0-7.16 2.83 2.83 0 0 0-2.57-1.43 2.86 2.86 0 0 0-2.61 1.43 7.65 7.65 0 0 0 0 7.16 2.86 2.86 0 0 0 2.63 1.42z"/><path class="e" transform="translate(-.44 -1.11)" d="M207,117.55v9.55h-4.58V110.59h4.37v2.91h.19a4.77,4.77,0,0,1,1.84-2.29,5.6,5.6,0,0,1,3.13-.84,5.4,5.4,0,0,1,4.14,1.66,6.4,6.4,0,0,1,1.56,4.55V127.1H213v-9.7a3.39,3.39,0,0,0-.78-2.37,2.77,2.77,0,0,0-2.16-.85,3,3,0,0,0-2.25.88A3.45,3.45,0,0,0,207,117.55Z"/><g class="f"><path class="g" transform="translate(-.44 -1.11)" d="M36.16,57.85H32.84L37.9,43.21h4l5,14.64H43.62l-1.09-3.33H37.25ZM38,52.1h3.72L40,46.56h-.11Z"/><path class="g" transform="translate(-.44 -1.11)" d="M52.17,58a4.11,4.11,0,0,1-2.26-.64,4.48,4.48,0,0,1-1.6-1.91,8.44,8.44,0,0,1,0-6.25A4.5,4.5,0,0,1,50,47.35a4.19,4.19,0,0,1,2.21-.62,3.43,3.43,0,0,1,1.55.31,3.14,3.14,0,0,1,1,.77,3.85,3.85,0,0,1,.58.91h.09V43.21h3V57.85h-3V56.1h-.13a3.92,3.92,0,0,1-.6.9,3.11,3.11,0,0,1-1,.74A3.48,3.48,0,0,1,52.17,58Zm1-2.42a1.94,1.94,0,0,0,1.7-.89,4.87,4.87,0,0,0,0-4.7,2,2,0,0,0-1.71-.87,1.93,1.93,0,0,0-1.72.89,4.1,4.1,0,0,0-.59,2.32,4.2,4.2,0,0,0,.59,2.35A1.94,1.94,0,0,0,53.14,55.61Z"/><path class="g" transform="translate(-.44 -1.11)" d="M60.92,57.85v-11h2.9v1.94H64a3,3,0,0,1,1.15-1.53,3.58,3.58,0,0,1,3.83,0A2.68,2.68,0,0,1,70,48.81h.11a3,3,0,0,1,1.22-1.51,3.79,3.79,0,0,1,2.1-.57,3.31,3.31,0,0,1,2.49,1,3.73,3.73,0,0,1,1,2.76v7.38h-3V51.07a1.8,1.8,0,0,0-.49-1.37,1.68,1.68,0,0,0-1.22-.46,1.64,1.64,0,0,0-1.29.53,2,2,0,0,0-.46,1.38v6.7h-3V51A1.76,1.76,0,0,0,67,49.72a1.6,1.6,0,0,0-1.21-.48,1.64,1.64,0,0,0-1.27.55A2,2,0,0,0,64,51.26v6.59Z"/><path class="g" transform="translate(-.44 -1.11)" d="M80.81,45.46A1.65,1.65,0,0,1,79.65,45a1.44,1.44,0,0,1-.49-1.09,1.46,1.46,0,0,1,.49-1.09,1.72,1.72,0,0,1,2.32,0,1.42,1.42,0,0,1,.49,1.09A1.41,1.41,0,0,1,82,45,1.65,1.65,0,0,1,80.81,45.46ZM79.28,57.85v-11h3v11Z"/><path class="g" transform="translate(-.44 -1.11)" d="M87.8,51.51v6.34h-3v-11h2.9v1.94h.13A3,3,0,0,1,89,47.29a3.76,3.76,0,0,1,2.08-.56,3.61,3.61,0,0,1,2.75,1.1,4.27,4.27,0,0,1,1,3v7h-3V51.41a2.18,2.18,0,0,0-.51-1.58,1.86,1.86,0,0,0-1.44-.57,2,2,0,0,0-1.5.59A2.32,2.32,0,0,0,87.8,51.51Z"/><path class="g" transform="translate(-.44 -1.11)" d="m114.46 50.63v2.42h-13.73v-2.42z"/><path class="g" transform="translate(-.44 -1.11)" d="M126.69,43.21V57.85h-3.1V46.15h-.09l-3.35,2.1V45.51l3.63-2.3Z"/></g><rect class="h" x="31.92" y="212.52" width="78.08" height="78.08" rx="39.04"/><path class="i" transform="translate(-.44 -1.11)" d="M144,246a2.71,2.71,0,0,0-1.12-2,4.36,4.36,0,0,0-2.65-.72,4.21,4.21,0,0,0-2.62.7,2.13,2.13,0,0,0-.91,1.76,1.89,1.89,0,0,0,1,1.79,8.77,8.77,0,0,0,2.47.94l2,.48a12.88,12.88,0,0,1,3.4,1.24,6.6,6.6,0,0,1,2.35,2.11,5.55,5.55,0,0,1,.85,3.12,5.86,5.86,0,0,1-2.26,4.81,9.89,9.89,0,0,1-6.29,1.79,10.23,10.23,0,0,1-6.39-1.83,6.59,6.59,0,0,1-2.48-5.4h4.51a3.12,3.12,0,0,0,1.3,2.49,5.12,5.12,0,0,0,3,.84,4.72,4.72,0,0,0,2.83-.76,2.32,2.32,0,0,0,1.07-2,1.93,1.93,0,0,0-1-1.72,9.3,9.3,0,0,0-2.76-1l-2.4-.61a9.9,9.9,0,0,1-4.39-2.11,5,5,0,0,1-1.61-3.89,5.78,5.78,0,0,1,1.07-3.49,7.1,7.1,0,0,1,3-2.34,10.64,10.64,0,0,1,4.3-.83,10.18,10.18,0,0,1,4.28.84,6.83,6.83,0,0,1,2.86,2.33,6.17,6.17,0,0,1,1.05,3.46Z"/><path class="i" transform="translate(-.44 -1.11)" d="m159.26 262a8.39 8.39 0 0 1-4.32-1.07 7.2 7.2 0 0 1-2.82-3 10.56 10.56 0 0 1 0-8.93 7.2 7.2 0 0 1 2.82-3 9.28 9.28 0 0 1 8.65 0 7.24 7.24 0 0 1 2.81 3 10.56 10.56 0 0 1 0 8.93 7.24 7.24 0 0 1-2.81 3 8.45 8.45 0 0 1-4.33 1.07zm0-3.55a2.84 2.84 0 0 0 2.58-1.42 7.8 7.8 0 0 0 0-7.16 2.85 2.85 0 0 0-2.58-1.43 2.89 2.89 0 0 0-2.61 1.43 7.72 7.72 0 0 0 0 7.16 2.88 2.88 0 0 0 2.63 1.45z"/><path class="i" transform="translate(-.44 -1.11)" d="M170.38,267.9V245.19h4.51V248h.21a6.43,6.43,0,0,1,.88-1.37,4.54,4.54,0,0,1,1.5-1.15,5.21,5.21,0,0,1,2.32-.47,6.16,6.16,0,0,1,3.33.94,6.62,6.62,0,0,1,2.43,2.83,10.65,10.65,0,0,1,.92,4.72,10.82,10.82,0,0,1-.89,4.66,6.62,6.62,0,0,1-2.41,2.87,6.14,6.14,0,0,1-3.39,1,5.34,5.34,0,0,1-2.27-.44,4.62,4.62,0,0,1-1.51-1.12,5.58,5.58,0,0,1-.91-1.36H175v8.84Zm4.48-14.45a6.15,6.15,0,0,0,.91,3.54,3.12,3.12,0,0,0,5.14,0,7.31,7.31,0,0,0,0-7,2.91,2.91,0,0,0-2.59-1.34,3,3,0,0,0-2.57,1.31A6.1,6.1,0,0,0,174.86,253.45Z"/><path class="i" transform="translate(-.44 -1.11)" d="M194.11,252.16v9.55h-4.58v-22H194v8.42h.19a4.77,4.77,0,0,1,1.81-2.3,5.53,5.53,0,0,1,3.12-.83,5.45,5.45,0,0,1,4.15,1.65,6.32,6.32,0,0,1,1.56,4.56v10.52h-4.58V252a3.35,3.35,0,0,0-.77-2.38,2.81,2.81,0,0,0-2.17-.84,3.11,3.11,0,0,0-2.29.88A3.37,3.37,0,0,0,194.11,252.16Z"/><path class="i" transform="translate(-.44 -1.11)" d="m210.73 243.07a2.46 2.46 0 0 1-1.75-0.69 2.2 2.2 0 0 1 0-3.27 2.59 2.59 0 0 1 3.5 0 2.2 2.2 0 0 1 0 3.27 2.46 2.46 0 0 1-1.75 0.69zm-2.31 18.64v-16.52h4.58v16.52z"/><path class="i" transform="translate(-.44 -1.11)" d="M224.19,262a8.76,8.76,0,0,1-4.38-1,7,7,0,0,1-2.83-2.94,10.72,10.72,0,0,1,0-9,7.35,7.35,0,0,1,2.79-3A8.16,8.16,0,0,1,224,245a8.39,8.39,0,0,1,3.94.92,6.82,6.82,0,0,1,2.79,2.79,9.55,9.55,0,0,1,1,4.67v1.26H220.52a4.08,4.08,0,0,0,1,2.92,3.57,3.57,0,0,0,2.73,1.06,3.94,3.94,0,0,0,2-.48,2.62,2.62,0,0,0,1.18-1.43l4.24.28a5.78,5.78,0,0,1-2.45,3.67A8.58,8.58,0,0,1,224.19,262Zm-3.67-10.25h6.93a3.36,3.36,0,0,0-.94-2.43,3.29,3.29,0,0,0-2.43-.95,3.38,3.38,0,0,0-2.51,1A3.58,3.58,0,0,0,220.52,251.78Z"/><g class="f"><path class="g" transform="translate(-.44 -1.11)" d="M33.64,177.82h3.82l4,9.84h.17l4-9.84h3.82v14.64h-3v-9.53h-.12l-3.79,9.46H40.55l-3.79-9.49h-.12v9.56h-3Z"/><path class="g" transform="translate(-.44 -1.11)" d="M57,192.68a5.64,5.64,0,0,1-2.88-.71,4.92,4.92,0,0,1-1.87-2,7.11,7.11,0,0,1,0-5.94,4.85,4.85,0,0,1,1.87-2,6.2,6.2,0,0,1,5.76,0,4.79,4.79,0,0,1,1.87,2,7,7,0,0,1,0,5.94,4.85,4.85,0,0,1-1.87,2A5.64,5.64,0,0,1,57,192.68Zm0-2.36a1.89,1.89,0,0,0,1.71-.95,4.42,4.42,0,0,0,.58-2.38,4.47,4.47,0,0,0-.58-2.38,1.89,1.89,0,0,0-1.71-1,1.92,1.92,0,0,0-1.74,1,4.47,4.47,0,0,0-.59,2.38,4.42,4.42,0,0,0,.59,2.38A1.92,1.92,0,0,0,57,190.32Z"/><path class="g" transform="translate(-.44 -1.11)" d="M68.4,192.64a4.13,4.13,0,0,1-2.26-.64,4.54,4.54,0,0,1-1.6-1.91A7.39,7.39,0,0,1,64,187a7.16,7.16,0,0,1,.61-3.15A4.5,4.5,0,0,1,66.18,182a4.2,4.2,0,0,1,2.22-.62,3.41,3.41,0,0,1,1.54.31,3.14,3.14,0,0,1,1,.77,3.66,3.66,0,0,1,.58.91h.09v-5.51h3v14.64h-3V190.7h-.13a3.76,3.76,0,0,1-.6.91,3.11,3.11,0,0,1-1,.74A3.6,3.6,0,0,1,68.4,192.64Zm1-2.42a1.94,1.94,0,0,0,1.7-.89,4.87,4.87,0,0,0,0-4.7,2,2,0,0,0-1.71-.87,1.93,1.93,0,0,0-1.72.89,4.18,4.18,0,0,0-.59,2.32,4.23,4.23,0,0,0,.59,2.34A1.93,1.93,0,0,0,69.37,190.22Z"/><path class="g" transform="translate(-.44 -1.11)" d="M82.15,192.68a5.85,5.85,0,0,1-2.91-.69,4.68,4.68,0,0,1-1.88-2,6.46,6.46,0,0,1-.66-3,6.37,6.37,0,0,1,.66-3,4.86,4.86,0,0,1,1.86-2,5.43,5.43,0,0,1,2.81-.71,5.53,5.53,0,0,1,2.62.61,4.5,4.5,0,0,1,1.86,1.86,6.29,6.29,0,0,1,.68,3.1v.84H79.71a2.71,2.71,0,0,0,.68,1.94,2.37,2.37,0,0,0,1.81.7,2.59,2.59,0,0,0,1.33-.32,1.72,1.72,0,0,0,.78-1l2.82.19a3.84,3.84,0,0,1-1.63,2.44A5.71,5.71,0,0,1,82.15,192.68Zm-2.44-6.82h4.62a2.27,2.27,0,0,0-.63-1.61,2.16,2.16,0,0,0-1.62-.64,2.21,2.21,0,0,0-1.66.66A2.39,2.39,0,0,0,79.71,185.86Z"/><path class="g" transform="translate(-.44 -1.11)" d="M89.18,192.46v-11h3v1.92h.11a2.84,2.84,0,0,1,1-1.55,2.65,2.65,0,0,1,1.63-.53,4.21,4.21,0,0,1,1,.11v2.7a4.11,4.11,0,0,0-.6-.11,4.31,4.31,0,0,0-.69-.05,2.33,2.33,0,0,0-1.67.63,2.18,2.18,0,0,0-.66,1.65v6.21Z"/><path class="g" transform="translate(-.44 -1.11)" d="M100.24,192.67a4.05,4.05,0,0,1-2.61-.82,3,3,0,0,1-1-2.45,2.91,2.91,0,0,1,.58-1.93,3.35,3.35,0,0,1,1.52-1,8.6,8.6,0,0,1,2-.43,13.89,13.89,0,0,0,2-.3c.41-.1.62-.33.62-.68V185a1.34,1.34,0,0,0-.43-1,1.79,1.79,0,0,0-1.2-.37,2.14,2.14,0,0,0-1.31.36,1.68,1.68,0,0,0-.65.91L97,184.6a3.75,3.75,0,0,1,1.56-2.38,5.42,5.42,0,0,1,3.22-.88,6.88,6.88,0,0,1,2.29.38,3.83,3.83,0,0,1,1.72,1.21,3.32,3.32,0,0,1,.65,2.13v7.4h-2.89v-1.52h-.08a3.19,3.19,0,0,1-1.2,1.25A3.83,3.83,0,0,1,100.24,192.67Zm.87-2.1a2.38,2.38,0,0,0,1.64-.58,1.89,1.89,0,0,0,.65-1.45v-1.17a2.09,2.09,0,0,1-.56.22l-.8.16-.76.12a2.89,2.89,0,0,0-1.29.45,1.23,1.23,0,0,0,0,1.93A2,2,0,0,0,101.11,190.57Z"/><path class="g" transform="translate(-.44 -1.11)" d="M114.63,181.48v2.29h-2.07v5.32a1,1,0,0,0,.29.85,1.16,1.16,0,0,0,.74.22,2,2,0,0,0,.43,0l.33-.06.48,2.27c-.15,0-.37.1-.64.17a5.56,5.56,0,0,1-1,.11,3.91,3.91,0,0,1-2.66-.71,2.85,2.85,0,0,1-1-2.41v-5.72H108v-2.29h1.5v-2.63h3v2.63Z"/><path class="g" transform="translate(-.44 -1.11)" d="m121.46 192.68a5.64 5.64 0 0 1-2.88-0.71 4.85 4.85 0 0 1-1.87-2 7 7 0 0 1 0-5.94 4.79 4.79 0 0 1 1.87-2 6.2 6.2 0 0 1 5.76 0 4.79 4.79 0 0 1 1.87 2 7 7 0 0 1 0 5.94 4.85 4.85 0 0 1-1.87 2 5.64 5.64 0 0 1-2.88 0.71zm0-2.36a1.9 1.9 0 0 0 1.72-0.95 4.51 4.51 0 0 0 0.58-2.38 4.56 4.56 0 0 0-0.58-2.38 2 2 0 0 0-3.45 0 4.47 4.47 0 0 0-0.59 2.38 4.42 4.42 0 0 0 0.59 2.38 1.91 1.91 0 0 0 1.74 0.95z"/><path class="g" transform="translate(-.44 -1.11)" d="M128.85,192.46v-11h3v1.92h.11a2.84,2.84,0,0,1,1-1.55,2.65,2.65,0,0,1,1.63-.53,4.21,4.21,0,0,1,1,.11v2.7a4.11,4.11,0,0,0-.6-.11,4.31,4.31,0,0,0-.69-.05,2.33,2.33,0,0,0-1.67.63,2.18,2.18,0,0,0-.66,1.65v6.21Z"/><path class="g" transform="translate(-.44 -1.11)" d="m154.27 185.24v2.42h-13.73v-2.42z"/><path class="g" transform="translate(-.44 -1.11)" d="M165.53,192.66a6.93,6.93,0,0,1-2.85-.55,4.64,4.64,0,0,1-2-1.53,3.91,3.91,0,0,1-.74-2.26h3.12a1.61,1.61,0,0,0,.73,1.3,2.86,2.86,0,0,0,1.71.49,2.65,2.65,0,0,0,1.74-.55,1.82,1.82,0,0,0-.05-2.86,3.1,3.1,0,0,0-2-.56H163.9v-2.28h1.36a2.72,2.72,0,0,0,1.73-.53,1.68,1.68,0,0,0,.65-1.4,1.65,1.65,0,0,0-.57-1.34,2.13,2.13,0,0,0-1.51-.52,2.67,2.67,0,0,0-1.62.5,1.67,1.67,0,0,0-.7,1.34h-3a4,4,0,0,1,.72-2.24,4.74,4.74,0,0,1,1.89-1.51,6.51,6.51,0,0,1,2.7-.54,6,6,0,0,1,2.65.55,4.4,4.4,0,0,1,1.77,1.48,3.59,3.59,0,0,1,.62,2.09,2.83,2.83,0,0,1-.76,2.06,3.46,3.46,0,0,1-2,1V185a3.88,3.88,0,0,1,2.46,1.11,3.24,3.24,0,0,1,.84,2.28,3.65,3.65,0,0,1-.72,2.23,5,5,0,0,1-2,1.53A7.24,7.24,0,0,1,165.53,192.66Z"/></g><rect class="j" x="31.92" y="309.39" width="78.08" height="78.08" rx="39.04"/><path class="k" transform="translate(-.44 -1.11)" d="M140.88,336.56h4.6v15.35a7,7,0,0,1-.95,3.69,6.5,6.5,0,0,1-2.64,2.42,8.58,8.58,0,0,1-3.93.85,8.76,8.76,0,0,1-3.6-.71,5.76,5.76,0,0,1-2.57-2.15,6.4,6.4,0,0,1-.93-3.63h4.63a2.85,2.85,0,0,0,.76,2,2.67,2.67,0,0,0,1.95.72c1.77,0,2.66-1.08,2.68-3.23Z"/><path class="k" transform="translate(-.44 -1.11)" d="M153.94,358.88a6.12,6.12,0,0,1-3.92-1.23,5.2,5.2,0,0,1-.69-6.59,5,5,0,0,1,2.28-1.54,12.79,12.79,0,0,1,3-.64,24.06,24.06,0,0,0,3.08-.46,1,1,0,0,0,.92-1v-.06a2,2,0,0,0-.64-1.58,2.69,2.69,0,0,0-1.81-.56,3.24,3.24,0,0,0-2,.54,2.49,2.49,0,0,0-1,1.36l-4.23-.34a5.61,5.61,0,0,1,2.35-3.58,8.22,8.22,0,0,1,4.84-1.32,9.94,9.94,0,0,1,3.44.58,5.7,5.7,0,0,1,2.59,1.81,5,5,0,0,1,1,3.2v11.13H158.9v-2.29h-.13a4.7,4.7,0,0,1-1.8,1.88A5.81,5.81,0,0,1,153.94,358.88Zm1.31-3.16a3.53,3.53,0,0,0,2.47-.87,2.81,2.81,0,0,0,1-2.18v-1.75a2.6,2.6,0,0,1-.83.32c-.38.09-.78.18-1.21.24l-1.14.18a4.57,4.57,0,0,0-1.94.68,1.67,1.67,0,0,0-.74,1.47,1.63,1.63,0,0,0,.69,1.43A2.92,2.92,0,0,0,155.25,355.72Z"/><path class="k" transform="translate(-.44 -1.11)" d="M171.38,349v9.54H166.8V342.06h4.36V345h.2a4.64,4.64,0,0,1,1.84-2.28,5.59,5.59,0,0,1,3.12-.84,5.4,5.4,0,0,1,4.14,1.66,6.36,6.36,0,0,1,1.56,4.55v10.51h-4.58v-9.69a3.34,3.34,0,0,0-.77-2.37,2.81,2.81,0,0,0-2.16-.86,3,3,0,0,0-2.26.89A3.44,3.44,0,0,0,171.38,349Z"/><path class="k" transform="translate(-.44 -1.11)" d="m193.15 358.9a8.81 8.81 0 0 1-4.38-1 7.07 7.07 0 0 1-2.83-2.95 10.8 10.8 0 0 1 0-9 7.35 7.35 0 0 1 2.79-3 8.11 8.11 0 0 1 4.23-1.07 8.27 8.27 0 0 1 3.94 0.92 6.7 6.7 0 0 1 2.79 2.79 9.52 9.52 0 0 1 1 4.67v1.26h-11.21a4.07 4.07 0 0 0 1 2.91 3.61 3.61 0 0 0 2.73 1.07 3.84 3.84 0 0 0 2-0.49 2.58 2.58 0 0 0 1.18-1.43l4.24 0.28a5.8 5.8 0 0 1-2.45 3.68 8.56 8.56 0 0 1-5.03 1.36zm-3.67-10.25h6.94a3.41 3.41 0 0 0-0.95-2.43 3.23 3.23 0 0 0-2.43-1 3.35 3.35 0 0 0-2.5 1 3.54 3.54 0 0 0-1.06 2.43z"/><rect class="l" x="31.92" y="406.25" width="78.08" height="78.08" rx="39.04"/><path class="m" transform="translate(-.44 -1.11)" d="M132.06,433.42h5.74l6.07,14.79h.26l6.06-14.79h5.74v22h-4.52V441.11h-.18l-5.7,14.22h-3.07l-5.7-14.28h-.18v14.39h-4.52Z"/><path class="m" transform="translate(-.44 -1.11)" d="M164.38,455.75a6.05,6.05,0,0,1-3.92-1.24,4.4,4.4,0,0,1-1.56-3.68,4.45,4.45,0,0,1,.87-2.91,5.06,5.06,0,0,1,2.28-1.54,12.69,12.69,0,0,1,3-.64,22.28,22.28,0,0,0,3.07-.45c.62-.16.93-.5.93-1v-.07a2,2,0,0,0-.64-1.58,2.69,2.69,0,0,0-1.81-.56,3.24,3.24,0,0,0-2,.54,2.55,2.55,0,0,0-1,1.37l-4.23-.35a5.64,5.64,0,0,1,2.35-3.58,8.22,8.22,0,0,1,4.84-1.32,9.94,9.94,0,0,1,3.44.58,5.77,5.77,0,0,1,2.59,1.81,5,5,0,0,1,1,3.2v11.14h-4.34v-2.29h-.13a4.68,4.68,0,0,1-1.8,1.87A5.71,5.71,0,0,1,164.38,455.75Zm1.31-3.16a3.51,3.51,0,0,0,2.47-.88,2.79,2.79,0,0,0,1-2.17v-1.76a2.68,2.68,0,0,1-.83.33c-.38.09-.78.17-1.21.24l-1.14.18a4.57,4.57,0,0,0-1.94.67,1.69,1.69,0,0,0-.74,1.48,1.64,1.64,0,0,0,.69,1.43A2.92,2.92,0,0,0,165.69,452.59Z"/><path class="m" transform="translate(-.44 -1.11)" d="M177.24,455.44V438.93h4.44v2.88h.17a4.29,4.29,0,0,1,1.52-2.33,4,4,0,0,1,2.45-.79,6.05,6.05,0,0,1,1.44.16v4.06a4.66,4.66,0,0,0-.9-.17,7.89,7.89,0,0,0-1-.07,3.46,3.46,0,0,0-2.51.95,3.28,3.28,0,0,0-1,2.48v9.34Z"/><path class="m" transform="translate(-.44 -1.11)" d="M199.22,438.93v3.44h-3.1v8a1.53,1.53,0,0,0,.43,1.28,1.69,1.69,0,0,0,1.11.34,3.57,3.57,0,0,0,.65-.06l.49-.09.72,3.4c-.23.08-.55.16-1,.26a8.78,8.78,0,0,1-1.52.17,5.76,5.76,0,0,1-4-1.08,4.26,4.26,0,0,1-1.5-3.61v-8.6h-2.26v-3.44h2.26v-4h4.58v4Z"/><path class="m" transform="translate(-.44 -1.11)" d="m204.5 436.8a2.46 2.46 0 0 1-1.74-0.69 2.2 2.2 0 0 1 0-3.27 2.58 2.58 0 0 1 3.49 0 2.2 2.2 0 0 1 0 3.27 2.45 2.45 0 0 1-1.75 0.69zm-2.3 18.64v-16.51h4.58v16.51z"/><path class="m" transform="translate(-.44 -1.11)" d="M215,445.89v9.55h-4.58V438.93h4.37v2.91H215a4.79,4.79,0,0,1,1.85-2.29,5.55,5.55,0,0,1,3.12-.84,5.4,5.4,0,0,1,4.14,1.66,6.4,6.4,0,0,1,1.56,4.55v10.52h-4.58v-9.7a3.34,3.34,0,0,0-.78-2.37,2.77,2.77,0,0,0-2.16-.85,3,3,0,0,0-2.25.88A3.45,3.45,0,0,0,215,445.89Z"/><rect class="n" x="31.92" y="541.53" width="78.08" height="78.08" rx="39.04"/><path class="g" transform="translate(-.44 -1.11)" d="M131.22,572.54V568.7h18.09v3.84h-6.74v18.18H138V572.54Z"/><path class="g" transform="translate(-.44 -1.11)" d="m157.33 591a8.71 8.71 0 0 1-4.38-1 7 7 0 0 1-2.83-2.94 10.8 10.8 0 0 1 0-9 7.23 7.23 0 0 1 2.79-3 8.06 8.06 0 0 1 4.23-1.08 8.27 8.27 0 0 1 3.94 0.93 6.59 6.59 0 0 1 2.79 2.79 9.52 9.52 0 0 1 1 4.67v1.25h-11.21a4.07 4.07 0 0 0 1 2.91 3.6 3.6 0 0 0 2.73 1.06 3.94 3.94 0 0 0 2-0.48 2.62 2.62 0 0 0 1.18-1.43l4.24 0.28a5.82 5.82 0 0 1-2.45 3.68 8.63 8.63 0 0 1-5.03 1.36zm-3.67-10.24h6.94a3.39 3.39 0 0 0-0.95-2.43 3.23 3.23 0 0 0-2.43-1 3.39 3.39 0 0 0-2.51 1 3.58 3.58 0 0 0-1.05 2.47z"/><path class="g" transform="translate(-.44 -1.11)" d="M176.68,574.21v3.44h-3.11v8a1.55,1.55,0,0,0,.43,1.27,1.74,1.74,0,0,0,1.12.34,3.66,3.66,0,0,0,.65-.06l.49-.09.72,3.41c-.23.07-.55.15-1,.25a8.45,8.45,0,0,1-1.51.18,5.89,5.89,0,0,1-4-1.08,4.29,4.29,0,0,1-1.5-3.62v-8.6h-2.26v-3.44H169v-4h4.58v4Z"/><path class="g" transform="translate(-.44 -1.11)" d="M179.66,590.72V574.21h4.44v2.88h.17a4.33,4.33,0,0,1,1.51-2.33,4,4,0,0,1,2.46-.79,6.11,6.11,0,0,1,1.44.16v4.07a3.93,3.93,0,0,0-.9-.18,7.89,7.89,0,0,0-1-.07,3.5,3.5,0,0,0-2.51.95,3.28,3.28,0,0,0-1,2.48v9.34Z"/><path class="g" transform="translate(-.44 -1.11)" d="M196.28,591a6.1,6.1,0,0,1-3.93-1.24,5.16,5.16,0,0,1-.68-6.58,5,5,0,0,1,2.28-1.55A13.19,13.19,0,0,1,197,581a22.28,22.28,0,0,0,3.07-.45c.62-.16.93-.5.93-1v-.07a2,2,0,0,0-.64-1.58,2.69,2.69,0,0,0-1.81-.56,3.24,3.24,0,0,0-2,.54,2.55,2.55,0,0,0-1,1.37l-4.23-.35a5.65,5.65,0,0,1,2.34-3.58,8.25,8.25,0,0,1,4.85-1.32,10.22,10.22,0,0,1,3.44.58,5.69,5.69,0,0,1,2.58,1.81,5,5,0,0,1,1,3.2v11.14h-4.35v-2.29h-.13a4.77,4.77,0,0,1-1.8,1.88A5.77,5.77,0,0,1,196.28,591Zm1.31-3.16a3.55,3.55,0,0,0,2.47-.87,2.81,2.81,0,0,0,1-2.18v-1.75a3,3,0,0,1-.83.32c-.38.09-.78.17-1.21.24l-1.14.18a4.52,4.52,0,0,0-1.94.67,1.69,1.69,0,0,0-.74,1.48,1.66,1.66,0,0,0,.68,1.43A3,3,0,0,0,197.59,587.87Z"/><g class="f"><path class="g" transform="translate(-.44 -1.11)" d="M47.09,514.15a8.54,8.54,0,0,1-.9,4.08,6.2,6.2,0,0,1-2.46,2.56,6.92,6.92,0,0,1-3.49.89,7,7,0,0,1-3.51-.89,6.33,6.33,0,0,1-2.45-2.57,9.65,9.65,0,0,1,0-8.14,6.33,6.33,0,0,1,2.45-2.57,7.09,7.09,0,0,1,3.51-.88,7,7,0,0,1,3.49.88,6.29,6.29,0,0,1,2.46,2.57A8.53,8.53,0,0,1,47.09,514.15Zm-3.13,0a5.41,5.41,0,0,0-1-3.55,3.59,3.59,0,0,0-5.41,0,6.76,6.76,0,0,0,0,7.11,3.59,3.59,0,0,0,5.41,0A5.45,5.45,0,0,0,44,514.15Z"/><path class="g" transform="translate(-.44 -1.11)" d="M52.37,515.13v6.35h-3v-11h2.9v1.94h.13a3.09,3.09,0,0,1,1.22-1.52,3.76,3.76,0,0,1,2.08-.56,3.59,3.59,0,0,1,2.75,1.11,4.23,4.23,0,0,1,1,3v7H56.4V515a2.18,2.18,0,0,0-.51-1.58,1.86,1.86,0,0,0-1.44-.57,2,2,0,0,0-1.5.59A2.34,2.34,0,0,0,52.37,515.13Z"/><path class="g" transform="translate(-.44 -1.11)" d="m64.89 506.83v14.65h-3v-14.65z"/><path class="g" transform="translate(-.44 -1.11)" d="m68.85 509.08a1.64 1.64 0 0 1-1.16-0.46 1.47 1.47 0 0 1 0-2.17 1.73 1.73 0 0 1 2.33 0 1.47 1.47 0 0 1 0 2.17 1.63 1.63 0 0 1-1.17 0.46zm-1.53 12.4v-11h3.05v11z"/><path class="g" transform="translate(-.44 -1.11)" d="M75.85,515.13v6.35h-3v-11h2.9v1.94h.13a3.17,3.17,0,0,1,1.23-1.52,3.73,3.73,0,0,1,2.08-.56,3.59,3.59,0,0,1,2.75,1.11,4.23,4.23,0,0,1,1,3v7H79.88V515a2.23,2.23,0,0,0-.52-1.58,1.82,1.82,0,0,0-1.43-.57,2,2,0,0,0-1.5.59A2.25,2.25,0,0,0,75.85,515.13Z"/><path class="g" transform="translate(-.44 -1.11)" d="M90.33,521.69a5.8,5.8,0,0,1-2.91-.69,4.64,4.64,0,0,1-1.89-2,7.2,7.2,0,0,1,0-6,4.83,4.83,0,0,1,1.86-2,5.37,5.37,0,0,1,2.81-.72,5.53,5.53,0,0,1,2.62.61,4.56,4.56,0,0,1,1.86,1.86,6.33,6.33,0,0,1,.69,3.11v.83H87.89a2.69,2.69,0,0,0,.67,1.94,2.39,2.39,0,0,0,1.82.71,2.54,2.54,0,0,0,1.32-.33,1.72,1.72,0,0,0,.78-1l2.82.19a3.86,3.86,0,0,1-1.63,2.45A5.7,5.7,0,0,1,90.33,521.69Zm-2.44-6.81H92.5a2.27,2.27,0,0,0-.63-1.62,2.17,2.17,0,0,0-1.62-.64,2.23,2.23,0,0,0-1.66.66A2.34,2.34,0,0,0,87.89,514.88Z"/><path class="g" transform="translate(-.44 -1.11)" d="m114.54 514.25v2.42h-13.73v-2.42z"/><path class="g" transform="translate(-.44 -1.11)" d="M121,521.48l6.07-12v-.1H120v-2.53h10.28v2.57l-6.08,12.08Z"/><path class="g" transform="translate(-.44 -1.11)" d="M137.68,521.68a6.67,6.67,0,0,1-2.18-.39,5,5,0,0,1-1.88-1.2,5.87,5.87,0,0,1-1.31-2.22,10.4,10.4,0,0,1-.48-3.39,11,11,0,0,1,.74-4.22,6,6,0,0,1,2.07-2.69,5.3,5.3,0,0,1,3.14-.94,5.64,5.64,0,0,1,2.59.57,4.85,4.85,0,0,1,1.8,1.55,4.54,4.54,0,0,1,.83,2.17H140a2,2,0,0,0-.75-1.2,2.26,2.26,0,0,0-1.42-.43,2.38,2.38,0,0,0-2.17,1.24,6.74,6.74,0,0,0-.75,3.38h.1a3.52,3.52,0,0,1,1.49-1.52,4.52,4.52,0,0,1,2.2-.55,4.4,4.4,0,0,1,2.32.62,4.29,4.29,0,0,1,1.6,1.67,4.89,4.89,0,0,1,.58,2.44,5,5,0,0,1-.68,2.65,5,5,0,0,1-1.93,1.81A6,6,0,0,1,137.68,521.68Zm0-2.43a2.37,2.37,0,0,0,1.79-.75,2.77,2.77,0,0,0,0-3.67,2.33,2.33,0,0,0-1.78-.75,2.4,2.4,0,0,0-1.27.35,2.62,2.62,0,0,0-.9.94,2.69,2.69,0,0,0,0,2.6,2.46,2.46,0,0,0,.88.93A2.41,2.41,0,0,0,137.66,519.25Z"/><path class="g" transform="translate(-.44 -1.11)" d="M150.81,521.68a7.47,7.47,0,0,1-2.93-.54,5,5,0,0,1-2-1.48,3.39,3.39,0,0,1-.73-2.12,3.5,3.5,0,0,1,.42-1.69,3.78,3.78,0,0,1,1.14-1.28,3.72,3.72,0,0,1,1.62-.65v-.1a3.26,3.26,0,0,1-2.63-3.25,3.33,3.33,0,0,1,.66-2,4.5,4.5,0,0,1,1.83-1.4,7.09,7.09,0,0,1,5.28,0,4.44,4.44,0,0,1,1.83,1.4,3.28,3.28,0,0,1,.67,2,3.28,3.28,0,0,1-2.63,3.25v.1a3.69,3.69,0,0,1,1.6.65,3.92,3.92,0,0,1,1.15,1.28,3.51,3.51,0,0,1,.43,1.69,3.34,3.34,0,0,1-.74,2.12,5,5,0,0,1-2,1.48A7.56,7.56,0,0,1,150.81,521.68Zm0-2.28a2.59,2.59,0,0,0,1.78-.59,1.93,1.93,0,0,0,.68-1.52,2,2,0,0,0-.7-1.56,2.81,2.81,0,0,0-3.52,0,2,2,0,0,0-.7,1.56,1.93,1.93,0,0,0,.68,1.52A2.59,2.59,0,0,0,150.81,519.4Zm0-6.54a2.14,2.14,0,0,0,1.52-.55,1.84,1.84,0,0,0,.6-1.42,1.82,1.82,0,0,0-.59-1.39,2.44,2.44,0,0,0-3.06,0,1.81,1.81,0,0,0-.59,1.39,1.84,1.84,0,0,0,.6,1.42A2.12,2.12,0,0,0,150.81,512.86Z"/></g><g class="o" mask="url(#x)"><rect class="p" x="31.92" y="643.41" width="78.08" height="78.08" rx="39.04"/></g><g class="q" mask="url(#y)"><path transform="translate(-.44 -1.11)" d="M140.88,670.58h4.6v15.35a7,7,0,0,1-.95,3.7,6.5,6.5,0,0,1-2.64,2.42,8.58,8.58,0,0,1-3.93.85,8.93,8.93,0,0,1-3.6-.71,5.76,5.76,0,0,1-2.57-2.15,6.4,6.4,0,0,1-.93-3.63h4.63a2.81,2.81,0,0,0,.76,2,2.63,2.63,0,0,0,1.95.73c1.77,0,2.66-1.08,2.68-3.24Z"/><path transform="translate(-.44 -1.11)" d="M153.94,692.91a6.07,6.07,0,0,1-3.92-1.24,4.4,4.4,0,0,1-1.56-3.68,4.45,4.45,0,0,1,.87-2.91,5.06,5.06,0,0,1,2.28-1.54,13.3,13.3,0,0,1,3-.64,22.75,22.75,0,0,0,3.08-.45c.61-.16.92-.5.92-1v-.07a2,2,0,0,0-.64-1.58,2.69,2.69,0,0,0-1.81-.56,3.24,3.24,0,0,0-2,.54,2.55,2.55,0,0,0-1,1.37l-4.23-.35a5.67,5.67,0,0,1,2.35-3.58,8.22,8.22,0,0,1,4.84-1.32,10.18,10.18,0,0,1,3.44.58,5.77,5.77,0,0,1,2.59,1.81,5,5,0,0,1,1,3.2V692.6H158.9v-2.29h-.13a4.77,4.77,0,0,1-1.8,1.88A5.81,5.81,0,0,1,153.94,692.91Zm1.31-3.16a3.53,3.53,0,0,0,2.47-.87,2.81,2.81,0,0,0,1-2.18V685a2.86,2.86,0,0,1-.83.32c-.38.09-.78.17-1.21.24l-1.14.18a4.57,4.57,0,0,0-1.94.67,1.69,1.69,0,0,0-.74,1.48,1.64,1.64,0,0,0,.69,1.43A2.92,2.92,0,0,0,155.25,689.75Z"/><path transform="translate(-.44 -1.11)" d="M171.38,683.05v9.55H166.8V676.09h4.36V679h.2a4.64,4.64,0,0,1,1.84-2.28,5.52,5.52,0,0,1,3.12-.85,5.4,5.4,0,0,1,4.14,1.66,6.4,6.4,0,0,1,1.56,4.56V692.6h-4.58v-9.7a3.34,3.34,0,0,0-.77-2.37,2.8,2.8,0,0,0-2.16-.85,3,3,0,0,0-2.26.88A3.48,3.48,0,0,0,171.38,683.05Z"/><path class="r" transform="translate(-.44 -1.11)" d="M140.88,670.58h4.6v15.35a7,7,0,0,1-.95,3.7,6.5,6.5,0,0,1-2.64,2.42,8.58,8.58,0,0,1-3.93.85,8.93,8.93,0,0,1-3.6-.71,5.76,5.76,0,0,1-2.57-2.15,6.4,6.4,0,0,1-.93-3.63h4.63a2.81,2.81,0,0,0,.76,2,2.63,2.63,0,0,0,1.95.73c1.77,0,2.66-1.08,2.68-3.24Z"/><path class="r" transform="translate(-.44 -1.11)" d="M153.94,692.91a6.07,6.07,0,0,1-3.92-1.24,4.4,4.4,0,0,1-1.56-3.68,4.45,4.45,0,0,1,.87-2.91,5.06,5.06,0,0,1,2.28-1.54,13.3,13.3,0,0,1,3-.64,22.75,22.75,0,0,0,3.08-.45c.61-.16.92-.5.92-1v-.07a2,2,0,0,0-.64-1.58,2.69,2.69,0,0,0-1.81-.56,3.24,3.24,0,0,0-2,.54,2.55,2.55,0,0,0-1,1.37l-4.23-.35a5.67,5.67,0,0,1,2.35-3.58,8.22,8.22,0,0,1,4.84-1.32,10.18,10.18,0,0,1,3.44.58,5.77,5.77,0,0,1,2.59,1.81,5,5,0,0,1,1,3.2V692.6H158.9v-2.29h-.13a4.77,4.77,0,0,1-1.8,1.88A5.81,5.81,0,0,1,153.94,692.91Zm1.31-3.16a3.53,3.53,0,0,0,2.47-.87,2.81,2.81,0,0,0,1-2.18V685a2.86,2.86,0,0,1-.83.32c-.38.09-.78.17-1.21.24l-1.14.18a4.57,4.57,0,0,0-1.94.67,1.69,1.69,0,0,0-.74,1.48,1.64,1.64,0,0,0,.69,1.43A2.92,2.92,0,0,0,155.25,689.75Z"/><path class="r" transform="translate(-.44 -1.11)" d="M171.38,683.05v9.55H166.8V676.09h4.36V679h.2a4.64,4.64,0,0,1,1.84-2.28,5.52,5.52,0,0,1,3.12-.85,5.4,5.4,0,0,1,4.14,1.66,6.4,6.4,0,0,1,1.56,4.56V692.6h-4.58v-9.7a3.34,3.34,0,0,0-.77-2.37,2.8,2.8,0,0,0-2.16-.85,3,3,0,0,0-2.26.88A3.48,3.48,0,0,0,171.38,683.05Z"/></g></svg>
