<svg xmlns="http://www.w3.org/2000/svg" xmlns:xlink="http://www.w3.org/1999/xlink" viewBox="0 0 500 700"><defs><style>.a,.e{fill:#fff;}.a{opacity:0.1;}.b{fill:url(#a);}.c{fill:#747474;}.d{opacity:0.6;}.f{fill:#94ffc1;}.g{opacity:0.41;}.h{opacity:0.72;}</style><linearGradient id="a" x1="110.51" y1="51.01" x2="409.97" y2="51.01" gradientUnits="userSpaceOnUse"><stop offset="0" stop-color="#ff4654"/><stop offset="1" stop-color="#ff558d"/></linearGradient></defs><rect class="a" width="500" height="96.12" rx="14.32"/><path class="b" d="M110.51,60.07V42h6.33v3.44H117a5.16,5.16,0,0,1,1.57-2.79,3.9,3.9,0,0,1,2.54-.89,5.65,5.65,0,0,1,1.65.25v5.56a6.32,6.32,0,0,0-1.19-.25,12.15,12.15,0,0,0-1.22-.08,3.28,3.28,0,0,0-2.4.94,3.39,3.39,0,0,0-1,2.5v9.44Z"/><path class="b" d="M143.75,42l-6.09,18.12H130.1L124,42h6.85l2.93,12H134l2.93-12Z"/><path class="b" d="M152.1,35.91V60.07h-6.51V35.91Z"/><path class="b" d="M166.21,42v4.72H163.1v7.57q0,1.14,1.23,1.14a5,5,0,0,0,.69-.07l.58-.12.94,4.58-1.24.32a11.93,11.93,0,0,1-1.92.24,7.22,7.22,0,0,1-5.1-1.22,5.07,5.07,0,0,1-1.7-4.25V46.67h-2.31V42h2.31V37.61h6.52V42Z"/><path class="b" d="M172.4,60.45a3.22,3.22,0,0,1-2.35-1,3.11,3.11,0,0,1-1-2.34,3,3,0,0,1,1-2.3,3.28,3.28,0,0,1,4.64,0,3.08,3.08,0,0,1,1,2.3,3.15,3.15,0,0,1-1,2.34A3.2,3.2,0,0,1,172.4,60.45Z"/><path class="b" d="M188,67.25a10.56,10.56,0,0,1-6.38-1.69,5.69,5.69,0,0,1-2.49-4.31h6.28a1.57,1.57,0,0,0,.9,1.24,4.26,4.26,0,0,0,1.88.37,3.53,3.53,0,0,0,2.1-.61,2.61,2.61,0,0,0,.83-2.22V57h-.19A4,4,0,0,1,189,59.09a6.56,6.56,0,0,1-3.21.75,7.24,7.24,0,0,1-3.56-.9,6.37,6.37,0,0,1-2.59-2.84,11.42,11.42,0,0,1-1-5.09,11.85,11.85,0,0,1,1-5.33,7,7,0,0,1,2.64-3,6.6,6.6,0,0,1,3.41-1,5.17,5.17,0,0,1,3.3,1,5.53,5.53,0,0,1,1.8,2.39H191V42h6.52V60a6.42,6.42,0,0,1-1.19,3.91A7.44,7.44,0,0,1,193,66.4,13.5,13.5,0,0,1,188,67.25Zm.24-12a2.42,2.42,0,0,0,2.11-1.11,5.39,5.39,0,0,0,.77-3.09,5.64,5.64,0,0,0-.77-3.16,2.42,2.42,0,0,0-2.11-1.13,2.37,2.37,0,0,0-2.09,1.13,5.82,5.82,0,0,0-.74,3.16,5.54,5.54,0,0,0,.74,3.11A2.38,2.38,0,0,0,188.21,55.21Z"/><path class="b" d="M209.55,67.25a10.59,10.59,0,0,1-6.39-1.69,5.69,5.69,0,0,1-2.49-4.31H207a1.57,1.57,0,0,0,.9,1.24,4.26,4.26,0,0,0,1.88.37,3.5,3.5,0,0,0,2.1-.61,2.61,2.61,0,0,0,.83-2.22V57h-.19a4,4,0,0,1-1.89,2.13,6.56,6.56,0,0,1-3.21.75,7.18,7.18,0,0,1-3.55-.9,6.34,6.34,0,0,1-2.6-2.84,11.43,11.43,0,0,1-1-5.09,12,12,0,0,1,1-5.33,7,7,0,0,1,2.64-3,6.61,6.61,0,0,1,3.42-1,5.16,5.16,0,0,1,3.29,1,5.53,5.53,0,0,1,1.8,2.39h.15V42h6.51V60a6.35,6.35,0,0,1-1.19,3.91,7.44,7.44,0,0,1-3.33,2.46A13.48,13.48,0,0,1,209.55,67.25Zm.23-12a2.42,2.42,0,0,0,2.11-1.11,5.31,5.31,0,0,0,.77-3.09,5.55,5.55,0,0,0-.77-3.16,2.42,2.42,0,0,0-2.11-1.13,2.37,2.37,0,0,0-2.09,1.13A5.82,5.82,0,0,0,207,51a5.54,5.54,0,0,0,.74,3.11A2.38,2.38,0,0,0,209.78,55.21Z"/><path class="b" d="M234.23,34.77l-7.79,28.94h-5.52l7.79-28.94Z"/><path class="b" d="M235.79,56.3V51.2l9.72-15.29h8.31V51.2h2.79v5.1h-2.79v3.77h-6.28V56.3Zm11.9-5.1V42.7h-.19L242.26,51v.19Z"/><path class="b" d="M263.36,66.87a10.59,10.59,0,0,1-3.92-.64l1.41-4.62a5.91,5.91,0,0,0,2.09.39,1.29,1.29,0,0,0,1.22-.79l.14-.33L257.93,42h6.8l2.92,12.55h.19l3-12.55h6.85l-6.61,19.63a9,9,0,0,1-1.43,2.7,6.62,6.62,0,0,1-2.46,1.9A9.25,9.25,0,0,1,263.36,66.87Z"/><path class="b" d="M277.28,35.91h7.32l4.72,9.81h.19l4.72-9.81h7.31l-8.87,16.56v7.6h-6.51v-7.6Z"/><path class="b" d="M314.24,60.73a10.45,10.45,0,0,1-5.69-1.52,9.78,9.78,0,0,1-3.69-4.35A16.12,16.12,0,0,1,303.57,48a16.23,16.23,0,0,1,1.31-6.78A9.44,9.44,0,0,1,308.56,37a11.87,11.87,0,0,1,11.37,0,9.45,9.45,0,0,1,3.69,4.25A15.68,15.68,0,0,1,324.91,48a16.31,16.31,0,0,1-1.3,6.84,9.67,9.67,0,0,1-3.69,4.35A10.44,10.44,0,0,1,314.24,60.73Zm0-5.33A3.21,3.21,0,0,0,317,53.62,10.85,10.85,0,0,0,318.11,48,10.63,10.63,0,0,0,317,42.59a3.09,3.09,0,0,0-5.55,0,10.72,10.72,0,0,0-1.1,5.45,10.85,10.85,0,0,0,1.08,5.58A3.21,3.21,0,0,0,314.24,55.4Z"/><path class="b" d="M327.93,60.07V35.91h17v5.28H334.49v4.16h9.39v5.28h-9.39v9.44Z"/><path class="b" d="M352.1,60.36a6.7,6.7,0,0,1-4.25-1.29,4.78,4.78,0,0,1-1.65-4,4.93,4.93,0,0,1,3.28-5,11.32,11.32,0,0,1,3.37-.73,14.38,14.38,0,0,0,3.25-.49,1.16,1.16,0,0,0,.95-1.11v-.05a1.26,1.26,0,0,0-.54-1.09,2.38,2.38,0,0,0-1.39-.37,2.62,2.62,0,0,0-1.52.4,1.75,1.75,0,0,0-.7,1.25h-6a6.14,6.14,0,0,1,1-3.05,6.53,6.53,0,0,1,2.75-2.24,10.47,10.47,0,0,1,4.5-.85,11.6,11.6,0,0,1,4.47.79,6.78,6.78,0,0,1,2.88,2.14,4.93,4.93,0,0,1,1,3V60.07h-6.09V57.53h-.14a5,5,0,0,1-2.15,2.17A6.83,6.83,0,0,1,352.1,60.36Zm2.12-4.11a3.22,3.22,0,0,0,2-.68,2.27,2.27,0,0,0,.88-1.92V52.14a11.48,11.48,0,0,1-2.59.66,3,3,0,0,0-1.66.69,1.65,1.65,0,0,0-.52,1.2,1.35,1.35,0,0,0,.54,1.16A2.15,2.15,0,0,0,354.22,56.25Z"/><path class="b" d="M366.4,56.3V51.2l9.72-15.29h8.31V51.2h2.79v5.1h-2.79v3.77h-6.28V56.3Zm11.9-5.1V42.7h-.19L372.87,51v.19Z"/><path class="b" d="M399.82,60.4a14.21,14.21,0,0,1-5.22-.9A8.88,8.88,0,0,1,391,57a5.3,5.3,0,0,1-1.32-3.52,5.2,5.2,0,0,1,.75-2.74,6.28,6.28,0,0,1,2-2.05,7.16,7.16,0,0,1,2.85-1.06v-.19a5.73,5.73,0,0,1-3.39-1.83,5.07,5.07,0,0,1-1.33-3.5,5.2,5.2,0,0,1,1.2-3.38,8,8,0,0,1,3.29-2.33,13.75,13.75,0,0,1,9.52,0,8.05,8.05,0,0,1,3.29,2.34,5.21,5.21,0,0,1,1.2,3.37,5,5,0,0,1-1.34,3.5,5.77,5.77,0,0,1-3.38,1.83v.19a7.13,7.13,0,0,1,2.83,1.06,6.31,6.31,0,0,1,2,2.05,5.12,5.12,0,0,1,.76,2.74A5.3,5.3,0,0,1,408.65,57,8.88,8.88,0,0,1,405,59.5,14.21,14.21,0,0,1,399.82,60.4Zm0-4.53a3.24,3.24,0,0,0,2.3-.83A2.69,2.69,0,0,0,403,53a2.64,2.64,0,0,0-.91-2.07,3.67,3.67,0,0,0-4.6,0,2.61,2.61,0,0,0-.91,2.07,2.72,2.72,0,0,0,.91,2.09A3.28,3.28,0,0,0,399.82,55.87Zm0-10.33a2.86,2.86,0,0,0,2-.75,2.5,2.5,0,0,0,.8-1.9,2.46,2.46,0,0,0-.8-1.86,3.19,3.19,0,0,0-4.06,0,2.39,2.39,0,0,0-.8,1.86,2.46,2.46,0,0,0,.8,1.89A2.87,2.87,0,0,0,399.82,45.54Z"/><path class="c" d="M34.58,60a9.1,9.1,0,0,0,12.86,0l5.14-5.14L50,52.32l-5.14,5.14a5.46,5.46,0,1,1-7.72-7.71l5.14-5.15L39.72,42l-5.14,5.15A9.1,9.1,0,0,0,34.58,60ZM62.86,44.6A9.09,9.09,0,1,0,50,31.75l-5.14,5.14,2.57,2.57,5.14-5.14A5.45,5.45,0,1,1,60.29,42l-5.14,5.15,2.57,2.57Z"/><path class="c" d="M42.29,54.89l-2.57-2.57L55.15,36.89l2.57,2.57Z"/><g class="d"><path class="e" d="M217.55,149.2l5.34-5.37,11.2,11.2v-24.3H242V155l11.2-11.2,5.34,5.37L238,169.68Z"/></g><rect class="a" y="204.29" width="500" height="495.71" rx="14.32"/><rect class="f" x="31.92" y="234.35" width="116.61" height="116.61" rx="58.3"/><g class="g"><path class="e" d="M57.3,457.31l1.77-10.82H48.73L47,457.31H44.12l1.78-10.82h-6l.48-2.82h6L48,433.46h-6l.46-2.82h6l1.78-10.81h2.84l-1.78,10.81H61.67l1.78-10.81h2.83l-1.77,10.81h6L70,433.46h-6l-1.68,10.21h6l-.47,2.82h-6l-1.78,10.82Zm-8.11-13.64H59.53l1.68-10.21H50.87Z"/></g><g class="g"><path class="e" d="M57.3,548.7l1.77-10.82H48.73L47,548.7H44.12l1.78-10.82h-6l.48-2.82h6L48,524.85h-6l.46-2.82h6l1.78-10.82h2.84L51.33,522H61.67l1.78-10.82h2.83L64.51,522h6L70,524.85h-6l-1.68,10.21h6l-.47,2.82h-6L60.13,548.7Zm-8.11-13.64H59.53l1.68-10.21H50.87Z"/></g><g class="g"><path class="e" d="M58.37,640.08l1.78-10.81H49.81L48,640.08H45.2L47,629.27H41l.47-2.82h6l1.68-10.21h-6l.45-2.82h6l1.77-10.82h2.84l-1.77,10.82H62.75l1.77-10.82h2.84l-1.78,10.82h6l-.46,2.82h-6l-1.69,10.21h6l-.48,2.82H63l-1.77,10.81Zm-8.1-13.63H60.61l1.68-10.21H52Z"/></g><path class="e" d="M181.59,301.69h-5l7.6-22h6l7.59,22h-5l-1.63-5h-7.95Zm2.82-8.66H190l-2.71-8.33h-.17Z"/><path class="e" d="M201.54,301.69l-4.49-16.52h4.63l2.56,11.1h.15l2.67-11.1h4.55l2.7,11h.15l2.51-11h4.62l-4.48,16.52h-4.85l-2.84-10.39h-.2l-2.84,10.39Z"/><path class="e" d="M231.14,302a8.81,8.81,0,0,1-4.38-1,7,7,0,0,1-2.82-2.94,10.72,10.72,0,0,1,0-9,7.35,7.35,0,0,1,2.79-3A8.16,8.16,0,0,1,231,285a8.42,8.42,0,0,1,3.94.92,6.82,6.82,0,0,1,2.79,2.79,9.55,9.55,0,0,1,1,4.67v1.26H227.47a4.08,4.08,0,0,0,1,2.92,3.6,3.6,0,0,0,2.73,1.06,3.91,3.91,0,0,0,2-.48,2.67,2.67,0,0,0,1.19-1.43l4.23.28a5.78,5.78,0,0,1-2.45,3.67A8.56,8.56,0,0,1,231.14,302Zm-3.67-10.25h6.94a3.37,3.37,0,0,0-.95-2.43,3.26,3.26,0,0,0-2.43-.95,3.35,3.35,0,0,0-2.5,1A3.59,3.59,0,0,0,227.47,291.76Z"/><path class="e" d="M255.45,289.88l-4.2.26a2.33,2.33,0,0,0-.87-1.36,2.88,2.88,0,0,0-1.89-.57,3.38,3.38,0,0,0-1.8.44,1.35,1.35,0,0,0-.73,1.19,1.26,1.26,0,0,0,.47,1,3.89,3.89,0,0,0,1.63.66l3,.6q4.77,1,4.77,4.47a4.49,4.49,0,0,1-.95,2.85,6.17,6.17,0,0,1-2.61,1.91,9.93,9.93,0,0,1-3.79.68,8.9,8.9,0,0,1-5.22-1.37A5.23,5.23,0,0,1,241,296.9l4.5-.23a2.3,2.3,0,0,0,1,1.52,3.5,3.5,0,0,0,2,.52,3.59,3.59,0,0,0,1.94-.47,1.45,1.45,0,0,0,.75-1.21c0-.82-.73-1.36-2.12-1.64l-2.86-.57q-4.8-1-4.77-4.72a4.37,4.37,0,0,1,1.91-3.77,8.57,8.57,0,0,1,5.09-1.37,8.22,8.22,0,0,1,4.93,1.32A5.1,5.1,0,0,1,255.45,289.88Z"/><path class="e" d="M266.18,302a8.43,8.43,0,0,1-4.33-1.07,7.18,7.18,0,0,1-2.81-3,10.56,10.56,0,0,1,0-8.93,7.18,7.18,0,0,1,2.81-3,9.28,9.28,0,0,1,8.65,0,7.12,7.12,0,0,1,2.81,3,10.56,10.56,0,0,1,0,8.93,7.12,7.12,0,0,1-2.81,3A8.39,8.39,0,0,1,266.18,302Zm0-3.55a2.82,2.82,0,0,0,2.57-1.42,7.72,7.72,0,0,0,0-7.16,2.83,2.83,0,0,0-2.57-1.43,2.89,2.89,0,0,0-2.62,1.43,7.72,7.72,0,0,0,0,7.16A2.88,2.88,0,0,0,266.2,298.46Z"/><path class="e" d="M277.29,301.69V285.17h4.37v2.92h.19a4.57,4.57,0,0,1,1.73-2.3,5,5,0,0,1,2.87-.83,4.88,4.88,0,0,1,2.89.84,4.08,4.08,0,0,1,1.6,2.29h.17a4.35,4.35,0,0,1,1.83-2.28,5.68,5.68,0,0,1,3.14-.85,5,5,0,0,1,3.76,1.47,5.62,5.62,0,0,1,1.45,4.15v11.11h-4.57V291.48a2.7,2.7,0,0,0-.73-2.06,2.57,2.57,0,0,0-1.83-.69,2.47,2.47,0,0,0-2,.8,3,3,0,0,0-.69,2.07v10.09h-4.44v-10.3a2.7,2.7,0,0,0-.7-1.94,2.41,2.41,0,0,0-1.82-.72,2.48,2.48,0,0,0-1.91.84,3.08,3.08,0,0,0-.78,2.2v9.92Z"/><path class="e" d="M312.43,302a8.79,8.79,0,0,1-4.38-1,7,7,0,0,1-2.83-2.94,10.72,10.72,0,0,1,0-9,7.35,7.35,0,0,1,2.79-3,8.16,8.16,0,0,1,4.23-1.07,8.39,8.39,0,0,1,3.94.92,6.7,6.7,0,0,1,2.79,2.79,9.55,9.55,0,0,1,1,4.67v1.26H308.76a4.08,4.08,0,0,0,1,2.92,3.57,3.57,0,0,0,2.73,1.06,3.94,3.94,0,0,0,2-.48,2.66,2.66,0,0,0,1.18-1.43l4.24.28a5.78,5.78,0,0,1-2.45,3.67A8.56,8.56,0,0,1,312.43,302Zm-3.67-10.25h6.93a3.36,3.36,0,0,0-.94-2.43,3.28,3.28,0,0,0-2.43-.95,3.39,3.39,0,0,0-2.51,1A3.58,3.58,0,0,0,308.76,291.76Z"/><path class="e" d="M342,286a2.67,2.67,0,0,0-1.11-2,4.38,4.38,0,0,0-2.65-.72,4.21,4.21,0,0,0-2.62.7,2.12,2.12,0,0,0-.92,1.76,1.92,1.92,0,0,0,1,1.79,8.54,8.54,0,0,0,2.47.94l2,.48a12.88,12.88,0,0,1,3.4,1.24,6.63,6.63,0,0,1,2.34,2.1,5.53,5.53,0,0,1,.86,3.13,5.87,5.87,0,0,1-2.27,4.81,9.86,9.86,0,0,1-6.28,1.79,10.26,10.26,0,0,1-6.4-1.83,6.61,6.61,0,0,1-2.47-5.4h4.51a3.09,3.09,0,0,0,1.3,2.49,5.1,5.1,0,0,0,3,.84,4.74,4.74,0,0,0,2.83-.76,2.32,2.32,0,0,0,1.07-1.95,1.93,1.93,0,0,0-1-1.72,9.68,9.68,0,0,0-2.76-1L336,292a10,10,0,0,1-4.4-2.11A5,5,0,0,1,330,286a5.77,5.77,0,0,1,1.07-3.5,7.11,7.11,0,0,1,3-2.33,10.67,10.67,0,0,1,4.3-.83,10.2,10.2,0,0,1,4.29.84,6.74,6.74,0,0,1,2.85,2.33,6.26,6.26,0,0,1,1.06,3.46Z"/><path class="e" d="M357.36,302a8.75,8.75,0,0,1-4.37-1,7,7,0,0,1-2.83-2.94,10.72,10.72,0,0,1,0-9,7.35,7.35,0,0,1,2.79-3,8.16,8.16,0,0,1,4.23-1.07,8.39,8.39,0,0,1,3.94.92,6.82,6.82,0,0,1,2.79,2.79,9.55,9.55,0,0,1,1,4.67v1.26H353.7a4.08,4.08,0,0,0,1,2.92,3.57,3.57,0,0,0,2.73,1.06,3.94,3.94,0,0,0,2-.48,2.66,2.66,0,0,0,1.18-1.43l4.24.28a5.82,5.82,0,0,1-2.45,3.67A8.59,8.59,0,0,1,357.36,302Zm-3.66-10.25h6.93a3.4,3.4,0,0,0-.94-2.43,3.29,3.29,0,0,0-2.43-.95,3.38,3.38,0,0,0-2.51,1A3.58,3.58,0,0,0,353.7,291.76Z"/><path class="e" d="M367.93,301.69V285.17h4.44v2.89h.17a4.31,4.31,0,0,1,1.52-2.33,4,4,0,0,1,2.45-.79,6.05,6.05,0,0,1,1.44.16v4.06a5.07,5.07,0,0,0-.89-.18,10.06,10.06,0,0,0-1-.06,3.46,3.46,0,0,0-2.51.95,3.24,3.24,0,0,0-1,2.47v9.35Z"/><path class="e" d="M396.22,285.17l-5.78,16.52h-5.16l-5.77-16.52h4.84L387.78,297H388l3.42-11.82Z"/><path class="e" d="M405.54,302a8.81,8.81,0,0,1-4.38-1,7,7,0,0,1-2.82-2.94,10.72,10.72,0,0,1,0-9,7.28,7.28,0,0,1,2.79-3,8.16,8.16,0,0,1,4.23-1.07,8.44,8.44,0,0,1,3.94.92,6.82,6.82,0,0,1,2.79,2.79,9.66,9.66,0,0,1,1,4.67v1.26H401.87a4.08,4.08,0,0,0,1,2.92,3.6,3.6,0,0,0,2.73,1.06,3.94,3.94,0,0,0,2-.48,2.67,2.67,0,0,0,1.19-1.43L413,297a5.78,5.78,0,0,1-2.45,3.67A8.56,8.56,0,0,1,405.54,302Zm-3.67-10.25h6.94a3.41,3.41,0,0,0-.95-2.43,3.26,3.26,0,0,0-2.43-.95,3.35,3.35,0,0,0-2.5,1A3.54,3.54,0,0,0,401.87,291.76Z"/><path class="e" d="M416.11,301.69V285.17h4.44v2.89h.17a4.25,4.25,0,0,1,1.52-2.33,4,4,0,0,1,2.45-.79,6.11,6.11,0,0,1,1.44.16v4.06a5.43,5.43,0,0,0-.9-.18,9.9,9.9,0,0,0-1-.06,3.46,3.46,0,0,0-2.51.95,3.27,3.27,0,0,0-1,2.47v9.35Z"/><g class="h"><path class="e" d="M110.65,435.07a4.36,4.36,0,0,0-1.63-2.43,4.89,4.89,0,0,0-3-.87,5.09,5.09,0,0,0-4.09,1.86,8.06,8.06,0,0,0-1.56,5.31,8.25,8.25,0,0,0,1.53,5.33,5.12,5.12,0,0,0,4.16,1.88,5.19,5.19,0,0,0,3.65-1.21,4.27,4.27,0,0,0,1.37-3.25h-4.73v-3.51h9.22V441a9.63,9.63,0,0,1-1.23,5,8.27,8.27,0,0,1-3.37,3.21,10.45,10.45,0,0,1-4.93,1.12,10.64,10.64,0,0,1-5.44-1.37A9.49,9.49,0,0,1,97,445a13,13,0,0,1-1.3-6A12.74,12.74,0,0,1,97,432.87a9.62,9.62,0,0,1,3.7-3.88,10.37,10.37,0,0,1,5.24-1.34,10.52,10.52,0,0,1,4.51.94,9,9,0,0,1,3.31,2.62,8,8,0,0,1,1.59,3.86Z"/><path class="e" d="M126.52,450.29a8.75,8.75,0,0,1-4.37-1,7,7,0,0,1-2.83-2.94,10.72,10.72,0,0,1,0-9,7.35,7.35,0,0,1,2.79-3,8.16,8.16,0,0,1,4.23-1.07,8.42,8.42,0,0,1,3.94.92,6.82,6.82,0,0,1,2.79,2.79,9.55,9.55,0,0,1,1,4.67v1.26H122.86a4,4,0,0,0,1,2.92,3.57,3.57,0,0,0,2.73,1.06,4,4,0,0,0,2-.48,2.66,2.66,0,0,0,1.18-1.43l4.23.28a5.78,5.78,0,0,1-2.45,3.67A8.56,8.56,0,0,1,126.52,450.29ZM122.86,440h6.93a3.37,3.37,0,0,0-.95-2.43,3.26,3.26,0,0,0-2.43-.95,3.37,3.37,0,0,0-2.5,1A3.58,3.58,0,0,0,122.86,440Z"/><path class="e" d="M141.67,440.42V450h-4.58V433.45h4.36v2.92h.2a4.71,4.71,0,0,1,1.84-2.29,5.59,5.59,0,0,1,3.12-.84,5.4,5.4,0,0,1,4.14,1.66,6.38,6.38,0,0,1,1.56,4.55V450h-4.58v-9.7a3.34,3.34,0,0,0-.77-2.37,2.79,2.79,0,0,0-2.16-.86,3,3,0,0,0-2.25.89A3.45,3.45,0,0,0,141.67,440.42Z"/><path class="e" d="M163.44,450.29a8.81,8.81,0,0,1-4.38-1,7,7,0,0,1-2.82-2.94,10.72,10.72,0,0,1,0-9,7.35,7.35,0,0,1,2.79-3,8.16,8.16,0,0,1,4.23-1.07,8.42,8.42,0,0,1,3.94.92A6.82,6.82,0,0,1,170,437a9.66,9.66,0,0,1,1,4.67v1.26H159.77a4.08,4.08,0,0,0,1,2.92,3.6,3.6,0,0,0,2.73,1.06,3.94,3.94,0,0,0,2-.48,2.67,2.67,0,0,0,1.19-1.43l4.23.28a5.78,5.78,0,0,1-2.45,3.67A8.56,8.56,0,0,1,163.44,450.29ZM159.77,440h6.94a3.37,3.37,0,0,0-1-2.43,3.26,3.26,0,0,0-2.43-.95,3.35,3.35,0,0,0-2.5,1A3.54,3.54,0,0,0,159.77,440Z"/><path class="e" d="M174,450V433.45h4.44v2.88h.17a4.26,4.26,0,0,1,1.52-2.32,4,4,0,0,1,2.45-.79,6.05,6.05,0,0,1,1.44.16v4.06a5.43,5.43,0,0,0-.9-.18,9.9,9.9,0,0,0-1-.06,3.46,3.46,0,0,0-2.51.95,3.27,3.27,0,0,0-1,2.47V450Z"/><path class="e" d="M190.63,450.28A6.1,6.1,0,0,1,186.7,449a5.21,5.21,0,0,1-.68-6.59,5.06,5.06,0,0,1,2.28-1.54,12.69,12.69,0,0,1,3-.64,22.28,22.28,0,0,0,3.07-.45c.62-.16.93-.5.93-1v-.07a2,2,0,0,0-.64-1.58,2.69,2.69,0,0,0-1.81-.56,3.24,3.24,0,0,0-2,.54,2.51,2.51,0,0,0-1,1.37l-4.23-.35a5.6,5.6,0,0,1,2.35-3.58,8.22,8.22,0,0,1,4.84-1.32,10,10,0,0,1,3.44.58,5.69,5.69,0,0,1,2.58,1.81,5,5,0,0,1,1,3.2V450h-4.35v-2.29h-.12a4.84,4.84,0,0,1-1.81,1.87A5.65,5.65,0,0,1,190.63,450.28Zm1.31-3.16a3.51,3.51,0,0,0,2.47-.88,2.8,2.8,0,0,0,1-2.18v-1.75a2.7,2.7,0,0,1-.83.32c-.38.1-.78.18-1.21.25l-1.14.17a4.57,4.57,0,0,0-1.94.68,1.68,1.68,0,0,0-.74,1.47,1.65,1.65,0,0,0,.68,1.43A2.91,2.91,0,0,0,191.94,447.12Z"/><path class="e" d="M208.07,428v22h-4.58V428Z"/></g><g class="h"><path class="e" d="M97.58,540.86v-22h8.69a8.16,8.16,0,0,1,5.82,2,6.86,6.86,0,0,1,2.07,5.24,7.14,7.14,0,0,1-1,3.86,6.16,6.16,0,0,1-2.88,2.4l4.67,8.56H109.8l-4.17-7.8h-3.39v7.8Zm4.66-11.55h3.16q4,0,4-3.27t-4-3.39h-3.13Z"/><path class="e" d="M128,533.83v-9.48h4.58v16.51h-4.4v-3H128a4.83,4.83,0,0,1-1.85,2.33,5.49,5.49,0,0,1-3.16.89,5.25,5.25,0,0,1-4-1.66,6.49,6.49,0,0,1-1.56-4.56V524.35h4.58V534a3.36,3.36,0,0,0,.79,2.32,2.67,2.67,0,0,0,2.07.85,3.11,3.11,0,0,0,3.15-3.38Z"/><path class="e" d="M140.77,518.84v22h-4.58v-22Z"/><path class="e" d="M152,541.18a8.79,8.79,0,0,1-4.38-1,7.06,7.06,0,0,1-2.83-2.95,10.7,10.7,0,0,1,0-9,7.23,7.23,0,0,1,2.79-3,8.06,8.06,0,0,1,4.23-1.08,8.27,8.27,0,0,1,3.94.93,6.59,6.59,0,0,1,2.79,2.79,9.52,9.52,0,0,1,1,4.67v1.26H148.28a4.07,4.07,0,0,0,1,2.91,3.57,3.57,0,0,0,2.73,1.06,3.94,3.94,0,0,0,2-.48,2.62,2.62,0,0,0,1.18-1.43l4.24.28a5.8,5.8,0,0,1-2.45,3.68A8.63,8.63,0,0,1,152,541.18Zm-3.67-10.24h6.93a3.36,3.36,0,0,0-.94-2.43,3.26,3.26,0,0,0-2.43-1,3.39,3.39,0,0,0-2.51,1A3.58,3.58,0,0,0,148.28,530.94Z"/><path class="e" d="M176.25,529.06l-4.19.25a2.33,2.33,0,0,0-.87-1.36,2.92,2.92,0,0,0-1.89-.57,3.39,3.39,0,0,0-1.8.45,1.31,1.31,0,0,0-.73,1.18,1.22,1.22,0,0,0,.47,1,3.76,3.76,0,0,0,1.63.66l3,.6q4.75,1,4.77,4.47a4.51,4.51,0,0,1-.95,2.85,6.15,6.15,0,0,1-2.61,1.91,9.78,9.78,0,0,1-3.79.68,8.88,8.88,0,0,1-5.23-1.37,5.26,5.26,0,0,1-2.27-3.73l4.51-.24a2.34,2.34,0,0,0,1,1.53,3.61,3.61,0,0,0,2,.51,3.51,3.51,0,0,0,1.94-.47,1.44,1.44,0,0,0,.75-1.2c0-.82-.73-1.37-2.12-1.65L167,534q-4.8-1-4.78-4.72a4.37,4.37,0,0,1,1.91-3.76,8.55,8.55,0,0,1,5.09-1.38,8.11,8.11,0,0,1,4.93,1.33A5.1,5.1,0,0,1,176.25,529.06Z"/></g><g class="h"><path class="e" d="M101.38,632.41h-5l7.6-22h6l7.59,22h-5l-1.64-5H103Zm2.81-8.65h5.59l-2.71-8.33h-.17Z"/><path class="e" d="M120.14,632.41V615.9h4.44v2.88h.17a4.31,4.31,0,0,1,1.51-2.33,4.05,4.05,0,0,1,2.45-.79,6,6,0,0,1,1.44.17v4.06a5.07,5.07,0,0,0-.89-.18,10.08,10.08,0,0,0-1-.07,3.5,3.5,0,0,0-2.51,1,3.29,3.29,0,0,0-1,2.48v9.34Z"/><path class="e" d="M142.12,615.9v3.44H139v8a1.57,1.57,0,0,0,.43,1.28,1.8,1.8,0,0,0,1.12.33,3.57,3.57,0,0,0,.65-.06l.49-.09.72,3.41c-.23.07-.55.16-1,.25a7.62,7.62,0,0,1-1.51.18,5.89,5.89,0,0,1-4-1.08,4.34,4.34,0,0,1-1.5-3.62v-8.6h-2.25V615.9h2.25v-4H139v4Z"/></g></svg>