<svg width="480" height="320" viewBox="0 0 480 320" fill="none" xmlns="http://www.w3.org/2000/svg">
<g clip-path="url(#clip0)">
<rect x="49" width="131" height="320" rx="10" fill="#404040"/>
<rect x="57" y="51" width="30" height="30" rx="15" fill="#9C9C9C"/>
<rect x="92" y="54" width="58" height="12" rx="6" fill="white"/>
<rect x="92" y="69" width="40" height="8" rx="4" fill="#5C5C5C"/>
<rect x="57" y="89" width="30" height="30" rx="15" fill="#9C9C9C"/>
<rect x="92" y="92" width="43" height="12" rx="6" fill="white"/>
<rect x="92" y="107" width="58" height="8" rx="4" fill="#5C5C5C"/>
<rect x="57" y="127" width="30" height="30" rx="15" fill="#9C9C9C"/>
<rect x="92" y="130" width="47" height="12" rx="6" fill="white"/>
<rect x="92" y="145" width="23" height="8" rx="4" fill="#5C5C5C"/>
<g clip-path="url(#clip1)">
<rect x="49" y="-12" width="131" height="50" rx="10" fill="#515151"/>
<rect x="80" y="13" width="70" height="12" rx="6" fill="white"/>
</g>
<rect x="190" width="290" height="320" rx="10" fill="#404040"/>
<rect x="220" y="30" width="40" height="40" rx="20" fill="#9C9C9C"/>
<rect x="276" y="32" width="58" height="16" rx="6" fill="white"/>
<rect x="340" y="32" width="58" height="16" rx="6" fill="#858585"/>
<rect x="276" y="56" width="152" height="12" rx="6" fill="white"/>
<rect x="220" y="90" width="40" height="40" rx="20" fill="#9C9C9C"/>
<rect x="276" y="92" width="68" height="16" rx="6" fill="white"/>
<rect x="349" y="92" width="58" height="16" rx="6" fill="#858585"/>
<rect x="276" y="116" width="83" height="12" rx="6" fill="white"/>
<rect x="276" y="116" width="83" height="12" rx="6" fill="white"/>
<rect x="276" y="136" width="145" height="12" rx="6" fill="white"/>
<rect x="367" y="116" width="83" height="12" rx="6" fill="white"/>
<line x1="217" y1="165" x2="457" y2="165" stroke="#6C6C6C" stroke-width="2" stroke-linejoin="round"/>
<rect x="220" y="180" width="40" height="40" rx="20" fill="#9C9C9C"/>
<rect x="276" y="182" width="58" height="16" rx="6" fill="white"/>
<rect x="276" y="204" width="112" height="70" rx="6" fill="#FF5561"/>
<rect x="340" y="182" width="58" height="16" rx="6" fill="#858585"/>
<rect width="40" height="320" rx="10" fill="#404040"/>
<g filter="url(#filter0_d)">
<path d="M5 20C5 11.7157 11.7157 5 20 5V5C28.2843 5 35 11.7157 35 20V20C35 28.2843 28.2843 35 20 35V35C11.7157 35 5 28.2843 5 20V20Z" fill="#101823"/>
<path d="M23.3828 17.1968C23.3828 18.4502 22.7015 19.2026 21.2474 19.2026H18.8399V15.2363H21.2478C22.7015 15.2363 23.3828 16.0112 23.3828 17.1968ZM12.625 12L14.9559 15.244V27.9987H18.8403V21.96H19.7718L23.0887 28H27.473L23.7929 21.6636C24.8204 21.4127 25.7317 20.8173 26.376 19.976C27.0202 19.1347 27.3589 18.0978 27.3358 17.0371C27.3358 14.2564 25.3824 12 21.4751 12H12.625Z" fill="#FF4754"/>
<rect x="5" y="51" width="30" height="30" rx="15" fill="#EDD0FF"/>
<rect x="5" y="89" width="30" height="30" rx="15" fill="#FFD3D3"/>
<rect x="5" y="127" width="30" height="30" rx="15" fill="#D0FFDD"/>
<rect x="5" y="165" width="30" height="30" rx="15" fill="#FFF7CC"/>
<line x1="7" y1="42" x2="35" y2="42" stroke="#6B6969" stroke-width="2"/>
</g>
</g>
<defs>
<filter id="filter0_d" x="-4" y="0" width="48" height="328" filterUnits="userSpaceOnUse" color-interpolation-filters="sRGB">
<feFlood flood-opacity="0" result="BackgroundImageFix"/>
<feColorMatrix in="SourceAlpha" type="matrix" values="0 0 0 0 0 0 0 0 0 0 0 0 0 0 0 0 0 0 127 0"/>
<feOffset dy="4"/>
<feGaussianBlur stdDeviation="2"/>
<feColorMatrix type="matrix" values="0 0 0 0 0 0 0 0 0 0 0 0 0 0 0 0 0 0 0.1 0"/>
<feBlend mode="normal" in2="BackgroundImageFix" result="effect1_dropShadow"/>
<feBlend mode="normal" in="SourceGraphic" in2="effect1_dropShadow" result="shape"/>
</filter>
<clipPath id="clip0">
<rect width="480" height="320" fill="white"/>
</clipPath>
<clipPath id="clip1">
<rect x="49" width="131" height="38" rx="10" fill="white"/>
</clipPath>
</defs>
</svg>
