<svg width="500" height="500" viewBox="0 0 500 500" fill="none" xmlns="http://www.w3.org/2000/svg">
<rect width="500" height="500" rx="250" fill="url(#paint0_linear_273_12)"/>
<path d="M170.057 373C170.057 297.671 170.057 248.292 170.057 184.167L122 127H277.429C295.891 127 312.046 130.323 325.893 136.97C339.739 143.616 350.509 153.186 358.202 165.678C365.894 178.17 369.741 193.145 369.741 210.602C369.741 228.219 365.773 243.073 357.837 255.165C349.983 267.257 338.93 276.386 324.678 282.552C310.507 288.718 293.948 291.801 275 291.801H210.868V239.91H261.396C269.332 239.91 276.093 238.949 281.68 237.027C287.349 235.025 291.681 231.862 294.677 227.538C297.754 223.214 299.292 217.568 299.292 210.602C299.292 203.555 297.754 197.829 294.677 193.425C291.681 188.94 287.349 185.657 281.68 183.575C276.093 181.413 269.332 180.332 261.396 180.332H237.59V373H170.057ZM315.811 260.09L378 373H304.637L243.906 260.09H315.811Z" fill="#FF005C"/>
<defs>
<linearGradient id="paint0_linear_273_12" x1="17.4479" y1="13.8889" x2="589.73" y2="199.249" gradientUnits="userSpaceOnUse">
<stop stop-color="#070C1A"/>
<stop offset="1" stop-color="#262B37"/>
</linearGradient>
</defs>
</svg>
