<svg width="745" height="430" viewBox="0 0 745 430" fill="none" xmlns="http://www.w3.org/2000/svg">
<path d="M423.754 186.246C421.775 184.266 419.425 182.695 416.838 181.623C414.252 180.552 411.48 180 408.68 180C405.88 180 403.108 180.552 400.522 181.623C397.935 182.695 395.585 184.266 393.606 186.246L389.499 190.353L385.391 186.246C381.393 182.248 375.971 180.002 370.318 180.002C364.664 180.002 359.242 182.248 355.244 186.246C351.246 190.244 349 195.666 349 201.32C349 206.973 351.246 212.396 355.244 216.393L359.351 220.501L389.499 250.648L419.646 220.501L423.754 216.393C425.734 214.414 427.305 212.064 428.376 209.478C429.448 206.891 430 204.119 430 201.32C430 198.52 429.448 195.748 428.376 193.161C427.305 190.575 425.734 188.225 423.754 186.246V186.246Z" fill="#FF4654" stroke="#CF212E" stroke-width="7.75" stroke-linecap="round" stroke-linejoin="round"/>
<path d="M518.273 228.695L514.441 232.562L490.816 212.84L514.441 193.117L518.273 197.02L499.113 212.77L518.273 228.695ZM561.217 214.07C561.217 216.812 560.831 219.332 560.057 221.629C559.284 223.902 558.171 225.859 556.717 227.5C555.264 229.117 553.495 230.383 551.409 231.297C549.323 232.188 546.956 232.633 544.307 232.633C541.776 232.633 539.503 232.246 537.487 231.473C535.495 230.676 533.796 229.516 532.389 227.992C531.007 226.469 529.94 224.582 529.19 222.332C528.464 220.082 528.1 217.492 528.1 214.562C528.1 211.82 528.487 209.324 529.26 207.074C530.034 204.801 531.147 202.855 532.6 201.238C534.053 199.598 535.823 198.332 537.909 197.441C539.995 196.527 542.362 196.07 545.01 196.07C547.542 196.07 549.803 196.469 551.796 197.266C553.811 198.039 555.51 199.188 556.893 200.711C558.3 202.211 559.366 204.086 560.092 206.336C560.842 208.586 561.217 211.164 561.217 214.07ZM554.96 214.352C554.96 212.172 554.714 210.273 554.221 208.656C553.753 207.016 553.073 205.656 552.182 204.578C551.292 203.477 550.202 202.656 548.913 202.117C547.647 201.555 546.229 201.273 544.659 201.273C542.831 201.273 541.26 201.637 539.948 202.363C538.659 203.066 537.592 204.016 536.749 205.211C535.928 206.406 535.319 207.801 534.921 209.395C534.546 210.965 534.358 212.617 534.358 214.352C534.358 216.531 534.592 218.441 535.061 220.082C535.553 221.723 536.245 223.094 537.135 224.195C538.026 225.273 539.104 226.094 540.37 226.656C541.635 227.195 543.065 227.465 544.659 227.465C546.487 227.465 548.046 227.113 549.335 226.41C550.647 225.684 551.714 224.723 552.534 223.527C553.378 222.332 553.987 220.949 554.362 219.379C554.76 217.785 554.96 216.109 554.96 214.352ZM597.306 222.367C597.306 223.609 597.095 224.723 596.673 225.707C596.251 226.691 595.677 227.57 594.951 228.344C594.224 229.094 593.38 229.738 592.419 230.277C591.458 230.816 590.427 231.262 589.326 231.613C588.247 231.965 587.134 232.223 585.986 232.387C584.837 232.551 583.712 232.633 582.611 232.633C580.22 232.633 578.017 232.527 576.001 232.316C574.009 232.105 572.052 231.766 570.13 231.297V225.672C572.193 226.258 574.244 226.703 576.283 227.008C578.322 227.312 580.349 227.465 582.365 227.465C585.294 227.465 587.462 227.066 588.869 226.27C590.275 225.473 590.978 224.336 590.978 222.859C590.978 222.227 590.861 221.664 590.626 221.172C590.415 220.656 590.017 220.176 589.431 219.73C588.845 219.262 587.931 218.781 586.689 218.289C585.47 217.797 583.794 217.234 581.662 216.602C580.068 216.133 578.591 215.605 577.232 215.02C575.896 214.41 574.736 213.695 573.751 212.875C572.767 212.055 571.994 211.094 571.431 209.992C570.869 208.891 570.587 207.59 570.587 206.09C570.587 205.105 570.81 204.027 571.255 202.855C571.724 201.684 572.509 200.594 573.611 199.586C574.712 198.578 576.201 197.746 578.076 197.09C579.951 196.41 582.294 196.07 585.107 196.07C586.49 196.07 588.025 196.152 589.712 196.316C591.4 196.457 593.158 196.715 594.986 197.09V202.539C593.064 202.07 591.236 201.73 589.501 201.52C587.79 201.285 586.302 201.168 585.037 201.168C583.513 201.168 582.224 201.285 581.169 201.52C580.138 201.754 579.294 202.082 578.638 202.504C578.005 202.902 577.548 203.383 577.267 203.945C576.986 204.484 576.845 205.07 576.845 205.703C576.845 206.336 576.962 206.91 577.197 207.426C577.455 207.941 577.912 208.445 578.568 208.938C579.247 209.406 580.185 209.887 581.38 210.379C582.576 210.848 584.134 211.363 586.056 211.926C588.142 212.535 589.9 213.18 591.33 213.859C592.759 214.516 593.919 215.254 594.81 216.074C595.701 216.895 596.333 217.82 596.708 218.852C597.107 219.883 597.306 221.055 597.306 222.367ZM636.172 222.367C636.172 223.609 635.961 224.723 635.539 225.707C635.117 226.691 634.543 227.57 633.817 228.344C633.09 229.094 632.246 229.738 631.285 230.277C630.324 230.816 629.293 231.262 628.192 231.613C627.113 231.965 626 232.223 624.852 232.387C623.703 232.551 622.578 232.633 621.477 232.633C619.086 232.633 616.883 232.527 614.867 232.316C612.875 232.105 610.918 231.766 608.996 231.297V225.672C611.059 226.258 613.11 226.703 615.149 227.008C617.188 227.312 619.215 227.465 621.231 227.465C624.16 227.465 626.328 227.066 627.735 226.27C629.141 225.473 629.844 224.336 629.844 222.859C629.844 222.227 629.727 221.664 629.492 221.172C629.281 220.656 628.883 220.176 628.297 219.73C627.711 219.262 626.797 218.781 625.555 218.289C624.336 217.797 622.66 217.234 620.527 216.602C618.934 216.133 617.457 215.605 616.098 215.02C614.762 214.41 613.602 213.695 612.617 212.875C611.633 212.055 610.86 211.094 610.297 209.992C609.735 208.891 609.453 207.59 609.453 206.09C609.453 205.105 609.676 204.027 610.121 202.855C610.59 201.684 611.375 200.594 612.477 199.586C613.578 198.578 615.067 197.746 616.942 197.09C618.817 196.41 621.16 196.07 623.973 196.07C625.356 196.07 626.891 196.152 628.578 196.316C630.266 196.457 632.024 196.715 633.852 197.09V202.539C631.93 202.07 630.102 201.73 628.367 201.52C626.656 201.285 625.168 201.168 623.902 201.168C622.379 201.168 621.09 201.285 620.035 201.52C619.004 201.754 618.16 202.082 617.504 202.504C616.871 202.902 616.414 203.383 616.133 203.945C615.852 204.484 615.711 205.07 615.711 205.703C615.711 206.336 615.828 206.91 616.063 207.426C616.32 207.941 616.777 208.445 617.434 208.938C618.113 209.406 619.051 209.887 620.246 210.379C621.442 210.848 623 211.363 624.922 211.926C627.008 212.535 628.766 213.18 630.195 213.859C631.625 214.516 632.785 215.254 633.676 216.074C634.567 216.895 635.199 217.82 635.574 218.852C635.973 219.883 636.172 221.055 636.172 222.367ZM676.18 182.324L652.063 239.559H646.227L670.344 182.324H676.18ZM689.117 197.02L692.914 193.117L716.539 212.84L692.914 232.562L689.117 228.695L708.277 212.91L689.117 197.02Z" fill="white"/>
<path d="M57.5871 205.88C57.5871 209.781 55.4599 212.122 50.9201 212.122H43.4036V199.78H50.9215C55.4599 199.78 57.5871 202.191 57.5871 205.88ZM24 189.71L31.2772 199.804V239.493H43.405V220.702H46.313L56.6691 239.497H70.3572L58.8676 219.78C62.0755 218.999 64.9206 217.146 66.9321 214.529C68.9436 211.911 70.0009 208.684 69.929 205.384C69.929 196.731 63.8301 189.71 51.631 189.71H24ZM108.017 189.71H77.5169V239.493H108.014V229.78H89.6446V218.865H105.887V209.497H89.6446V199.791H108.014L108.017 189.71ZM137.379 227.299L125.038 189.71H112.127L129.787 239.493H144.965L162.625 189.71H149.788L137.379 227.299ZM216.671 214.462C216.671 199.497 205.394 189 191.209 189C177.096 189 165.599 199.496 165.599 214.462C165.533 217.839 166.151 221.195 167.416 224.328C168.681 227.461 170.566 230.305 172.959 232.69C175.351 235.075 178.201 236.952 181.338 238.207C184.474 239.462 187.832 240.07 191.209 239.994C194.579 240.066 197.928 239.454 201.054 238.196C204.18 236.938 207.019 235.058 209.399 232.672C211.778 230.286 213.649 227.441 214.899 224.312C216.148 221.182 216.75 217.831 216.668 214.462H216.671ZM178.018 214.462C178.018 205.596 183.125 199.994 191.209 199.994C199.153 199.994 204.331 205.592 204.331 214.462C204.331 223.185 199.153 228.929 191.209 228.929C183.122 228.929 178.015 223.185 178.015 214.462H178.018ZM223.405 189.71V239.493H251.423V229.766H235.532V189.71H223.405ZM254.541 199.786H267.732V239.493H279.86V199.783H293.051V189.707H254.541V199.786Z" fill="white" stroke="white" stroke-width="1.39946"/>
</svg>
