<svg width="699" height="84" viewBox="0 0 699 84" fill="none" xmlns="http://www.w3.org/2000/svg">
<path d="M401.754 13.2458C399.775 11.2657 397.425 9.69495 394.838 8.62327C392.252 7.5516 389.48 7 386.68 7C383.88 7 381.108 7.5516 378.522 8.62327C375.935 9.69495 373.585 11.2657 371.606 13.2458L367.499 17.3533L363.391 13.2458C359.393 9.24802 353.971 7.00207 348.318 7.00207C342.664 7.00207 337.242 9.24802 333.244 13.2458C329.246 17.2436 327 22.6658 327 28.3196C327 33.9733 329.246 39.3955 333.244 43.3933L337.351 47.5008L367.499 77.6483L397.646 47.5008L401.754 43.3933C403.734 41.4141 405.305 39.0642 406.376 36.4778C407.448 33.8914 408 31.1192 408 28.3196C408 25.5199 407.448 22.7477 406.376 20.1613C405.305 17.5749 403.734 15.225 401.754 13.2458V13.2458Z" fill="#FF4654" stroke="#CF212E" stroke-width="7.75" stroke-linecap="round" stroke-linejoin="round"/>
<path d="M496.273 55.6953L492.441 59.5625L468.816 39.8398L492.441 20.1172L496.273 24.0195L477.113 39.7695L496.273 55.6953ZM536.862 9.32422L512.745 66.5586H506.909L531.026 9.32422H536.862ZM578.083 41.0703C578.083 43.8125 577.697 46.332 576.923 48.6289C576.15 50.9023 575.037 52.8594 573.583 54.5C572.13 56.1172 570.361 57.3828 568.275 58.2969C566.189 59.1875 563.822 59.6328 561.173 59.6328C558.642 59.6328 556.369 59.2461 554.353 58.4727C552.361 57.6758 550.662 56.5156 549.255 54.9922C547.872 53.4688 546.806 51.582 546.056 49.332C545.33 47.082 544.966 44.4922 544.966 41.5625C544.966 38.8203 545.353 36.3242 546.126 34.0742C546.9 31.8008 548.013 29.8555 549.466 28.2383C550.919 26.5977 552.689 25.332 554.775 24.4414C556.861 23.5273 559.228 23.0703 561.876 23.0703C564.408 23.0703 566.669 23.4688 568.662 24.2656C570.677 25.0391 572.376 26.1875 573.759 27.7109C575.165 29.2109 576.232 31.0859 576.958 33.3359C577.708 35.5859 578.083 38.1641 578.083 41.0703ZM571.826 41.3516C571.826 39.1719 571.58 37.2734 571.087 35.6562C570.619 34.0156 569.939 32.6562 569.048 31.5781C568.158 30.4766 567.068 29.6562 565.779 29.1172C564.513 28.5547 563.095 28.2734 561.525 28.2734C559.697 28.2734 558.126 28.6367 556.814 29.3633C555.525 30.0664 554.458 31.0156 553.615 32.2109C552.794 33.4062 552.185 34.8008 551.787 36.3945C551.412 37.9648 551.224 39.6172 551.224 41.3516C551.224 43.5312 551.458 45.4414 551.927 47.082C552.419 48.7227 553.111 50.0938 554.001 51.1953C554.892 52.2734 555.97 53.0938 557.236 53.6562C558.501 54.1953 559.931 54.4648 561.525 54.4648C563.353 54.4648 564.912 54.1133 566.201 53.4102C567.513 52.6836 568.58 51.7227 569.4 50.5273C570.244 49.332 570.853 47.9492 571.228 46.3789C571.626 44.7852 571.826 43.1094 571.826 41.3516ZM614.172 49.3672C614.172 50.6094 613.961 51.7227 613.539 52.707C613.117 53.6914 612.543 54.5703 611.817 55.3438C611.09 56.0938 610.246 56.7383 609.285 57.2773C608.324 57.8164 607.293 58.2617 606.192 58.6133C605.113 58.9648 604 59.2227 602.852 59.3867C601.703 59.5508 600.578 59.6328 599.477 59.6328C597.086 59.6328 594.883 59.5273 592.867 59.3164C590.875 59.1055 588.918 58.7656 586.996 58.2969V52.6719C589.059 53.2578 591.11 53.7031 593.149 54.0078C595.188 54.3125 597.215 54.4648 599.231 54.4648C602.16 54.4648 604.328 54.0664 605.735 53.2695C607.141 52.4727 607.844 51.3359 607.844 49.8594C607.844 49.2266 607.727 48.6641 607.492 48.1719C607.281 47.6562 606.883 47.1758 606.297 46.7305C605.711 46.2617 604.797 45.7812 603.555 45.2891C602.336 44.7969 600.66 44.2344 598.527 43.6016C596.934 43.1328 595.457 42.6055 594.098 42.0195C592.762 41.4102 591.602 40.6953 590.617 39.875C589.633 39.0547 588.86 38.0938 588.297 36.9922C587.735 35.8906 587.453 34.5898 587.453 33.0898C587.453 32.1055 587.676 31.0273 588.121 29.8555C588.59 28.6836 589.375 27.5938 590.477 26.5859C591.578 25.5781 593.067 24.7461 594.942 24.0898C596.817 23.4102 599.16 23.0703 601.973 23.0703C603.356 23.0703 604.891 23.1523 606.578 23.3164C608.266 23.457 610.024 23.7148 611.852 24.0898V29.5391C609.93 29.0703 608.102 28.7305 606.367 28.5195C604.656 28.2852 603.168 28.168 601.902 28.168C600.379 28.168 599.09 28.2852 598.035 28.5195C597.004 28.7539 596.16 29.082 595.504 29.5039C594.871 29.9023 594.414 30.3828 594.133 30.9453C593.852 31.4844 593.711 32.0703 593.711 32.7031C593.711 33.3359 593.828 33.9102 594.063 34.4258C594.32 34.9414 594.777 35.4453 595.434 35.9375C596.113 36.4062 597.051 36.8867 598.246 37.3789C599.442 37.8477 601 38.3633 602.922 38.9258C605.008 39.5352 606.766 40.1797 608.195 40.8594C609.625 41.5156 610.785 42.2539 611.676 43.0742C612.567 43.8945 613.199 44.8203 613.574 45.8516C613.973 46.8828 614.172 48.0547 614.172 49.3672ZM653.038 49.3672C653.038 50.6094 652.827 51.7227 652.405 52.707C651.983 53.6914 651.409 54.5703 650.682 55.3438C649.956 56.0938 649.112 56.7383 648.151 57.2773C647.19 57.8164 646.159 58.2617 645.057 58.6133C643.979 58.9648 642.866 59.2227 641.718 59.3867C640.569 59.5508 639.444 59.6328 638.343 59.6328C635.952 59.6328 633.749 59.5273 631.733 59.3164C629.741 59.1055 627.784 58.7656 625.862 58.2969V52.6719C627.925 53.2578 629.975 53.7031 632.015 54.0078C634.054 54.3125 636.081 54.4648 638.097 54.4648C641.026 54.4648 643.194 54.0664 644.6 53.2695C646.007 52.4727 646.71 51.3359 646.71 49.8594C646.71 49.2266 646.593 48.6641 646.358 48.1719C646.147 47.6562 645.749 47.1758 645.163 46.7305C644.577 46.2617 643.663 45.7812 642.421 45.2891C641.202 44.7969 639.526 44.2344 637.393 43.6016C635.8 43.1328 634.323 42.6055 632.964 42.0195C631.628 41.4102 630.468 40.6953 629.483 39.875C628.499 39.0547 627.725 38.0938 627.163 36.9922C626.6 35.8906 626.319 34.5898 626.319 33.0898C626.319 32.1055 626.542 31.0273 626.987 29.8555C627.456 28.6836 628.241 27.5938 629.343 26.5859C630.444 25.5781 631.932 24.7461 633.807 24.0898C635.682 23.4102 638.026 23.0703 640.839 23.0703C642.222 23.0703 643.757 23.1523 645.444 23.3164C647.132 23.457 648.89 23.7148 650.718 24.0898V29.5391C648.796 29.0703 646.968 28.7305 645.233 28.5195C643.522 28.2852 642.034 28.168 640.768 28.168C639.245 28.168 637.956 28.2852 636.901 28.5195C635.87 28.7539 635.026 29.082 634.37 29.5039C633.737 29.9023 633.28 30.3828 632.999 30.9453C632.718 31.4844 632.577 32.0703 632.577 32.7031C632.577 33.3359 632.694 33.9102 632.929 34.4258C633.186 34.9414 633.643 35.4453 634.3 35.9375C634.979 36.4062 635.917 36.8867 637.112 37.3789C638.307 37.8477 639.866 38.3633 641.788 38.9258C643.874 39.5352 645.632 40.1797 647.061 40.8594C648.491 41.5156 649.651 42.2539 650.542 43.0742C651.432 43.8945 652.065 44.8203 652.44 45.8516C652.839 46.8828 653.038 48.0547 653.038 49.3672ZM666.397 24.0195L670.194 20.1172L693.819 39.8398L670.194 59.5625L666.397 55.6953L685.557 39.9102L666.397 24.0195Z" fill="white"/>
<path d="M35.5871 32.8803C35.5871 36.7806 33.4599 39.1219 28.9201 39.1219H21.4036V26.7801H28.9215C33.4599 26.7801 35.5871 29.1913 35.5871 32.8803ZM2 16.7095L9.27721 26.8039V66.4926H21.405V47.702H24.313L34.6691 66.4968H48.3572L36.8676 46.7798C40.0755 45.9991 42.9206 44.1465 44.9321 41.5285C46.9436 38.9106 48.0009 35.6842 47.929 32.3835C47.929 23.7306 41.8301 16.7095 29.631 16.7095H2ZM86.0168 16.7095H55.5169V66.4926H86.014V56.7804H67.6446V45.8645H83.8868V36.4965H67.6446V26.7913H86.014L86.0168 16.7095ZM115.379 54.2991L103.038 16.7095H90.127L107.787 66.4926H122.965L140.625 16.7095H127.788L115.379 54.2991ZM194.671 41.4618C194.671 26.4974 183.394 16 169.209 16C155.096 16 143.599 26.496 143.599 41.4618C143.533 44.8394 144.151 48.1954 145.416 51.328C146.681 54.4605 148.566 57.3049 150.959 59.69C153.351 62.0751 156.201 63.9517 159.338 65.2068C162.474 66.462 165.832 67.0698 169.209 66.9936C172.579 67.0659 175.928 66.4544 179.054 65.196C182.18 63.9376 185.019 62.0584 187.399 59.672C189.778 57.2855 191.649 54.4415 192.899 51.3116C194.148 48.1817 194.75 44.8309 194.668 41.4618H194.671ZM156.018 41.4618C156.018 32.5962 161.125 26.9942 169.209 26.9942C177.153 26.9942 182.331 32.592 182.331 41.4618C182.331 50.1847 177.153 55.9295 169.209 55.9295C161.122 55.9295 156.015 50.1847 156.015 41.4618H156.018ZM201.405 16.7095V66.4926H229.423V56.7664H213.532V16.7095H201.405ZM232.541 26.7857H245.732V66.4926H257.86V26.7829H271.051V16.7067H232.541V26.7857Z" fill="white" stroke="white" stroke-width="1.39946"/>
</svg>
