<?xml version="1.0" standalone="no"?><!-- Generator: Gravit.io --><svg xmlns="http://www.w3.org/2000/svg" xmlns:xlink="http://www.w3.org/1999/xlink" style="isolation:isolate" viewBox="174.38 447 1574.24 185.076" width="1574.24" height="185.076"><g id="revoltxuvid"><g id="Group"><path d=" M 1454.859 510.557 L 1487.201 595.542 C 1489.036 600.367 1492.003 600.363 1493.818 595.528 L 1525.774 510.57 C 1527.97 505.474 1532.877 502.075 1538.42 501.812 L 1541.93 501.812 C 1547.091 501.812 1549.756 505.718 1547.872 510.523 L 1505.953 617.564 C 1503.677 622.639 1498.743 626.005 1493.188 626.275 L 1487.412 626.275 C 1481.856 626.006 1476.922 622.639 1474.647 617.564 L 1432.728 510.525 C 1430.847 505.718 1433.51 501.814 1438.673 501.814 L 1442.174 501.814 C 1447.722 502.076 1452.64 505.466 1454.859 510.557 L 1454.859 510.557 Z  M 1580.813 501.812 L 1582.744 501.812 C 1587.909 501.815 1592.094 506.003 1592.096 511.168 L 1592.096 616.921 C 1592.094 622.086 1587.909 626.273 1582.744 626.276 L 1580.819 626.276 C 1575.654 626.273 1571.468 622.086 1571.466 616.921 L 1571.466 511.168 C 1571.469 506.005 1575.651 501.82 1580.813 501.814 L 1580.813 501.812 Z  M 1676.201 500.227 L 1676.201 500.227 Q 1694.338 500.227 1706.919 509.295 L 1706.919 509.295 C 1715.25 515.263 1721.416 523.776 1724.488 533.552 L 1724.488 533.552 L 1724.488 467.859 C 1724.491 462.694 1728.678 458.508 1733.843 458.507 L 1735.765 458.507 C 1740.93 458.508 1745.117 462.694 1745.12 467.859 L 1745.12 616.922 C 1745.119 622.088 1740.931 626.276 1735.765 626.278 L 1733.843 626.278 C 1728.677 626.276 1724.489 622.088 1724.488 616.922 L 1724.488 594.538 L 1724.488 594.538 C 1721.416 604.314 1715.25 612.827 1706.919 618.795 L 1706.919 618.795 Q 1694.338 627.863 1676.201 627.863 L 1676.201 627.863 C 1665.857 628.047 1655.661 625.381 1646.729 620.159 L 1646.729 620.159 C 1637.989 614.886 1630.946 607.215 1626.438 598.056 L 1626.438 598.056 Q 1619.069 583.661 1619.069 564.159 L 1619.069 564.159 Q 1619.069 544.663 1626.438 530.156 L 1626.438 530.156 C 1630.922 520.951 1637.967 513.236 1646.729 507.939 L 1646.729 507.939 C 1655.661 502.717 1665.857 500.052 1676.201 500.235 L 1676.201 500.227 Z  M 1682.094 518.59 L 1682.094 518.59 Q 1663.051 518.59 1651.604 530.717 L 1651.604 530.717 Q 1640.154 542.847 1640.154 564.156 L 1640.154 564.156 Q 1640.154 585.468 1651.604 597.598 L 1651.604 597.598 Q 1663.053 609.725 1682.094 609.725 L 1682.094 609.725 C 1689.765 609.854 1697.326 607.896 1703.97 604.06 L 1703.97 604.06 C 1710.407 600.266 1715.636 594.724 1719.047 588.076 L 1719.047 588.076 C 1722.797 580.67 1724.665 572.455 1724.486 564.156 L 1724.486 564.156 C 1724.656 555.823 1722.789 547.574 1719.047 540.126 L 1719.047 540.126 C 1715.679 533.448 1710.44 527.895 1703.97 524.142 L 1703.97 524.142 C 1697.303 520.377 1689.75 518.46 1682.094 518.59 L 1682.094 518.59 Z " fill-rule="evenodd" fill="rgb(255,255,255)" vector-effect="non-scaling-stroke" stroke-width="7" stroke="rgb(255,255,255)" stroke-linejoin="miter" stroke-linecap="butt" stroke-miterlimit="4"/></g><g id="Group"><path d=" M 290.788 509.792 C 290.788 523.252 283.447 531.331 267.78 531.331 L 241.841 531.331 L 241.841 488.74 L 267.785 488.74 C 283.447 488.74 290.788 497.061 290.788 509.792 Z  M 174.88 453.987 L 199.993 488.822 L 199.993 625.787 L 241.846 625.787 L 241.846 560.941 L 251.882 560.941 L 287.62 625.802 L 334.858 625.802 L 295.207 557.759 C 318.014 552.208 333.891 531.544 333.38 508.077 C 333.38 478.216 312.333 453.987 270.234 453.987 L 174.88 453.987 Z  M 464.82 453.987 L 359.566 453.987 L 359.566 625.787 L 464.81 625.787 L 464.81 592.27 L 401.418 592.27 L 401.418 554.6 L 457.47 554.6 L 457.47 522.271 L 401.418 522.271 L 401.418 488.779 L 464.81 488.779 L 464.82 453.987 Z  M 566.148 583.708 L 523.562 453.987 L 479.004 453.987 L 539.948 625.787 L 592.329 625.787 L 653.273 453.987 L 608.972 453.987 L 566.148 583.708 Z  M 839.784 539.406 C 839.784 487.764 800.868 451.538 751.916 451.538 C 703.21 451.538 663.535 487.76 663.535 539.406 C 663.077 562.959 672.25 585.679 688.933 602.312 C 705.616 618.944 728.364 628.047 751.916 627.516 C 775.412 628.02 798.092 618.891 814.687 602.249 C 831.281 585.607 840.346 562.901 839.774 539.406 L 839.784 539.406 Z  M 706.393 539.406 C 706.393 508.811 724.016 489.479 751.916 489.479 C 779.328 489.479 797.197 508.797 797.197 539.406 C 797.197 569.509 779.328 589.334 751.916 589.334 C 724.006 589.334 706.383 569.509 706.383 539.406 L 706.393 539.406 Z  M 863.024 453.987 L 863.024 625.787 L 959.71 625.787 L 959.71 592.222 L 904.871 592.222 L 904.871 453.987 L 863.024 453.987 Z  M 970.471 488.759 L 1015.994 488.759 L 1015.994 625.787 L 1057.846 625.787 L 1057.846 488.75 L 1103.369 488.75 L 1103.369 453.977 L 970.471 453.977 L 970.471 488.759 Z " fill="rgb(255,255,255)" vector-effect="non-scaling-stroke" stroke-width="1" stroke="rgb(255,255,255)" stroke-linejoin="miter" stroke-linecap="butt" stroke-miterlimit="4"/><path d=" M 1157.717 571.625 L 1179.472 538.849 L 1158.808 507.451 L 1178.669 507.451 L 1191.125 527.886 L 1203.695 507.451 L 1223.556 507.451 L 1202.662 538.849 L 1224.532 571.625 L 1204.614 571.625 L 1191.125 549.641 L 1177.578 571.625 L 1157.717 571.625 Z " fill="rgb(255,255,255)"/><g id="Group-2"><path d=" M 1454.859 510.557 L 1487.201 595.542 C 1489.036 600.367 1492.003 600.363 1493.818 595.528 L 1525.774 510.57 C 1527.97 505.474 1532.877 502.075 1538.42 501.812 L 1541.93 501.812 C 1547.091 501.812 1549.756 505.718 1547.872 510.523 L 1505.953 617.564 C 1503.677 622.639 1498.743 626.005 1493.188 626.275 L 1487.412 626.275 C 1481.856 626.006 1476.922 622.639 1474.647 617.564 L 1432.728 510.525 C 1430.847 505.718 1433.51 501.814 1438.673 501.814 L 1442.174 501.814 C 1447.722 502.076 1452.64 505.466 1454.859 510.557 L 1454.859 510.557 Z  M 1580.813 501.812 L 1582.744 501.812 C 1587.909 501.815 1592.094 506.003 1592.096 511.168 L 1592.096 616.921 C 1592.094 622.086 1587.909 626.273 1582.744 626.276 L 1580.819 626.276 C 1575.654 626.273 1571.468 622.086 1571.466 616.921 L 1571.466 511.168 C 1571.469 506.005 1575.651 501.82 1580.813 501.814 L 1580.813 501.812 Z  M 1676.201 500.227 L 1676.201 500.227 Q 1694.338 500.227 1706.919 509.295 L 1706.919 509.295 C 1715.25 515.263 1721.416 523.776 1724.488 533.552 L 1724.488 533.552 L 1724.488 467.859 C 1724.491 462.694 1728.678 458.508 1733.843 458.507 L 1735.765 458.507 C 1740.93 458.508 1745.117 462.694 1745.12 467.859 L 1745.12 616.922 C 1745.119 622.088 1740.931 626.276 1735.765 626.278 L 1733.843 626.278 C 1728.677 626.276 1724.489 622.088 1724.488 616.922 L 1724.488 594.538 L 1724.488 594.538 C 1721.416 604.314 1715.25 612.827 1706.919 618.795 L 1706.919 618.795 Q 1694.338 627.863 1676.201 627.863 L 1676.201 627.863 C 1665.857 628.047 1655.661 625.381 1646.729 620.159 L 1646.729 620.159 C 1637.989 614.886 1630.946 607.215 1626.438 598.056 L 1626.438 598.056 Q 1619.069 583.661 1619.069 564.159 L 1619.069 564.159 Q 1619.069 544.663 1626.438 530.156 L 1626.438 530.156 C 1630.922 520.951 1637.967 513.236 1646.729 507.939 L 1646.729 507.939 C 1655.661 502.717 1665.857 500.052 1676.201 500.235 L 1676.201 500.227 Z  M 1682.094 518.59 L 1682.094 518.59 Q 1663.051 518.59 1651.604 530.717 L 1651.604 530.717 Q 1640.154 542.847 1640.154 564.156 L 1640.154 564.156 Q 1640.154 585.468 1651.604 597.598 L 1651.604 597.598 Q 1663.053 609.725 1682.094 609.725 L 1682.094 609.725 C 1689.765 609.854 1697.326 607.896 1703.97 604.06 L 1703.97 604.06 C 1710.407 600.266 1715.636 594.724 1719.047 588.076 L 1719.047 588.076 C 1722.797 580.67 1724.665 572.455 1724.486 564.156 L 1724.486 564.156 C 1724.656 555.823 1722.789 547.574 1719.047 540.126 L 1719.047 540.126 C 1715.679 533.448 1710.44 527.895 1703.97 524.142 L 1703.97 524.142 C 1697.303 520.377 1689.75 518.46 1682.094 518.59 L 1682.094 518.59 Z " fill-rule="evenodd" fill="rgb(255,255,255)" vector-effect="non-scaling-stroke" stroke-width="7" stroke="rgb(255,255,255)" stroke-linejoin="miter" stroke-linecap="butt" stroke-miterlimit="4"/><g id="Group_8"><path d=" M 1298.153 497.309 L 1301.831 497.309 C 1309.579 497.313 1315.859 503.593 1315.863 511.341 L 1316.19 564.28 L 1316.19 564.28 Q 1316.19 583.097 1324.464 592.507 L 1324.464 592.507 Q 1332.737 601.912 1348.381 601.912 L 1348.381 601.912 Q 1363.797 601.912 1372.073 592.507 L 1372.073 592.507 Q 1380.347 583.098 1380.347 564.28 L 1380.347 564.28 L 1380.021 511.341 C 1380.025 503.593 1386.305 497.313 1394.053 497.309 L 1397.729 497.309 C 1405.477 497.313 1411.757 503.593 1411.761 511.341 L 1412.087 564.28 L 1412.087 564.28 Q 1412.087 586.496 1403.811 601.802 L 1403.811 601.802 C 1398.719 611.581 1390.72 619.541 1380.915 624.583 L 1380.915 624.583 C 1370.603 629.7 1359.213 632.267 1347.703 632.065 L 1347.703 632.065 Q 1318.908 632.065 1301.68 614.837 L 1301.68 614.837 Q 1284.451 597.608 1284.451 564.28 L 1284.451 564.28 L 1284.125 511.341 C 1284.128 503.595 1290.406 497.315 1298.153 497.309 L 1298.153 497.309 Z " fill-rule="evenodd" fill="rgb(255,255,255)"/><g id="Group_7"><path d=" M 1358.688 464.509 C 1358.688 454.845 1366.534 447 1376.197 447 C 1385.86 447 1393.706 454.845 1393.706 464.509 C 1393.706 474.172 1385.86 482.018 1376.197 482.018 C 1366.534 482.018 1358.688 474.172 1358.688 464.509 Z " fill="rgb(255,255,255)"/><path d=" M 1302.66 464.509 C 1302.66 454.845 1310.506 447 1320.169 447 C 1329.832 447 1337.678 454.845 1337.678 464.509 C 1337.678 474.172 1329.832 482.018 1320.169 482.018 C 1310.506 482.018 1302.66 474.172 1302.66 464.509 Z " fill="rgb(255,255,255)"/></g></g><path d=" M 1564.592 464.509 C 1564.592 454.845 1572.437 447 1582.101 447 C 1591.764 447 1599.609 454.845 1599.609 464.509 C 1599.609 474.172 1591.764 482.018 1582.101 482.018 C 1572.437 482.018 1564.592 474.172 1564.592 464.509 Z " fill="rgb(255,255,255)"/></g></g></g></svg>