<svg width="648" height="694" viewBox="0 0 648 694" fill="none" xmlns="http://www.w3.org/2000/svg">
<path fill-rule="evenodd" clip-rule="evenodd" d="M224.778 587.23L520.053 643.041L563.905 411.039L268.63 355.228L224.778 587.23ZM533.949 222.81L541.922 180.627L584.104 188.6L576.131 230.783L597.222 234.769C608.41 236.884 618.299 243.356 624.714 252.762C631.13 262.168 633.546 273.737 631.431 284.924L562.235 651.014C560.121 662.201 553.649 672.09 544.243 678.506C534.837 684.921 523.268 687.337 512.08 685.223L216.805 629.412C205.618 627.297 195.729 620.825 189.313 611.419C182.898 602.013 180.481 590.444 182.596 579.257L251.792 213.167C256.217 189.756 278.536 174.533 301.947 178.958L323.038 182.944L331.011 140.762L373.194 148.735L365.221 190.917L533.949 222.81ZM298.253 309.116L295.769 322.26L357.88 334L360.596 319.635L322.677 312.468L322.699 312.351L344.1 299.832C348.784 297.143 352.835 294.516 356.251 291.949C359.714 289.351 362.516 286.527 364.659 283.479C366.801 280.43 368.253 276.89 369.015 272.858C370.049 267.391 369.628 262.392 367.754 257.862C365.926 253.3 362.914 249.478 358.717 246.396C354.521 243.314 349.457 241.212 343.525 240.091C337.089 238.874 331.28 239.122 326.098 240.833C320.923 242.505 316.593 245.441 313.109 249.641C309.67 253.81 307.358 259.035 306.17 265.316L322.629 268.427C323.296 264.899 324.465 262.008 326.136 259.753C327.853 257.468 329.944 255.855 332.411 254.916C334.916 253.984 337.719 253.811 340.821 254.398C343.69 254.94 346.046 255.967 347.888 257.48C349.769 259 351.078 260.894 351.814 263.161C352.596 265.397 352.727 267.892 352.207 270.644C351.701 273.32 350.661 275.633 349.088 277.584C347.553 279.543 345.591 281.32 343.201 282.917C340.811 284.513 338.124 286.194 335.14 287.959L298.253 309.116ZM395.4 324.809C397.566 327.159 400.296 328.645 403.59 329.267C407.35 329.978 410.819 329.369 413.994 327.439C417.17 325.509 419.923 322.416 422.254 318.158C424.585 313.9 426.344 308.631 427.531 302.35C428.725 296.03 429.015 290.463 428.399 285.648C428.232 284.347 428.006 283.114 427.72 281.949L395.4 324.809ZM423.238 272.945C421.105 270.562 418.388 269.059 415.088 268.435C411.327 267.724 407.836 268.349 404.614 270.31C401.438 272.24 398.685 275.334 396.354 279.591C394.062 283.856 392.319 289.149 391.124 295.469C389.937 301.75 389.632 307.294 390.209 312.101C390.377 313.415 390.606 314.659 390.896 315.834L423.238 272.945ZM383.123 334.615C387.714 339.217 393.635 342.203 400.885 343.574C408.136 344.944 414.719 344.321 420.634 341.705C426.596 339.057 431.603 334.663 435.655 328.522C439.746 322.388 442.659 314.727 444.396 305.538C446.14 296.31 446.228 288.095 444.658 280.891C443.134 273.656 440.076 267.737 435.485 263.135C430.94 258.501 425.042 255.499 417.792 254.128C410.503 252.751 403.897 253.389 397.974 256.045C392.051 258.7 387.044 263.094 382.953 269.228C378.901 275.369 376.003 283.053 374.259 292.281C372.522 301.47 372.419 309.662 373.95 316.858C375.52 324.062 378.578 329.981 383.123 334.615ZM444.534 350.379L447.019 337.235L483.906 316.078C486.89 314.313 489.577 312.632 491.967 311.036C494.356 309.439 496.319 307.662 497.854 305.703C499.427 303.752 500.467 301.439 500.972 298.763C501.493 296.011 501.362 293.516 500.58 291.28C499.844 289.013 498.535 287.119 496.654 285.599C494.812 284.086 492.456 283.059 489.587 282.516C486.485 281.93 483.682 282.103 481.176 283.035C478.71 283.974 476.618 285.587 474.901 287.872C473.23 290.126 472.061 293.018 471.395 296.546L454.936 293.435C456.123 287.154 458.436 281.929 461.874 277.76C465.359 273.56 469.688 270.624 474.863 268.951C480.046 267.24 485.855 266.993 492.291 268.21C498.223 269.331 503.287 271.433 507.483 274.515C511.679 277.597 514.691 281.419 516.52 285.981C518.394 290.511 518.814 295.51 517.781 300.977C517.019 305.009 515.567 308.549 513.424 311.598C511.282 314.646 508.48 317.47 505.017 320.068C501.6 322.635 497.55 325.262 492.865 327.951L471.465 340.47L471.443 340.587L509.361 347.754L506.646 362.119L444.534 350.379ZM545.084 307.583L533.805 367.252L551.02 370.506L567.388 283.91L552.209 281.041C551.298 284.162 549.973 286.602 548.235 288.361C546.543 290.089 544.442 291.218 541.933 291.748C539.462 292.285 536.618 292.249 533.4 291.641L530.143 291.025L527.637 304.285L534.674 305.615L540.606 306.736L545.084 307.583Z" fill="white"/>
<path d="M400.322 467.498L505.778 487.431L485.845 592.886L380.39 572.953L400.322 467.498Z" fill="#FF005C"/>
<path d="M18.9674 41.2158L165.557 5.25315C175.635 2.78071 185.812 9.02596 188.285 19.104L228.834 183.995L183.196 156.338L54.93 187.806C44.852 190.278 34.5834 184.055 32.111 173.977L5.13897 64.0349C2.66653 53.9568 8.8893 43.6883 18.9674 41.2158ZM64.2631 146.663L133.685 129.632L129.19 111.308L59.7677 128.339L64.2631 146.663ZM80.9576 113.427L176.427 90.0059L171.932 71.6822L76.4623 95.1036L80.9576 113.427ZM50.7771 91.6917L144.043 68.8108L139.548 50.4871L46.2817 73.3679L50.7771 91.6917Z" fill="white"/>
</svg>
