<svg width="912" height="820" viewBox="0 0 912 820" fill="none" xmlns="http://www.w3.org/2000/svg">
<path d="M169.113 477.93V366.069H249.893V389.042H196.14V412.841H246.515V435.063H196.14V477.93H169.113Z" fill="white"/>
<path d="M310.178 479.732C300.068 479.732 290.959 477.455 282.851 472.9C274.793 468.296 268.412 461.689 263.707 453.081C259.002 444.472 256.65 434.137 256.65 422.075C256.65 409.913 259.002 399.528 263.707 390.919C268.412 382.26 274.793 375.654 282.851 371.099C290.959 366.545 300.068 364.268 310.178 364.268C320.288 364.268 329.372 366.545 337.43 371.099C345.488 375.654 351.87 382.26 356.574 390.919C361.279 399.528 363.631 409.913 363.631 422.075C363.631 434.187 361.279 444.547 356.574 453.156C351.87 461.764 345.488 468.346 337.43 472.9C329.372 477.455 320.288 479.732 310.178 479.732ZM310.178 456.159C315.534 456.159 320.163 454.832 324.067 452.18C328.021 449.477 331.074 445.598 333.226 440.543C335.378 435.438 336.454 429.282 336.454 422.075C336.454 414.818 335.378 408.637 333.226 403.532C331.074 398.426 328.021 394.548 324.067 391.895C320.163 389.192 315.534 387.841 310.178 387.841C304.873 387.841 300.243 389.192 296.289 391.895C292.336 394.548 289.257 398.426 287.055 403.532C284.903 408.637 283.827 414.818 283.827 422.075C283.827 429.282 284.903 435.438 287.055 440.543C289.257 445.598 292.336 449.477 296.289 452.18C300.243 454.832 304.873 456.159 310.178 456.159Z" fill="white"/>
<path d="M419.337 479.732C409.427 479.732 400.993 478.231 394.036 475.228C387.08 472.175 381.774 467.77 378.121 462.015C374.467 456.209 372.64 449.202 372.64 440.994H398.391C398.491 444.547 399.417 447.6 401.169 450.153C402.92 452.705 405.348 454.657 408.451 456.009C411.604 457.36 415.308 458.036 419.562 458.036C423.416 458.036 426.744 457.535 429.547 456.534C432.4 455.533 434.602 454.132 436.153 452.33C437.755 450.478 438.556 448.326 438.556 445.874C438.556 443.771 437.88 441.945 436.529 440.393C435.227 438.792 433.15 437.415 430.297 436.264C427.495 435.063 423.841 433.987 419.337 433.036L407.85 430.709C396.939 428.456 388.706 424.678 383.151 419.372C377.595 414.017 374.817 407.26 374.817 399.102C374.817 392.145 376.644 386.064 380.298 380.859C384.002 375.654 389.157 371.6 395.763 368.697C402.37 365.744 410.052 364.268 418.811 364.268C427.77 364.268 435.478 365.744 441.934 368.697C448.39 371.6 453.395 375.779 456.949 381.234C460.552 386.69 462.479 393.246 462.73 400.904H437.73C437.379 396.249 435.528 392.596 432.174 389.943C428.871 387.29 424.542 385.964 419.186 385.964C415.833 385.964 412.83 386.465 410.177 387.466C407.575 388.467 405.523 389.868 404.021 391.67C402.57 393.422 401.844 395.474 401.844 397.826C401.844 399.878 402.47 401.655 403.721 403.156C404.972 404.608 406.924 405.884 409.577 406.985C412.23 408.086 415.683 409.062 419.937 409.913L429.772 411.865C435.978 413.116 441.308 414.693 445.763 416.595C450.267 418.446 453.946 420.674 456.799 423.276C459.702 425.879 461.829 428.907 463.18 432.36C464.581 435.764 465.282 439.617 465.282 443.922C465.282 451.429 463.455 457.86 459.802 463.216C456.148 468.521 450.893 472.6 444.036 475.453C437.179 478.306 428.946 479.732 419.337 479.732Z" fill="white"/>
<path d="M522.038 479.732C512.129 479.732 503.695 478.231 496.738 475.228C489.781 472.175 484.476 467.77 480.823 462.015C477.169 456.209 475.342 449.202 475.342 440.994H501.093C501.193 444.547 502.119 447.6 503.87 450.153C505.622 452.705 508.05 454.657 511.153 456.009C514.306 457.36 518.009 458.036 522.264 458.036C526.117 458.036 529.446 457.535 532.249 456.534C535.101 455.533 537.304 454.132 538.855 452.33C540.457 450.478 541.258 448.326 541.258 445.874C541.258 443.771 540.582 441.945 539.231 440.393C537.929 438.792 535.852 437.415 532.999 436.264C530.197 435.063 526.543 433.987 522.038 433.036L510.552 430.709C499.641 428.456 491.408 424.678 485.853 419.372C480.297 414.017 477.519 407.26 477.519 399.102C477.519 392.145 479.346 386.064 483 380.859C486.703 375.654 491.859 371.6 498.465 368.697C505.072 365.744 512.754 364.268 521.513 364.268C530.472 364.268 538.179 365.744 544.636 368.697C551.092 371.6 556.097 375.779 559.651 381.234C563.254 386.69 565.181 393.246 565.432 400.904H540.432C540.081 396.249 538.23 392.596 534.876 389.943C531.573 387.29 527.244 385.964 521.888 385.964C518.535 385.964 515.532 386.465 512.879 387.466C510.277 388.467 508.225 389.868 506.723 391.67C505.272 393.422 504.546 395.474 504.546 397.826C504.546 399.878 505.172 401.655 506.423 403.156C507.674 404.608 509.626 405.884 512.279 406.985C514.931 408.086 518.385 409.062 522.639 409.913L532.474 411.865C538.68 413.116 544.01 414.693 548.465 416.595C552.969 418.446 556.648 420.674 559.501 423.276C562.404 425.879 564.531 428.907 565.882 432.36C567.283 435.764 567.984 439.617 567.984 443.922C567.984 451.429 566.157 457.86 562.504 463.216C558.85 468.521 553.595 472.6 546.738 475.453C539.881 478.306 531.648 479.732 522.038 479.732Z" fill="white"/>
<path d="M19.0466 530.628L17.9576 519.42C24.1347 518.819 28.2978 517.158 30.447 514.435C32.6411 511.657 33.4623 507.429 32.9105 501.75L31.4877 487.104C30.9021 481.076 31.1428 476.05 32.21 472.024C33.3269 467.993 35.2236 464.741 37.8999 462.269C40.626 459.791 44.0378 457.901 48.1351 456.598C52.2823 455.29 57.0459 454.374 62.4259 453.852L63.8779 468.796C57.7506 469.392 53.7369 471.039 51.8369 473.738C49.9866 476.432 49.3519 480.767 49.9327 486.745L51.7475 505.426C52.0186 508.216 51.8091 510.976 51.1191 513.709C50.4243 516.391 48.9331 518.899 46.6457 521.233C44.3533 523.518 40.9737 525.48 36.5069 527.121C32.0899 528.757 26.2698 529.926 19.0466 530.628ZM75.9288 592.836C70.5487 593.359 65.698 593.377 61.3766 592.892C57.105 592.402 53.3932 591.204 50.2412 589.297C47.1438 587.436 44.6567 584.61 42.7799 580.82C40.9578 577.075 39.7539 572.188 39.1683 566.161L37.76 551.665C37.2034 545.936 35.5812 541.92 32.8934 539.616C30.2555 537.308 25.848 536.454 19.6709 537.054L18.582 525.846C25.8052 525.144 31.7438 525.196 36.398 526C41.0972 526.751 44.7937 528.051 47.4878 529.901C50.1818 531.752 52.1303 533.951 53.3333 536.499C54.5314 538.997 55.266 541.642 55.5371 544.431L57.3374 562.962C57.9182 568.94 59.3757 573.073 61.7099 575.36C64.094 577.643 68.3496 578.487 74.4769 577.891L75.9288 592.836ZM19.6709 537.054L17.9576 519.42L35.9658 517.67L37.6791 535.305L19.6709 537.054Z" fill="white"/>
<path d="M126.397 160.453L127.487 145.477L204.138 116.204L202.759 135.148L147.999 154.272L148.674 153.267L148.494 155.738L147.966 154.721L199.381 181.572L198.013 200.366L126.397 160.453ZM302.432 173.264L225.792 202.387L227.16 183.593L281.92 164.47L281.25 165.4L281.43 162.929L281.953 164.021L230.538 137.17L231.917 118.226L303.522 158.289L302.432 173.264Z" fill="white"/>
<path d="M582.143 689.923L580.703 674.978L651.35 633.25L653.172 652.156L602.4 680.203L602.897 679.099L603.135 681.565L602.443 680.651L657.637 698.487L659.444 717.244L582.143 689.923ZM715.451 596.376L692.428 733.148L675.763 734.754L698.786 597.982L715.451 596.376ZM811.634 667.809L740.973 709.388L739.165 690.631L789.937 662.584L789.433 663.613L789.195 661.147L789.894 662.136L734.701 644.3L732.879 625.393L810.194 652.864L811.634 667.809Z" fill="white"/>
<path d="M642.459 172.018L582.078 46.1092L612.066 31.7282L618.656 45.4699L605.727 51.6703L652.928 150.096L665.857 143.895L672.447 157.637L642.459 172.018Z" fill="white"/>
<path d="M219.429 797.318L222.113 782.316L236.228 784.84L255.448 677.388L241.333 674.863L244.017 659.861L276.829 665.73L252.241 803.187L219.429 797.318Z" fill="white"/>
<path d="M884.75 312.145L886.774 301.068C880.669 299.952 876.66 297.947 874.746 295.054C872.793 292.102 872.329 287.82 873.354 282.207L875.999 267.732C877.088 261.775 877.269 256.745 876.543 252.644C875.768 248.534 874.15 245.135 871.691 242.447C869.182 239.75 865.94 237.58 861.967 235.938C857.944 234.287 853.273 232.976 847.956 232.004L845.257 246.775C851.313 247.881 855.174 249.859 856.842 252.707C858.46 255.547 858.729 259.921 857.649 265.829L854.276 284.292C853.772 287.049 853.749 289.818 854.208 292.598C854.675 295.329 855.951 297.954 858.035 300.471C860.128 302.94 863.331 305.179 867.645 307.188C871.909 309.188 877.611 310.841 884.75 312.145ZM822.855 369.368C828.173 370.34 833.005 370.765 837.352 370.644C841.649 370.513 845.448 369.63 848.749 367.995C851.991 366.399 854.707 363.792 856.894 360.172C859.024 356.593 860.633 351.825 861.722 345.867L864.34 331.54C865.374 325.878 867.327 322.012 870.199 319.942C873.021 317.863 877.484 317.381 883.589 318.497L885.614 307.419C878.475 306.114 872.552 305.668 867.847 306.08C863.102 306.434 859.309 307.42 856.47 309.038C853.63 310.656 851.504 312.684 850.092 315.123C848.688 317.512 847.735 320.085 847.231 322.842L843.884 341.158C842.805 347.066 841.006 351.062 838.488 353.146C835.921 355.221 831.61 355.705 825.554 354.598L822.855 369.368ZM883.589 318.497L886.774 301.068L868.976 297.815L865.791 315.244L883.589 318.497Z" fill="white"/>
<path d="M659.967 479.732L650.843 471.427C618.437 442.041 597.043 422.598 597.043 398.876C597.043 379.432 612.27 364.268 631.651 364.268C642.6 364.268 653.108 369.364 659.967 377.356C666.825 369.364 677.334 364.268 688.282 364.268C707.663 364.268 722.89 379.432 722.89 398.876C722.89 422.598 701.496 442.041 669.091 471.427L659.967 479.732Z" fill="#FF005C"/>
</svg>
