<svg width="886" height="690" viewBox="0 0 886 690" fill="none" xmlns="http://www.w3.org/2000/svg">
<path d="M399.859 273.741L372.746 24.4629L504.717 10.109L513.772 38.7979L595.887 29.8665L611.836 176.501L509.192 187.665L500.137 158.976L418.022 167.907L429.186 270.551L399.859 273.741Z" fill="#FF005C"/>
<path d="M554.43 588.121C548.714 570.535 532.227 557.566 512.663 557.566H490.681V491.619C490.681 485.789 488.365 480.198 484.243 476.075C480.12 471.953 474.529 469.637 468.699 469.637H336.805V425.672H380.77C386.6 425.672 392.191 423.356 396.314 419.234C400.436 415.111 402.752 409.52 402.752 403.69V359.726H446.717C458.377 359.726 469.559 355.094 477.804 346.849C486.049 338.604 490.681 327.421 490.681 315.761V306.748C516.982 317.352 540.322 334.171 558.703 355.765C577.085 377.36 589.959 403.087 596.225 430.744C602.491 458.401 601.962 487.165 594.683 514.573C587.404 541.981 573.592 567.217 554.43 588.121ZM402.752 643.956C315.922 633.185 248.877 559.324 248.877 469.637C248.877 456.008 250.635 442.818 253.493 430.289L358.788 535.583V557.566C358.788 569.226 363.42 580.408 371.665 588.653C379.91 596.898 391.092 601.53 402.752 601.53M424.734 249.814C395.867 249.814 367.282 255.5 340.612 266.547C313.942 277.595 289.709 293.787 269.297 314.199C228.072 355.424 204.912 411.336 204.912 469.637C204.912 527.937 228.072 583.85 269.297 625.075C289.709 645.487 313.942 661.679 340.612 672.726C367.282 683.773 395.867 689.459 424.734 689.459C483.035 689.459 538.948 666.299 580.172 625.075C621.397 583.85 644.557 527.937 644.557 469.637C644.557 440.769 638.871 412.184 627.824 385.514C616.777 358.844 600.585 334.611 580.172 314.199C559.76 293.787 535.527 277.595 508.857 266.547C482.187 255.5 453.602 249.814 424.734 249.814Z" fill="white"/>
<path d="M796.397 73.2732L793.802 88.5888L781.872 98.431L797.138 101.039L807.03 112.956L809.589 97.7031L821.555 87.798L806.252 85.2527M750.781 101.445L745.691 132.05L721.732 151.761L752.336 156.851L772.047 180.81L777.138 150.206L801.097 130.495L770.492 125.404M815.005 142.718L812.396 157.984L800.48 167.875L815.732 170.434L825.638 182.4L828.183 167.098L840.162 157.242L824.847 154.648" fill="white"/>
<path d="M96.5007 70.6977L107.071 82.0805L122.445 83.7664L111.111 94.3207L109.376 109.71L98.8704 98.3603L83.4319 96.6416L94.8308 86.1201M150.095 69.2335L171.138 92.0312L201.983 95.371L179.185 116.414L175.845 147.259L154.802 124.461L123.957 121.121L146.755 100.078M119.032 138.97L129.587 150.304L144.976 152.039L133.626 162.544L131.907 177.983L121.386 166.584L105.963 164.914L117.346 154.344" fill="white"/>
<path d="M796.136 405.769L798.731 421.085L810.661 430.927L795.395 433.535L785.503 445.452L782.945 430.199L770.978 420.294L786.281 417.749M841.752 433.941L846.843 464.546L870.802 484.257L840.197 489.348L820.486 513.306L815.396 482.702L791.437 462.991L822.041 457.9M777.529 475.214L780.137 490.48L792.053 500.371L776.801 502.93L766.896 514.896L764.35 499.594L752.371 489.739L767.686 487.144" fill="white"/>
<path d="M114.171 352.812L104.869 365.252L89.7619 368.562L102.153 377.852L105.512 392.971L114.753 380.569L129.921 377.221L117.469 367.969M60.7247 357.047L42.2216 381.951L11.906 388.547L36.8096 407.05L43.4061 437.366L61.9092 412.462L92.2248 405.866L67.3213 387.363M99.0175 423.09L89.7265 435.481L74.6081 438.841L87.0097 448.081L90.3582 463.25L99.6097 450.798L114.768 447.5L102.327 438.198" fill="white"/>
</svg>
