<svg width="137" height="25" viewBox="0 0 137 25" fill="none" xmlns="http://www.w3.org/2000/svg">
<path d="M4.86289 24.5851C4.86289 17.1821 4.86289 12.3293 4.86289 6.02747L0 0.409389H15.7281C17.5963 0.409389 19.231 0.735981 20.6321 1.38917C22.0333 2.04235 23.1231 2.98278 23.9015 4.21045C24.6799 5.43812 25.0692 6.90975 25.0692 8.62534C25.0692 10.3567 24.6677 11.8165 23.8646 13.0048C23.0698 14.1931 21.9514 15.0903 20.5092 15.6963C19.0753 16.3022 17.3996 16.6052 15.4822 16.6052H8.99264V11.5056H14.1057C14.9087 11.5056 15.5929 11.4112 16.1582 11.2223C16.7318 11.0256 17.1702 10.7147 17.4734 10.2898C17.7847 9.86482 17.9404 9.31001 17.9404 8.62534C17.9404 7.93281 17.7847 7.37013 17.4734 6.9373C17.1702 6.49659 16.7318 6.17393 16.1582 5.96932C15.5929 5.75684 14.9087 5.6506 14.1057 5.6506H11.6966V24.5851H4.86289ZM19.612 13.4888L25.9049 24.5851H18.4812L12.3358 13.4888H19.612Z" fill="white"/>
<path d="M28.6254 24.5851V0.380361H35.2826V24.5851H28.6254ZM33.3035 24.5851L33.3035 19.3966H43.5592L43.5592 24.5851H33.3035ZM33.3035 15.3322L33.3035 10.2898H43.5592L43.5592 15.3322H33.3035ZM33.3035 5.96932V0.380361H43.5592V5.96932H33.3035Z" fill="white"/>
<path d="M56.9122 24.5851L65.7645 0.380359H72.9615L63.3535 24.5851H56.9122ZM56.1565 24.5851L46.4766 0.380359H53.6735L62.5978 24.5851H56.1565Z" fill="white"/>
<path d="M86.9045 25C84.2656 25 81.9266 24.4698 79.8874 23.4094C77.8723 22.326 76.2889 20.8506 75.1374 18.9834C73.9859 17.0931 73.4101 14.9378 73.4101 12.5173C73.4101 10.0738 73.9859 7.9184 75.1374 6.05118C76.2889 4.1609 77.8723 2.68557 79.8874 1.62517C81.9026 0.541724 84.2176 0 86.8325 0C89.4714 0 91.7984 0.541724 93.8136 1.62517C95.8287 2.68557 97.4121 4.1609 98.5636 6.05118C99.7151 7.9184 100.291 10.0738 100.291 12.5173C100.291 14.9378 99.7151 17.0931 98.5636 18.9834C97.4361 20.8506 95.8647 22.326 93.8496 23.4094C91.8344 24.4698 89.5194 25 86.9045 25ZM86.9045 19.1217C88.1999 19.1217 89.3395 18.8451 90.3231 18.2918C91.3066 17.7155 92.0743 16.9318 92.6261 15.9405C93.1779 14.9493 93.4537 13.8082 93.4537 12.5173C93.4537 11.2264 93.1659 10.0853 92.5901 9.09405C92.0383 8.07976 91.2587 7.29599 90.2511 6.74274C89.2675 6.16644 88.128 5.87829 86.8325 5.87829C85.5611 5.87829 84.4215 6.16644 83.4139 6.74274C82.4304 7.29599 81.6507 8.07976 81.0749 9.09405C80.5232 10.0853 80.2473 11.2264 80.2473 12.5173C80.2473 13.8082 80.5352 14.9493 81.1109 15.9405C81.6867 16.9318 82.4663 17.7155 83.4499 18.2918C84.4575 18.8451 85.609 19.1217 86.9045 19.1217Z" fill="white"/>
<path d="M103.345 24.5851V0.380359H110.002V24.5851H103.345ZM107.088 24.5851L107.088 19.1217L118.103 19.1217L118.103 24.5851L107.088 24.5851Z" fill="white"/>
<path d="M123.254 24.5851V2.38589H129.911V24.5851H123.254ZM116.129 5.87829L116.129 0.38036H137L137 5.87829H116.129Z" fill="white"/>
</svg>
