<svg xmlns="http://www.w3.org/2000/svg" viewBox="0 0 70 39.25"><defs><style>.a{fill:#fff;}</style></defs><path class="a" d="M70,70H0A34.68,34.68,0,0,1,17.92,42.57l-5.81-10a1.18,1.18,0,0,1,2-1.19L20,41.52a35.84,35.84,0,0,1,15-3.19,35.84,35.84,0,0,1,15,3.19l5.89-10.19a1.16,1.16,0,0,1,1.6-.42,1.18,1.18,0,0,1,.42,1.61l-5.8,10A34.68,34.68,0,0,1,70,70ZM51.06,60.17a2.94,2.94,0,1,0-2.93-2.93A2.93,2.93,0,0,0,51.06,60.17Zm-32.13,0A2.94,2.94,0,1,0,16,57.24,2.93,2.93,0,0,0,18.93,60.17Z" transform="translate(0 -30.75)"/></svg>