<svg xmlns="http://www.w3.org/2000/svg" viewBox="0 0 70 34.73"><defs><style>.a{fill:#fff;}</style></defs><path class="a" d="M.33,51.81H6.11V27.17H.33ZM3.21,23.93a3.15,3.15,0,1,0,0-6.3,3.15,3.15,0,1,0,0,6.3ZM25.39,17.7c-9.79,0-15.93,6.68-15.93,17.35S15.6,52.37,25.39,52.37s15.9-6.65,15.9-17.32S35.15,17.7,25.39,17.7Zm0,5.12c6,0,9.78,4.74,9.78,12.23s-3.81,12.2-9.78,12.2-9.79-4.74-9.79-12.2S19.39,22.82,25.39,22.82ZM43.73,42.37c.26,6.18,5.32,10,13,10C64.89,52.37,70,48.37,70,42c0-5-2.88-7.81-9.69-9.37l-3.86-.88c-4.12-1-5.82-2.28-5.82-4.51,0-2.79,2.56-4.65,6.35-4.65s6.46,1.88,6.74,5h5.72c-.14-5.91-5-9.91-12.41-9.91s-12.49,4-12.49,10c0,4.79,2.93,7.76,9.12,9.18l4.34,1c4.23,1,6,2.4,6,4.82,0,2.78-2.82,4.78-6.86,4.78s-7.19-2-7.56-5.11Z" transform="translate(0 -17.63)"/></svg>