<svg xmlns="http://www.w3.org/2000/svg" viewBox="0 0 70 16.44"><defs><style>.a{fill:#fff;}</style></defs><path class="a" d="M0,43H2.74V35.8A2.27,2.27,0,0,1,5,33.36a2,2,0,0,1,2.08,2.11V43H9.73V35.73A2.2,2.2,0,0,1,12,33.36a2,2,0,0,1,2.09,2.25V43H16.8v-8A3.63,3.63,0,0,0,13,31.05,3.76,3.76,0,0,0,9.35,33.4H9.28A3.15,3.15,0,0,0,6,31.05,3.43,3.43,0,0,0,2.69,33.3H2.63v-2H0V43Zm22.81-1.88c-1.19,0-2-.61-2-1.57s.76-1.52,2.09-1.61l2.7-.16v.89a2.6,2.6,0,0,1-2.8,2.45ZM22,43.14a4.13,4.13,0,0,0,3.64-2h.05V43h2.65v-8c0-2.35-1.89-3.88-4.78-3.88s-4.84,1.56-5,3.74h2.55a2.08,2.08,0,0,1,2.31-1.59c1.35,0,2.18.7,2.18,1.92v.84l-3.09.18c-2.84.18-4.44,1.42-4.44,3.49s1.64,3.53,3.9,3.53Zm18.39-7.7C40.18,33,38.27,31,35.19,31c-3.4,0-5.6,2.34-5.6,6.08s2.2,6.07,5.62,6.07c2.93,0,4.95-1.72,5.17-4.33H37.79A2.43,2.43,0,0,1,35.24,41c-1.74,0-2.86-1.41-2.86-3.86s1.11-3.86,2.84-3.86a2.48,2.48,0,0,1,2.56,2.18h2.59Zm8.48-8.66c-4.64,0-7.56,3.17-7.56,8.23s2.91,8.21,7.56,8.21,7.54-3.15,7.54-8.21S53.48,26.78,48.85,26.78Zm0,2.43c2.83,0,4.64,2.25,4.64,5.8s-1.81,5.78-4.64,5.78S44.21,38.54,44.21,35s1.79-5.8,4.64-5.8Zm8.69,9.27c.12,2.93,2.53,4.74,6.19,4.74,3.84,0,6.27-1.9,6.27-4.92,0-2.37-1.37-3.7-4.6-4.44l-1.83-.42c-2-.46-2.75-1.08-2.75-2.14,0-1.32,1.21-2.2,3-2.2S66.89,30,67,31.48h2.72c-.07-2.8-2.39-4.7-5.89-4.7s-5.92,1.91-5.92,4.73c0,2.27,1.39,3.68,4.32,4.36l2.06.48c2,.47,2.82,1.14,2.82,2.28,0,1.33-1.33,2.27-3.25,2.27s-3.4-1-3.58-2.42Z" transform="translate(0 -26.78)"/></svg>